<svg xmlns="http://www.w3.org/2000/svg" xmlns:xlink="http://www.w3.org/1999/xlink" width="500" zoomAndPan="magnify" viewBox="0 0 375 374.999991" height="500" preserveAspectRatio="xMidYMid meet" version="1.0"><defs><g/><clipPath id="cc4f1c9e7d"><path d="M 0 133.363281 L 99.75 133.363281 L 99.75 232.363281 L 0 232.363281 Z M 0 133.363281 " clip-rule="nonzero"/></clipPath></defs><path fill="#7c3a49" d="M 43.59375 178.886719 C 45.230469 179.242188 46.382812 180.113281 47.109375 181.539062 C 47.246094 181.816406 47.523438 181.972656 47.8125 181.972656 C 47.933594 181.972656 48.054688 181.945312 48.171875 181.886719 C 48.558594 181.6875 48.714844 181.210938 48.515625 180.824219 C 47.574219 178.972656 46.03125 177.800781 43.929688 177.34375 C 43.503906 177.25 43.082031 177.519531 42.992188 177.945312 C 42.898438 178.371094 43.167969 178.792969 43.59375 178.886719 Z M 43.59375 178.886719 " fill-opacity="1" fill-rule="nonzero"/><path fill="#7c3a49" d="M 51.785156 181.886719 C 51.902344 181.945312 52.023438 181.972656 52.144531 181.972656 C 52.433594 181.972656 52.710938 181.816406 52.851562 181.542969 C 53.578125 180.113281 54.726562 179.246094 56.363281 178.886719 C 56.789062 178.792969 57.058594 178.375 56.96875 177.949219 C 56.875 177.519531 56.453125 177.25 56.027344 177.34375 C 53.929688 177.800781 52.386719 178.972656 51.441406 180.824219 C 51.246094 181.210938 51.398438 181.6875 51.785156 181.886719 Z M 51.785156 181.886719 " fill-opacity="1" fill-rule="nonzero"/><path fill="#7c3a49" d="M 9.925781 207.160156 C 8.539062 207.65625 7.558594 208.691406 7.011719 210.238281 C 6.863281 210.652344 7.078125 211.101562 7.492188 211.246094 C 7.578125 211.277344 7.667969 211.292969 7.753906 211.292969 C 8.078125 211.292969 8.382812 211.089844 8.5 210.765625 C 8.886719 209.671875 9.527344 208.980469 10.457031 208.648438 C 10.867188 208.503906 11.082031 208.050781 10.933594 207.640625 C 10.789062 207.230469 10.335938 207.015625 9.925781 207.160156 Z M 9.925781 207.160156 " fill-opacity="1" fill-rule="nonzero"/><g clip-path="url(#cc4f1c9e7d)"><path fill="#7c3a49" d="M 99.273438 228.410156 C 98.558594 227.332031 97.507812 226.53125 96.304688 226.152344 C 94.160156 225.480469 92.957031 224.351562 92.613281 222.714844 C 93.9375 220.417969 98.273438 210.132812 97.296875 204.523438 C 96.355469 199.105469 86.78125 192.347656 84.601562 190.875 C 84.769531 189.984375 85.199219 188.527344 85.683594 186.871094 C 86.988281 182.433594 88.773438 176.355469 88.074219 172.925781 C 87.101562 168.15625 81.304688 162.90625 78.367188 160.773438 C 78.359375 160.765625 78.355469 160.757812 78.34375 160.75 C 78.335938 160.742188 78.324219 160.742188 78.316406 160.734375 C 77.972656 160.488281 77.664062 160.273438 77.414062 160.121094 C 75.757812 159.097656 74.136719 158.792969 72.703125 158.523438 C 71.691406 158.332031 70.738281 158.152344 69.929688 157.738281 C 68.390625 156.949219 66.851562 155.285156 66.292969 154.644531 C 66.601562 152.859375 66.625 151.015625 66.164062 149.207031 C 65.039062 144.820312 61.007812 142.121094 56.347656 140.871094 C 56.828125 139.222656 56.644531 137.535156 55.792969 136.222656 C 54.6875 134.519531 52.625 133.582031 49.980469 133.582031 C 47.363281 133.582031 45.316406 134.496094 44.214844 136.15625 C 43.335938 137.484375 43.132812 139.164062 43.621094 140.867188 C 38.953125 142.117188 34.917969 144.816406 33.792969 149.203125 C 33.332031 151.015625 33.351562 152.855469 33.664062 154.644531 C 33.105469 155.285156 31.566406 156.949219 30.027344 157.738281 C 29.21875 158.152344 28.265625 158.332031 27.25 158.523438 C 25.820312 158.792969 24.199219 159.097656 22.542969 160.121094 C 22.292969 160.273438 21.984375 160.488281 21.644531 160.734375 C 21.632812 160.742188 21.621094 160.742188 21.613281 160.75 C 21.601562 160.757812 21.59375 160.765625 21.585938 160.773438 C 18.652344 162.90625 12.855469 168.160156 11.882812 172.925781 C 11.183594 176.355469 12.96875 182.433594 14.273438 186.875 C 14.757812 188.523438 15.1875 189.980469 15.355469 190.871094 C 13.152344 192.34375 3.46875 199.101562 2.527344 204.523438 C 1.550781 210.132812 5.886719 220.417969 7.210938 222.714844 C 6.867188 224.351562 5.664062 225.480469 3.519531 226.152344 C 2.320312 226.53125 1.265625 227.332031 0.550781 228.414062 C 0.0703125 229.148438 0.0273438 230.085938 0.445312 230.859375 C 0.859375 231.632812 1.667969 232.113281 2.546875 232.113281 L 17.402344 232.113281 C 19.210938 232.113281 20.84375 231.183594 21.765625 229.628906 C 22.6875 228.082031 22.722656 226.210938 21.863281 224.628906 C 20.820312 222.714844 20.308594 220.949219 20.257812 219.105469 C 21.414062 217.933594 22.578125 216.546875 22.925781 215.417969 C 23.277344 214.285156 23.285156 213.191406 23.199219 212.34375 C 24.371094 212.789062 25.792969 213.113281 27.601562 213.113281 C 29.429688 213.113281 31.292969 212.902344 33.164062 212.507812 C 33.140625 212.804688 33.140625 213.117188 33.183594 213.464844 C 33.378906 215.027344 34.457031 215.941406 35.324219 216.679688 C 35.878906 217.148438 36.402344 217.59375 36.601562 218.109375 C 37.011719 219.152344 36.792969 221.910156 36.558594 223.398438 C 36.503906 223.738281 36.679688 224.074219 36.988281 224.230469 C 37.101562 224.285156 37.21875 224.3125 37.339844 224.3125 C 37.550781 224.3125 37.757812 224.226562 37.910156 224.066406 C 38.574219 223.375 41.882812 219.816406 41.882812 217.753906 C 41.882812 216.980469 41.707031 216.191406 41.371094 215.40625 C 41.066406 214.710938 41.050781 213.976562 41.320312 213.347656 C 41.339844 213.304688 41.359375 213.253906 41.375 213.210938 C 42.667969 213.9375 43.96875 214.515625 45.261719 214.929688 C 45.195312 215.078125 45.128906 215.222656 45.054688 215.378906 C 44.644531 216.234375 44.136719 217.304688 44.136719 219.222656 C 44.136719 222.773438 50.132812 227.507812 50.816406 228.035156 C 50.957031 228.144531 51.125 228.199219 51.296875 228.199219 C 51.4375 228.199219 51.578125 228.164062 51.703125 228.085938 C 51.980469 227.921875 52.128906 227.601562 52.078125 227.28125 C 51.425781 223.367188 52.535156 220.507812 53.515625 217.984375 C 53.921875 216.9375 54.304688 215.933594 54.523438 214.945312 C 55.828125 214.527344 57.144531 213.945312 58.449219 213.210938 C 58.464844 213.253906 58.484375 213.304688 58.503906 213.347656 C 58.773438 213.976562 58.753906 214.707031 58.453125 215.40625 C 58.113281 216.191406 57.941406 216.980469 57.941406 217.75 C 57.941406 219.816406 61.25 223.375 61.914062 224.066406 C 62.066406 224.226562 62.273438 224.308594 62.484375 224.308594 C 62.605469 224.308594 62.722656 224.285156 62.835938 224.226562 C 63.144531 224.074219 63.316406 223.738281 63.265625 223.398438 C 63.03125 221.90625 62.8125 219.15625 63.21875 218.105469 C 63.421875 217.59375 63.945312 217.148438 64.5 216.675781 C 65.367188 215.941406 66.445312 215.027344 66.640625 213.464844 C 66.683594 213.117188 66.683594 212.804688 66.660156 212.507812 C 68.527344 212.902344 70.394531 213.113281 72.222656 213.113281 C 74.03125 213.113281 75.453125 212.789062 76.625 212.34375 C 76.535156 213.191406 76.546875 214.28125 76.898438 215.417969 C 77.246094 216.542969 78.40625 217.929688 79.566406 219.105469 C 79.511719 220.949219 79.003906 222.714844 77.960938 224.628906 C 77.101562 226.210938 77.136719 228.078125 78.058594 229.628906 C 78.980469 231.183594 80.613281 232.113281 82.417969 232.113281 L 97.277344 232.113281 C 98.15625 232.113281 98.960938 231.628906 99.378906 230.855469 C 99.796875 230.082031 99.753906 229.148438 99.273438 228.410156 Z M 64.058594 165.152344 C 63.175781 166.574219 61.46875 166.777344 60.296875 166.722656 C 60.570312 166.359375 60.742188 166.109375 60.792969 166.035156 C 61.632812 164.957031 62.863281 163.230469 63.972656 161.136719 C 64.472656 162.171875 64.933594 163.75 64.058594 165.152344 Z M 35.988281 161.140625 C 37.097656 163.234375 38.324219 164.957031 39.164062 166.035156 C 39.214844 166.109375 39.386719 166.359375 39.664062 166.730469 C 38.496094 166.785156 36.785156 166.585938 35.898438 165.152344 C 35.03125 163.761719 35.488281 162.179688 35.988281 161.140625 Z M 40.570312 165.289062 C 40.199219 161.148438 40.519531 154.46875 42.953125 153.566406 C 45.085938 152.769531 48.316406 155.820312 49.378906 157.0625 C 49.527344 157.238281 49.75 157.339844 49.980469 157.339844 C 50.210938 157.339844 50.429688 157.238281 50.582031 157.0625 C 51.640625 155.820312 54.855469 152.765625 57.003906 153.566406 C 59.4375 154.46875 59.757812 161.148438 59.386719 165.289062 C 58.65625 166.324219 54.417969 172.023438 49.980469 172.023438 C 45.546875 172.023438 41.304688 166.324219 40.570312 165.289062 Z M 45.53125 137.027344 C 46.339844 135.804688 47.878906 135.160156 49.980469 135.160156 C 52.070312 135.160156 53.664062 135.84375 54.46875 137.082031 C 54.894531 137.738281 55.078125 138.519531 55.027344 139.347656 C 54.113281 138.191406 52.515625 137.109375 49.980469 137.109375 C 47.460938 137.109375 45.867188 138.175781 44.949219 139.320312 C 44.90625 138.476562 45.097656 137.683594 45.53125 137.027344 Z M 53.796875 140.339844 C 52.527344 140.144531 51.238281 140.046875 49.980469 140.046875 C 48.71875 140.046875 47.433594 140.144531 46.164062 140.339844 C 46.769531 139.554688 47.90625 138.6875 49.980469 138.6875 C 52.050781 138.6875 53.191406 139.554688 53.796875 140.339844 Z M 35.324219 149.597656 C 36.527344 144.90625 42.550781 141.628906 49.980469 141.628906 C 57.40625 141.628906 63.433594 144.90625 64.632812 149.597656 C 65.863281 154.398438 63.253906 159.625 61.085938 162.910156 C 61.15625 159.261719 60.761719 153.277344 57.554688 152.085938 C 54.664062 151.011719 51.347656 153.964844 49.980469 155.382812 C 48.609375 153.96875 45.300781 151.007812 42.402344 152.085938 C 39.195312 153.277344 38.800781 159.265625 38.871094 162.910156 C 36.707031 159.625 34.09375 154.398438 35.324219 149.597656 Z M 13.429688 173.238281 C 13.949219 170.707031 16.230469 167.796875 18.570312 165.460938 C 18.148438 166.898438 17.972656 168.507812 18.082031 170.28125 C 18.109375 170.699219 18.457031 171.019531 18.871094 171.019531 C 18.886719 171.019531 18.90625 171.019531 18.921875 171.019531 C 19.355469 170.992188 19.6875 170.617188 19.660156 170.179688 C 19.429688 166.546875 20.414062 163.800781 22.574219 162.007812 C 22.867188 161.796875 23.144531 161.605469 23.375 161.464844 C 24.78125 160.59375 26.1875 160.332031 27.542969 160.074219 C 28.671875 159.863281 29.738281 159.660156 30.746094 159.144531 C 32.035156 158.484375 33.265625 157.359375 34.09375 156.511719 C 34.378906 157.515625 34.742188 158.488281 35.152344 159.414062 C 34.472656 160.4375 32.898438 163.316406 34.554688 165.988281 C 35.75 167.90625 37.800781 168.316406 39.328125 168.316406 C 39.957031 168.316406 40.496094 168.246094 40.847656 168.183594 C 42.800781 170.433594 46.21875 173.601562 49.980469 173.601562 C 53.738281 173.601562 57.15625 170.433594 59.109375 168.183594 C 59.464844 168.246094 60 168.316406 60.628906 168.316406 C 62.15625 168.316406 64.207031 167.90625 65.402344 165.988281 C 67.0625 163.316406 65.484375 160.4375 64.804688 159.414062 C 65.214844 158.488281 65.578125 157.515625 65.867188 156.511719 C 66.691406 157.359375 67.921875 158.484375 69.210938 159.144531 C 70.21875 159.660156 71.285156 159.863281 72.414062 160.074219 C 73.773438 160.332031 75.179688 160.59375 76.585938 161.464844 C 76.8125 161.605469 77.089844 161.796875 77.382812 162.007812 C 79.542969 163.796875 80.527344 166.546875 80.300781 170.183594 C 80.273438 170.617188 80.601562 170.992188 81.039062 171.019531 C 81.054688 171.019531 81.070312 171.023438 81.089844 171.023438 C 81.5 171.023438 81.847656 170.699219 81.875 170.28125 C 81.988281 168.507812 81.808594 166.898438 81.386719 165.460938 C 83.726562 167.796875 86.011719 170.707031 86.527344 173.242188 C 87.148438 176.289062 85.425781 182.148438 84.167969 186.425781 C 83.542969 188.5625 83.046875 190.246094 82.957031 191.179688 C 82.839844 192.460938 82.992188 194.46875 83.421875 197.144531 C 83.667969 198.695312 83.136719 200.234375 82.089844 201.242188 C 81.945312 198.402344 81.34375 195.875 80.28125 193.710938 C 80.085938 193.320312 79.617188 193.15625 79.222656 193.351562 C 78.832031 193.542969 78.667969 194.015625 78.863281 194.40625 C 79.9375 196.59375 80.496094 199.214844 80.535156 202.195312 C 80.109375 202.296875 79.65625 202.25 79.261719 202.050781 C 78.753906 201.796875 78.414062 201.339844 78.324219 200.789062 C 77.925781 198.335938 76.644531 194.601562 74.75 194.375 C 74.136719 194.304688 73.203125 194.492188 72.289062 195.808594 C 72.101562 196.078125 71.816406 196.253906 71.488281 196.300781 C 71.152344 196.347656 70.828125 196.253906 70.566406 196.039062 C 70.082031 195.644531 69.992188 194.933594 70.355469 194.421875 C 70.363281 194.410156 70.371094 194.402344 70.378906 194.390625 C 71.714844 192.558594 72.246094 192.148438 72.375 192.066406 C 72.65625 191.890625 73.0625 191.6875 73.578125 191.457031 C 74.214844 191.179688 74.699219 190.667969 74.941406 190.019531 C 75.183594 189.371094 75.152344 188.667969 74.859375 188.039062 C 74.414062 187.09375 73.863281 185.714844 73.78125 184.503906 C 73.65625 182.660156 74.585938 180.789062 74.890625 180.230469 C 75.402344 179.941406 75.785156 179.75 76.335938 179.75 C 77.652344 179.75 78.679688 181.074219 78.699219 181.097656 C 78.960938 181.445312 79.453125 181.515625 79.800781 181.253906 C 80.152344 180.992188 80.222656 180.496094 79.960938 180.148438 C 79.898438 180.070312 78.457031 178.171875 76.335938 178.171875 C 75.3125 178.171875 74.628906 178.5625 73.964844 178.9375 C 73.273438 179.328125 72.558594 179.734375 71.230469 179.875 C 68.738281 180.128906 66.578125 178.777344 66.558594 178.765625 C 66.1875 178.527344 65.703125 178.636719 65.464844 179.003906 C 65.230469 179.371094 65.339844 179.859375 65.707031 180.09375 C 65.769531 180.132812 66.675781 180.703125 68.023438 181.101562 C 66.738281 182.769531 63.695312 186.125 59.929688 186.238281 C 54.90625 186.394531 52.828125 184.070312 52.746094 183.972656 C 52.460938 183.644531 51.964844 183.605469 51.628906 183.886719 C 51.300781 184.171875 51.261719 184.671875 51.546875 185.003906 C 51.648438 185.121094 54.03125 187.828125 59.464844 187.828125 C 59.632812 187.828125 59.804688 187.824219 59.980469 187.820312 C 64.621094 187.675781 68.113281 183.640625 69.441406 181.851562 C 69.792969 182.234375 70.128906 182.628906 70.445312 183.042969 C 69.78125 185.4375 65.328125 199.066406 49.976562 199.066406 C 34.460938 199.066406 30.164062 185.515625 29.507812 183.046875 C 29.824219 182.632812 30.160156 182.234375 30.515625 181.851562 C 31.839844 183.640625 35.335938 187.675781 39.976562 187.820312 C 40.152344 187.824219 40.324219 187.828125 40.492188 187.828125 C 45.925781 187.828125 48.308594 185.121094 48.410156 185.003906 C 48.695312 184.671875 48.65625 184.171875 48.324219 183.890625 C 47.996094 183.605469 47.496094 183.644531 47.210938 183.976562 C 47.191406 184 45.09375 186.394531 40.027344 186.242188 C 36.261719 186.125 33.214844 182.769531 31.929688 181.101562 C 33.28125 180.703125 34.1875 180.136719 34.25 180.09375 C 34.617188 179.859375 34.722656 179.375 34.488281 179.007812 C 34.257812 178.640625 33.769531 178.53125 33.398438 178.765625 C 33.378906 178.777344 31.207031 180.125 28.726562 179.875 C 27.398438 179.738281 26.683594 179.332031 25.992188 178.9375 C 25.328125 178.5625 24.644531 178.171875 23.621094 178.171875 C 21.5 178.171875 20.054688 180.070312 19.996094 180.148438 C 19.734375 180.496094 19.804688 180.988281 20.152344 181.25 C 20.5 181.515625 20.996094 181.445312 21.257812 181.097656 C 21.269531 181.085938 22.296875 179.75 23.617188 179.75 C 24.171875 179.75 24.554688 179.941406 25.066406 180.230469 C 25.371094 180.785156 26.300781 182.648438 26.175781 184.503906 C 26.113281 185.457031 25.738281 186.679688 25.097656 188.039062 C 24.804688 188.667969 24.773438 189.371094 25.015625 190.019531 C 25.257812 190.667969 25.742188 191.179688 26.378906 191.457031 C 26.886719 191.683594 27.304688 191.894531 27.582031 192.066406 C 27.710938 192.148438 28.242188 192.558594 29.582031 194.394531 C 29.589844 194.402344 29.589844 194.410156 29.597656 194.417969 C 29.964844 194.933594 29.875 195.640625 29.390625 196.039062 C 29.128906 196.253906 28.804688 196.347656 28.46875 196.296875 C 28.140625 196.25 27.855469 196.078125 27.667969 195.808594 C 26.753906 194.492188 25.820312 194.300781 25.207031 194.375 C 23.3125 194.601562 22.03125 198.335938 21.632812 200.789062 C 21.542969 201.339844 21.203125 201.796875 20.695312 202.050781 C 20.300781 202.25 19.847656 202.296875 19.421875 202.191406 C 19.460938 199.210938 20.019531 196.589844 21.097656 194.40625 C 21.289062 194.015625 21.125 193.542969 20.734375 193.347656 C 20.347656 193.15625 19.871094 193.316406 19.679688 193.710938 C 18.613281 195.871094 18.011719 198.402344 17.867188 201.242188 C 16.820312 200.230469 16.289062 198.695312 16.535156 197.144531 C 16.964844 194.464844 17.117188 192.457031 17 191.175781 C 16.910156 190.246094 16.414062 188.5625 15.789062 186.425781 C 14.53125 182.148438 12.808594 176.289062 13.429688 173.238281 Z M 49.980469 202.246094 C 36.574219 202.246094 30.957031 193.609375 30.902344 193.523438 C 30.898438 193.519531 30.894531 193.515625 30.890625 193.511719 C 30.882812 193.5 30.878906 193.488281 30.871094 193.480469 C 29.238281 191.238281 28.621094 190.855469 28.417969 190.726562 C 28.074219 190.511719 27.601562 190.269531 27.015625 190.011719 C 26.773438 189.90625 26.589844 189.710938 26.5 189.464844 C 26.40625 189.21875 26.417969 188.953125 26.53125 188.714844 C 26.753906 188.242188 26.9375 187.792969 27.097656 187.351562 C 27.101562 187.34375 27.109375 187.335938 27.117188 187.324219 C 27.480469 186.390625 27.917969 185.539062 28.394531 184.722656 C 29.941406 189.144531 35.371094 200.644531 49.980469 200.644531 C 64.585938 200.644531 70.019531 189.144531 71.566406 184.722656 C 72.042969 185.535156 72.480469 186.390625 72.84375 187.324219 C 72.847656 187.335938 72.855469 187.339844 72.859375 187.351562 C 73.023438 187.789062 73.207031 188.238281 73.429688 188.710938 C 73.542969 188.953125 73.554688 189.21875 73.460938 189.464844 C 73.367188 189.710938 73.183594 189.90625 72.941406 190.011719 C 72.359375 190.269531 71.886719 190.511719 71.539062 190.726562 C 71.335938 190.855469 70.71875 191.238281 69.085938 193.480469 C 69.078125 193.488281 69.074219 193.5 69.066406 193.511719 C 69.0625 193.515625 69.058594 193.519531 69.054688 193.523438 C 69 193.613281 63.382812 202.246094 49.980469 202.246094 Z M 27.65625 182.890625 C 27.554688 182.273438 27.394531 181.695312 27.214844 181.191406 C 27.609375 181.300781 28.050781 181.390625 28.566406 181.445312 C 28.621094 181.449219 28.675781 181.449219 28.730469 181.453125 C 28.347656 181.910156 27.992188 182.390625 27.65625 182.890625 Z M 71.226562 181.453125 C 71.28125 181.449219 71.335938 181.449219 71.390625 181.445312 C 71.910156 181.390625 72.347656 181.300781 72.742188 181.191406 C 72.5625 181.695312 72.402344 182.273438 72.300781 182.886719 C 71.964844 182.390625 71.609375 181.910156 71.226562 181.453125 Z M 27.601562 211.535156 C 24.230469 211.535156 22.480469 210.351562 20.929688 209.3125 C 19.847656 208.582031 18.824219 207.894531 17.511719 207.894531 C 14.363281 207.894531 12.960938 210.832031 12.902344 210.957031 C 12.71875 211.351562 12.890625 211.816406 13.28125 212.003906 C 13.675781 212.1875 14.148438 212.019531 14.332031 211.628906 C 14.375 211.539062 15.382812 209.476562 17.511719 209.476562 C 18.34375 209.476562 19.09375 209.980469 20.046875 210.621094 C 20.464844 210.902344 20.929688 211.210938 21.449219 211.511719 C 21.59375 212.074219 21.871094 213.488281 21.417969 214.953125 C 21.144531 215.835938 20.035156 217.105469 18.902344 218.222656 C 18.898438 218.226562 18.894531 218.230469 18.890625 218.234375 C 17.992188 219.125 17.074219 219.917969 16.550781 220.34375 C 16.210938 220.617188 16.160156 221.113281 16.433594 221.453125 C 16.59375 221.644531 16.820312 221.746094 17.050781 221.746094 C 17.222656 221.746094 17.398438 221.6875 17.546875 221.570312 C 17.6875 221.453125 18.171875 221.058594 18.789062 220.503906 C 19.019531 222.121094 19.574219 223.730469 20.476562 225.386719 C 21.066406 226.472656 21.042969 227.757812 20.40625 228.824219 C 19.769531 229.894531 18.648438 230.535156 17.402344 230.535156 L 2.546875 230.535156 C 2.109375 230.535156 1.902344 230.238281 1.835938 230.109375 C 1.765625 229.980469 1.632812 229.644531 1.871094 229.28125 C 2.382812 228.503906 3.136719 227.929688 3.992188 227.660156 C 6.269531 226.949219 7.75 225.734375 8.445312 224.054688 C 9.511719 224.839844 10.773438 225.257812 10.960938 225.316406 C 11.039062 225.339844 11.117188 225.351562 11.195312 225.351562 C 11.53125 225.351562 11.84375 225.136719 11.949219 224.796875 C 12.078125 224.382812 11.847656 223.9375 11.433594 223.808594 C 10.878906 223.632812 9.308594 222.992188 8.699219 222.121094 C 7.773438 220.804688 3.144531 210.195312 4.082031 204.792969 C 4.828125 200.511719 12.449219 194.816406 15.445312 192.730469 C 15.398438 193.820312 15.246094 195.226562 14.976562 196.898438 C 14.578125 199.414062 15.714844 201.941406 17.804688 203.179688 C 17.953125 203.269531 18.105469 203.351562 18.257812 203.433594 C 18.273438 203.445312 18.292969 203.449219 18.3125 203.457031 C 18.316406 203.460938 18.316406 203.460938 18.320312 203.464844 C 18.804688 203.703125 19.332031 203.828125 19.863281 203.828125 C 20.390625 203.828125 20.921875 203.707031 21.40625 203.464844 C 22.371094 202.980469 23.019531 202.097656 23.191406 201.042969 C 23.675781 198.054688 24.910156 196.015625 25.394531 195.945312 C 25.65625 195.921875 26.011719 196.191406 26.371094 196.710938 C 26.808594 197.335938 27.492188 197.757812 28.25 197.863281 C 29.019531 197.96875 29.796875 197.75 30.394531 197.261719 C 30.535156 197.144531 30.664062 197.015625 30.78125 196.875 C 30.976562 198.125 30.855469 199.390625 30.742188 200.542969 C 30.652344 201.46875 30.5625 202.347656 30.652344 203.125 C 30.796875 204.429688 31.609375 205.28125 32.394531 206.109375 C 33.03125 206.777344 33.632812 207.410156 33.867188 208.265625 C 34.121094 209.179688 33.898438 209.800781 33.621094 210.589844 C 33.597656 210.660156 33.574219 210.734375 33.546875 210.804688 C 31.550781 211.28125 29.550781 211.535156 27.601562 211.535156 Z M 38.382812 221.117188 C 38.453125 219.863281 38.425781 218.429688 38.074219 217.53125 C 37.730469 216.648438 37.023438 216.050781 36.34375 215.472656 C 35.554688 214.800781 34.867188 214.222656 34.75 213.269531 C 34.644531 212.429688 34.859375 211.820312 35.109375 211.117188 C 35.421875 210.238281 35.773438 209.238281 35.390625 207.84375 C 35.050781 206.609375 34.246094 205.761719 33.539062 205.019531 C 32.875 204.324219 32.304688 203.726562 32.21875 202.949219 C 32.152344 202.335938 32.230469 201.539062 32.3125 200.695312 C 32.40625 199.765625 32.503906 198.707031 32.441406 197.601562 C 33.890625 198.90625 35.921875 200.375 38.605469 201.558594 C 38.261719 202.371094 37.878906 203.671875 38.222656 204.945312 C 38.46875 205.851562 39.039062 206.488281 39.542969 207.050781 C 40.164062 207.738281 40.699219 208.332031 40.699219 209.386719 C 40.699219 210.539062 40.246094 211.839844 39.867188 212.726562 C 39.425781 213.757812 39.445312 214.933594 39.917969 216.035156 C 40.171875 216.621094 40.300781 217.199219 40.300781 217.753906 C 40.304688 218.449219 39.410156 219.820312 38.382812 221.117188 Z M 41.910156 211.695312 C 42.121094 210.960938 42.277344 210.160156 42.277344 209.386719 C 42.277344 207.726562 41.414062 206.765625 40.71875 205.996094 C 40.277344 205.503906 39.894531 205.078125 39.75 204.539062 C 39.519531 203.683594 39.816406 202.738281 40.070312 202.148438 C 41.390625 202.632812 42.851562 203.042969 44.449219 203.335938 C 43.910156 204.492188 43.191406 206.445312 43.476562 208.226562 C 43.691406 209.5625 44.261719 210.320312 44.761719 210.992188 C 45.265625 211.660156 45.628906 212.144531 45.640625 213.167969 C 45.640625 213.25 45.628906 213.316406 45.628906 213.390625 C 44.394531 212.984375 43.152344 212.417969 41.910156 211.695312 Z M 50.316406 225.558594 C 48.347656 223.800781 45.714844 221.046875 45.714844 219.222656 C 45.714844 217.660156 46.089844 216.878906 46.480469 216.054688 C 46.6875 215.621094 46.898438 215.175781 47.039062 214.640625 C 47.042969 214.636719 47.042969 214.636719 47.046875 214.632812 C 47.046875 214.628906 47.046875 214.625 47.046875 214.621094 C 47.15625 214.199219 47.230469 213.722656 47.222656 213.148438 C 47.203125 211.609375 46.578125 210.777344 46.03125 210.042969 C 45.582031 209.445312 45.191406 208.925781 45.039062 207.972656 C 44.78125 206.378906 45.644531 204.445312 46.085938 203.589844 C 47.308594 203.742188 48.605469 203.828125 49.980469 203.828125 C 50.945312 203.828125 51.871094 203.78125 52.761719 203.703125 C 52.171875 204.757812 51.527344 206.195312 51.582031 207.363281 C 51.621094 208.210938 51.933594 208.890625 52.261719 209.613281 C 52.710938 210.597656 53.21875 211.710938 53.125 213.628906 C 53.070312 214.765625 52.59375 215.992188 52.042969 217.414062 C 51.199219 219.582031 50.183594 222.195312 50.316406 225.558594 Z M 54.710938 213.21875 C 54.714844 211.214844 54.160156 209.96875 53.699219 208.957031 C 53.410156 208.328125 53.1875 207.832031 53.160156 207.289062 C 53.113281 206.285156 54.050781 204.523438 54.761719 203.464844 C 56.613281 203.175781 58.28125 202.730469 59.777344 202.1875 C 60.019531 202.769531 60.300781 203.691406 60.074219 204.535156 C 59.925781 205.078125 59.546875 205.503906 59.101562 205.996094 C 58.410156 206.765625 57.542969 207.726562 57.542969 209.386719 C 57.542969 210.160156 57.699219 210.960938 57.914062 211.695312 C 56.847656 212.316406 55.773438 212.832031 54.710938 213.21875 Z M 65.074219 213.269531 C 64.957031 214.222656 64.269531 214.800781 63.476562 215.472656 C 62.796875 216.050781 62.09375 216.648438 61.75 217.53125 C 61.398438 218.429688 61.371094 219.863281 61.441406 221.117188 C 60.414062 219.820312 59.519531 218.449219 59.519531 217.753906 C 59.519531 217.199219 59.648438 216.621094 59.902344 216.035156 C 60.378906 214.933594 60.398438 213.757812 59.953125 212.726562 C 59.574219 211.839844 59.125 210.539062 59.125 209.386719 C 59.125 208.332031 59.65625 207.738281 60.277344 207.050781 C 60.78125 206.488281 61.355469 205.851562 61.597656 204.945312 C 61.9375 203.679688 61.578125 202.40625 61.242188 201.605469 C 63.917969 200.4375 65.953125 198.988281 67.414062 197.691406 C 67.347656 198.78125 67.4375 199.820312 67.519531 200.734375 C 67.597656 201.558594 67.667969 202.335938 67.601562 202.949219 C 67.515625 203.726562 66.945312 204.324219 66.285156 205.019531 C 65.574219 205.761719 64.769531 206.609375 64.429688 207.84375 C 64.046875 209.238281 64.402344 210.234375 64.710938 211.117188 C 64.964844 211.820312 65.179688 212.429688 65.074219 213.269531 Z M 97.988281 230.109375 C 97.921875 230.238281 97.714844 230.535156 97.277344 230.535156 L 82.421875 230.535156 C 81.175781 230.535156 80.050781 229.894531 79.414062 228.824219 C 78.78125 227.757812 78.757812 226.472656 79.347656 225.386719 C 80.25 223.730469 80.804688 222.121094 81.035156 220.503906 C 81.652344 221.058594 82.132812 221.453125 82.277344 221.570312 C 82.421875 221.6875 82.597656 221.746094 82.773438 221.746094 C 83.003906 221.746094 83.230469 221.644531 83.386719 221.453125 C 83.664062 221.113281 83.609375 220.617188 83.273438 220.339844 C 82.746094 219.917969 81.832031 219.125 80.929688 218.234375 C 80.925781 218.230469 80.925781 218.226562 80.917969 218.222656 C 79.785156 217.101562 78.679688 215.832031 78.40625 214.953125 C 77.953125 213.488281 78.230469 212.074219 78.375 211.511719 C 78.894531 211.210938 79.359375 210.902344 79.777344 210.621094 C 80.730469 209.980469 81.480469 209.472656 82.3125 209.472656 C 84.441406 209.472656 85.449219 211.539062 85.492188 211.625 C 85.671875 212.019531 86.140625 212.191406 86.539062 212.007812 C 86.933594 211.820312 87.105469 211.351562 86.921875 210.957031 C 86.863281 210.832031 85.460938 207.894531 82.3125 207.894531 C 81 207.894531 79.976562 208.582031 78.894531 209.3125 C 77.34375 210.351562 75.589844 211.53125 72.222656 211.53125 C 70.273438 211.53125 68.273438 211.28125 66.277344 210.800781 C 66.25 210.730469 66.226562 210.65625 66.203125 210.589844 C 65.925781 209.800781 65.703125 209.179688 65.957031 208.261719 C 66.191406 207.410156 66.792969 206.777344 67.429688 206.105469 C 68.214844 205.28125 69.027344 204.429688 69.171875 203.125 C 69.257812 202.351562 69.179688 201.496094 69.09375 200.589844 C 68.984375 199.398438 68.863281 198.085938 69.113281 196.78125 C 69.246094 196.953125 69.390625 197.117188 69.566406 197.261719 C 70.164062 197.75 70.949219 197.972656 71.707031 197.863281 C 72.464844 197.757812 73.148438 197.335938 73.585938 196.710938 C 73.945312 196.191406 74.300781 195.902344 74.5625 195.945312 C 75.046875 196.015625 76.28125 198.058594 76.765625 201.042969 C 76.9375 202.097656 77.585938 202.980469 78.550781 203.460938 C 79.035156 203.703125 79.566406 203.824219 80.097656 203.824219 C 80.625 203.824219 81.152344 203.703125 81.636719 203.460938 C 81.640625 203.460938 81.640625 203.460938 81.644531 203.457031 C 81.664062 203.449219 81.679688 203.445312 81.699219 203.433594 C 81.851562 203.351562 82.003906 203.269531 82.152344 203.179688 C 84.242188 201.941406 85.378906 199.414062 84.980469 196.894531 C 84.714844 195.230469 84.558594 193.828125 84.515625 192.738281 C 87.484375 194.835938 95 200.519531 95.742188 204.792969 C 96.679688 210.191406 92.050781 220.804688 91.125 222.121094 C 90.519531 222.984375 88.945312 223.632812 88.390625 223.808594 C 87.972656 223.941406 87.742188 224.382812 87.875 224.796875 C 87.980469 225.136719 88.292969 225.351562 88.628906 225.351562 C 88.707031 225.351562 88.785156 225.339844 88.863281 225.316406 C 89.050781 225.257812 90.3125 224.839844 91.378906 224.054688 C 92.074219 225.730469 93.554688 226.945312 95.832031 227.660156 C 96.6875 227.929688 97.4375 228.503906 97.953125 229.28125 C 98.191406 229.644531 98.058594 229.980469 97.988281 230.109375 Z M 97.988281 230.109375 " fill-opacity="1" fill-rule="nonzero"/></g><path fill="#7c3a49" d="M 89.367188 208.648438 C 90.296875 208.980469 90.9375 209.671875 91.324219 210.769531 C 91.441406 211.089844 91.746094 211.292969 92.070312 211.292969 C 92.15625 211.292969 92.246094 211.28125 92.332031 211.25 C 92.746094 211.105469 92.960938 210.652344 92.8125 210.242188 C 92.265625 208.691406 91.285156 207.65625 89.898438 207.164062 C 89.484375 207.015625 89.035156 207.230469 88.890625 207.640625 C 88.742188 208.050781 88.957031 208.503906 89.367188 208.648438 Z M 89.367188 208.648438 " fill-opacity="1" fill-rule="nonzero"/><g fill="#7c3a49" fill-opacity="1"><g transform="translate(87.256456, 199.076778)"><g><path d="M 6.039062 0 L 24.972656 0 C 31.148438 0 35.644531 -4.496094 35.644531 -10.671875 L 35.644531 -11.488281 C 35.644531 -17.664062 31.148438 -22.15625 24.972656 -22.15625 L 15.890625 -22.15625 C 14.257812 -22.15625 12.941406 -23.472656 12.941406 -25.109375 C 12.941406 -26.789062 14.257812 -28.105469 15.890625 -28.105469 L 32.601562 -28.105469 C 34.328125 -28.105469 35.644531 -29.421875 35.644531 -31.148438 L 35.644531 -33.28125 C 35.644531 -35.007812 34.328125 -36.324219 32.601562 -36.324219 L 13.667969 -36.324219 C 7.492188 -36.324219 2.996094 -31.828125 2.996094 -25.652344 L 2.996094 -24.882812 C 2.996094 -18.707031 7.492188 -14.210938 13.667969 -14.210938 L 22.703125 -14.210938 C 24.382812 -14.210938 25.699219 -12.851562 25.699219 -11.214844 C 25.699219 -9.535156 24.382812 -8.21875 22.703125 -8.21875 L 6.039062 -8.21875 C 4.3125 -8.21875 2.996094 -6.902344 2.996094 -5.175781 L 2.996094 -3.042969 C 2.996094 -1.316406 4.3125 0 6.039062 0 Z M 6.039062 0 "/></g></g></g><g fill="#7c3a49" fill-opacity="1"><g transform="translate(125.890448, 199.076778)"><g><path d="M 14.121094 0 L 17.707031 0 C 24.15625 0 28.832031 -4.675781 28.832031 -11.125 L 28.832031 -33.28125 C 28.832031 -35.007812 27.515625 -36.324219 25.789062 -36.324219 L 21.929688 -36.324219 C 20.207031 -36.324219 18.886719 -35.007812 18.886719 -33.28125 L 18.886719 -11.214844 C 18.886719 -9.535156 17.570312 -8.21875 15.890625 -8.21875 C 14.257812 -8.21875 12.941406 -9.535156 12.941406 -11.214844 L 12.941406 -33.28125 C 12.941406 -35.007812 11.625 -36.324219 9.898438 -36.324219 L 6.039062 -36.324219 C 4.3125 -36.324219 2.996094 -35.007812 2.996094 -33.28125 L 2.996094 -11.125 C 2.996094 -4.675781 7.671875 0 14.121094 0 Z M 14.121094 0 "/></g></g></g><g fill="#7c3a49" fill-opacity="1"><g transform="translate(157.714691, 199.076778)"><g><path d="M 6.039062 0 L 9.898438 0 C 11.625 0 12.941406 -1.316406 12.941406 -3.042969 L 12.941406 -25.109375 C 12.941406 -26.789062 14.257812 -28.105469 15.890625 -28.105469 C 17.570312 -28.105469 18.886719 -26.789062 18.886719 -25.109375 L 18.886719 -3.132812 C 18.886719 -1.363281 20.160156 0 21.929688 0 L 25.789062 0 C 27.5625 0 28.832031 -1.40625 28.832031 -3.132812 L 28.832031 -25.109375 C 28.832031 -26.789062 30.148438 -28.105469 31.785156 -28.105469 C 33.464844 -28.105469 34.78125 -26.789062 34.78125 -25.109375 L 34.78125 -3.042969 C 34.78125 -1.316406 36.097656 0 37.824219 0 L 41.683594 0 C 43.40625 0 44.722656 -1.316406 44.722656 -3.042969 L 44.722656 -33.28125 C 44.722656 -35.007812 43.40625 -36.324219 41.683594 -36.324219 L 29.875 -36.324219 C 28.152344 -36.324219 26.835938 -35.007812 26.835938 -33.28125 L 26.835938 -32.511719 C 26.835938 -30.875 25.519531 -29.558594 23.835938 -29.558594 C 22.203125 -29.558594 20.886719 -30.875 20.886719 -32.511719 L 20.886719 -33.28125 C 20.886719 -35.007812 19.570312 -36.324219 17.84375 -36.324219 L 6.039062 -36.324219 C 4.3125 -36.324219 2.996094 -35.007812 2.996094 -33.28125 L 2.996094 -3.042969 C 2.996094 -1.316406 4.3125 0 6.039062 0 Z M 6.039062 0 "/></g></g></g><g fill="#7c3a49" fill-opacity="1"><g transform="translate(205.428357, 199.076778)"><g><path d="M 14.121094 0 L 17.707031 0 C 24.15625 0 28.832031 -4.675781 28.832031 -11.125 L 28.832031 -25.199219 C 28.832031 -31.648438 24.15625 -36.324219 17.707031 -36.324219 L 14.121094 -36.324219 C 7.671875 -36.324219 2.996094 -31.648438 2.996094 -25.199219 L 2.996094 -11.125 C 2.996094 -4.675781 7.671875 0 14.121094 0 Z M 15.890625 -8.21875 C 14.257812 -8.21875 12.941406 -9.535156 12.941406 -11.214844 L 12.941406 -25.109375 C 12.941406 -26.789062 14.257812 -28.105469 15.890625 -28.105469 C 17.570312 -28.105469 18.886719 -26.789062 18.886719 -25.109375 L 18.886719 -11.214844 C 18.886719 -9.535156 17.570312 -8.21875 15.890625 -8.21875 Z M 15.890625 -8.21875 "/></g></g></g><g fill="#7c3a49" fill-opacity="1"><g transform="translate(237.2526, 199.076778)"><g><path d="M 6.039062 0 L 9.898438 0 C 11.625 0 12.941406 -1.316406 12.941406 -3.042969 L 12.941406 -11.261719 C 12.941406 -12.894531 14.257812 -14.210938 15.890625 -14.210938 L 22.703125 -14.210938 C 24.382812 -14.210938 25.699219 -12.894531 25.699219 -11.261719 L 25.699219 -3.042969 C 25.699219 -1.316406 27.015625 0 28.742188 0 L 32.601562 0 C 34.328125 0 35.644531 -1.316406 35.644531 -3.042969 L 35.644531 -12.394531 C 35.644531 -14.03125 34.460938 -15.164062 32.828125 -15.164062 L 32.417969 -15.164062 C 30.785156 -15.164062 29.46875 -16.480469 29.46875 -18.160156 C 29.46875 -19.84375 30.785156 -21.160156 32.417969 -21.160156 L 32.511719 -21.160156 C 34.328125 -21.160156 35.644531 -22.476562 35.644531 -24.292969 L 35.644531 -27.0625 C 35.644531 -32.417969 31.738281 -36.324219 26.378906 -36.324219 L 6.039062 -36.324219 C 4.3125 -36.324219 2.996094 -35.007812 2.996094 -33.28125 L 2.996094 -3.042969 C 2.996094 -1.316406 4.3125 0 6.039062 0 Z M 15.890625 -22.15625 C 14.257812 -22.15625 12.941406 -23.472656 12.941406 -25.109375 C 12.941406 -26.789062 14.257812 -28.105469 15.890625 -28.105469 L 22.703125 -28.105469 C 24.382812 -28.105469 25.699219 -26.789062 25.699219 -25.109375 C 25.699219 -23.472656 24.382812 -22.15625 22.703125 -22.15625 Z M 15.890625 -22.15625 "/></g></g></g><g fill="#7c3a49" fill-opacity="1"><g transform="translate(275.886592, 199.076778)"><g><path d="M 6.039062 0 L 9.898438 0 C 11.625 0 12.941406 -1.316406 12.941406 -3.042969 L 12.941406 -33.28125 C 12.941406 -35.007812 11.625 -36.324219 9.898438 -36.324219 L 6.039062 -36.324219 C 4.3125 -36.324219 2.996094 -35.007812 2.996094 -33.28125 L 2.996094 -3.042969 C 2.996094 -1.316406 4.3125 0 6.039062 0 Z M 6.039062 0 "/></g></g></g><g fill="#7c3a49" fill-opacity="1"><g transform="translate(291.821413, 199.076778)"><g><path d="M 6.085938 0 L 32.601562 0 C 34.328125 0 35.644531 -1.316406 35.644531 -3.042969 L 35.644531 -5.175781 C 35.644531 -6.902344 34.328125 -8.21875 32.601562 -8.21875 L 15.9375 -8.21875 C 14.257812 -8.21875 12.941406 -9.535156 12.941406 -11.214844 C 12.941406 -12.851562 14.257812 -13.984375 15.9375 -14.210938 L 33.054688 -16.574219 C 34.554688 -16.800781 35.644531 -17.980469 35.644531 -19.523438 L 35.644531 -33.238281 C 35.644531 -35.007812 34.328125 -36.324219 32.554688 -36.324219 L 6.085938 -36.324219 C 4.3125 -36.324219 2.996094 -35.007812 2.996094 -33.28125 L 2.996094 -31.148438 C 2.996094 -29.421875 4.3125 -28.105469 6.085938 -28.105469 L 22.746094 -28.105469 C 24.382812 -28.105469 25.699219 -26.789062 25.699219 -25.109375 C 25.699219 -23.472656 24.382812 -22.382812 22.746094 -22.15625 L 5.585938 -19.796875 C 4.085938 -19.570312 2.996094 -18.390625 2.996094 -16.84375 L 2.996094 -3.042969 C 2.996094 -1.316406 4.3125 0 6.085938 0 Z M 6.085938 0 "/></g></g></g><g fill="#7c3a49" fill-opacity="1"><g transform="translate(330.455405, 199.076778)"><g><path d="M 6.039062 0 L 32.644531 0 C 34.371094 0 35.6875 -1.316406 35.6875 -3.042969 L 35.6875 -5.175781 C 35.6875 -6.902344 34.371094 -8.21875 32.644531 -8.21875 L 15.890625 -8.21875 C 14.257812 -8.21875 12.941406 -9.535156 12.941406 -11.214844 C 12.941406 -12.851562 14.257812 -14.210938 15.890625 -14.210938 L 30.828125 -14.210938 C 32.511719 -14.210938 33.871094 -15.527344 33.871094 -17.300781 L 33.871094 -19.117188 C 33.871094 -20.839844 32.554688 -22.15625 30.828125 -22.15625 L 15.890625 -22.15625 C 14.257812 -22.15625 12.941406 -23.472656 12.941406 -25.109375 C 12.941406 -26.789062 14.257812 -28.105469 15.890625 -28.105469 L 32.644531 -28.105469 C 34.371094 -28.105469 35.6875 -29.421875 35.6875 -31.148438 L 35.6875 -33.28125 C 35.6875 -35.007812 34.371094 -36.324219 32.644531 -36.324219 L 6.039062 -36.324219 C 4.3125 -36.324219 2.996094 -35.007812 2.996094 -33.28125 L 2.996094 -3.042969 C 2.996094 -1.316406 4.3125 0 6.039062 0 Z M 6.039062 0 "/></g></g></g><path stroke-linecap="butt" transform="matrix(0.75, 0, 0, 0.75, 77.386531, 148.320137)" fill="none" stroke-linejoin="miter" d="M 18.541919 65.000239 L 43.786712 65.000239 C 52.015879 65.000239 58.005463 59.000238 58.005463 50.765863 L 58.005463 49.687738 C 58.005463 41.453362 52.015879 35.453362 43.786712 35.453362 L 31.677336 35.453362 C 29.489836 35.453362 27.734628 33.692945 27.734628 31.52107 C 27.734628 29.276278 29.489836 27.531486 31.677336 27.531486 L 53.953379 27.531486 C 56.260671 27.531486 58.005463 25.771069 58.005463 23.468986 L 58.005463 20.630444 C 58.005463 18.323152 56.260671 16.562736 53.953379 16.562736 L 28.708586 16.562736 C 20.474211 16.562736 14.47421 22.567944 14.47421 30.797111 L 14.47421 31.817945 C 14.47421 40.05232 20.474211 46.052321 28.708586 46.052321 L 40.755462 46.052321 C 43.000254 46.052321 44.745045 47.870029 44.745045 50.041904 C 44.745045 52.286696 43.000254 54.047113 40.755462 54.047113 L 18.541919 54.047113 C 16.234627 54.047113 14.47421 55.791905 14.47421 58.099197 L 14.47421 60.948155 C 14.47421 63.239822 16.234627 65.000239 18.541919 65.000239 Z M 80.828381 65.000239 L 85.599215 65.000239 C 94.203382 65.000239 100.437757 58.760655 100.437757 50.161696 L 100.437757 20.630444 C 100.437757 18.323152 98.682549 16.562736 96.390882 16.562736 L 91.229423 16.562736 C 88.942965 16.562736 87.182548 18.323152 87.182548 20.630444 L 87.182548 50.041904 C 87.182548 52.286696 85.422131 54.047113 83.192965 54.047113 C 81.005464 54.047113 79.245048 52.286696 79.245048 50.041904 L 79.245048 20.630444 C 79.245048 18.323152 77.500256 16.562736 75.192964 16.562736 L 70.052339 16.562736 C 67.745047 16.562736 65.98463 18.323152 65.98463 20.630444 L 65.98463 50.161696 C 65.98463 58.760655 72.224214 65.000239 80.828381 65.000239 Z M 112.484633 65.000239 L 117.625259 65.000239 C 119.93255 65.000239 121.677342 63.239822 121.677342 60.948155 L 121.677342 31.52107 C 121.677342 29.276278 123.437759 27.531486 125.625259 27.531486 C 127.854426 27.531486 129.614843 29.276278 129.614843 31.52107 L 129.614843 60.817947 C 129.614843 63.18253 131.312759 65.000239 133.661718 65.000239 L 138.823177 65.000239 C 141.172135 65.000239 142.870052 63.125239 142.870052 60.817947 L 142.870052 31.52107 C 142.870052 29.276278 144.630469 27.531486 146.802344 27.531486 C 149.052344 27.531486 150.807552 29.276278 150.807552 31.52107 L 150.807552 60.948155 C 150.807552 63.239822 152.552344 65.000239 154.859636 65.000239 L 160.000261 65.000239 C 162.307553 65.000239 164.06797 63.239822 164.06797 60.948155 L 164.06797 20.630444 C 164.06797 18.323152 162.307553 16.562736 160.000261 16.562736 L 144.260677 16.562736 C 141.96901 16.562736 140.213802 18.323152 140.213802 20.630444 L 140.213802 21.651278 C 140.213802 23.838778 138.453385 25.593986 136.208593 25.593986 C 134.03151 25.593986 132.276301 23.838778 132.276301 21.651278 L 132.276301 20.630444 C 132.276301 18.323152 130.515884 16.562736 128.224218 16.562736 L 112.484633 16.562736 C 110.177341 16.562736 108.416925 18.323152 108.416925 20.630444 L 108.416925 60.948155 C 108.416925 63.239822 110.177341 65.000239 112.484633 65.000239 Z M 186.875263 65.000239 L 191.651305 65.000239 C 200.255472 65.000239 206.489848 58.760655 206.489848 50.161696 L 206.489848 31.406487 C 206.489848 22.802319 200.255472 16.562736 191.651305 16.562736 L 186.875263 16.562736 C 178.276304 16.562736 172.03672 22.802319 172.03672 31.406487 L 172.03672 50.161696 C 172.03672 58.760655 178.276304 65.000239 186.875263 65.000239 Z M 189.239847 54.047113 C 187.052346 54.047113 185.297138 52.286696 185.297138 50.041904 L 185.297138 31.52107 C 185.297138 29.276278 187.052346 27.531486 189.239847 27.531486 C 191.474222 27.531486 193.234639 29.276278 193.234639 31.52107 L 193.234639 50.041904 C 193.234639 52.286696 191.474222 54.047113 189.239847 54.047113 Z M 218.536724 65.000239 L 223.677349 65.000239 C 225.984641 65.000239 227.729432 63.239822 227.729432 60.948155 L 227.729432 49.984613 C 227.729432 47.812738 229.484641 46.052321 231.672141 46.052321 L 240.750267 46.052321 C 242.995058 46.052321 244.73985 47.812738 244.73985 49.984613 L 244.73985 60.948155 C 244.73985 63.239822 246.500267 65.000239 248.802351 65.000239 L 253.948184 65.000239 C 256.255476 65.000239 258.000268 63.239822 258.000268 60.948155 L 258.000268 48.474196 C 258.000268 46.286696 256.432559 44.781487 254.245059 44.781487 L 253.713809 44.781487 C 251.526309 44.781487 249.765892 43.021071 249.765892 40.791904 C 249.765892 38.541904 251.526309 36.786695 253.713809 36.786695 L 253.828393 36.786695 C 256.255476 36.786695 258.000268 35.026278 258.000268 32.61482 L 258.000268 28.922111 C 258.000268 21.765861 252.797142 16.562736 245.656517 16.562736 L 218.536724 16.562736 C 216.229432 16.562736 214.469015 18.323152 214.469015 20.630444 L 214.469015 60.948155 C 214.469015 63.239822 216.229432 65.000239 218.536724 65.000239 Z M 231.672141 35.453362 C 229.484641 35.453362 227.729432 33.692945 227.729432 31.52107 C 227.729432 29.276278 229.484641 27.531486 231.672141 27.531486 L 240.750267 27.531486 C 242.995058 27.531486 244.73985 29.276278 244.73985 31.52107 C 244.73985 33.692945 242.995058 35.453362 240.750267 35.453362 Z M 270.047144 65.000239 L 275.187769 65.000239 C 277.495061 65.000239 279.239853 63.239822 279.239853 60.948155 L 279.239853 20.630444 C 279.239853 18.323152 277.495061 16.562736 275.187769 16.562736 L 270.047144 16.562736 C 267.739852 16.562736 265.979435 18.323152 265.979435 20.630444 L 265.979435 60.948155 C 265.979435 63.239822 267.739852 65.000239 270.047144 65.000239 Z M 291.354437 65.000239 L 326.708606 65.000239 C 329.010689 65.000239 330.755481 63.239822 330.755481 60.948155 L 330.755481 58.099197 C 330.755481 55.791905 329.010689 54.047113 326.708606 54.047113 L 304.489854 54.047113 C 302.245062 54.047113 300.484646 52.286696 300.484646 50.041904 C 300.484646 47.870029 302.245062 46.349196 304.489854 46.052321 L 327.312772 42.901279 C 329.307564 42.593987 330.755481 41.026279 330.755481 38.974195 L 330.755481 20.687736 C 330.755481 18.323152 329.010689 16.562736 326.646106 16.562736 L 291.354437 16.562736 C 288.984645 16.562736 287.229436 18.323152 287.229436 20.630444 L 287.229436 23.468986 C 287.229436 25.771069 288.984645 27.531486 291.354437 27.531486 L 313.56798 27.531486 C 315.75548 27.531486 317.500272 29.276278 317.500272 31.52107 C 317.500272 33.692945 315.75548 35.156487 313.56798 35.453362 L 290.68777 38.604404 C 288.692978 38.911695 287.229436 40.479404 287.229436 42.531487 L 287.229436 60.948155 C 287.229436 63.239822 288.984645 65.000239 291.354437 65.000239 Z M 342.802357 65.000239 L 378.276317 65.000239 C 380.583609 65.000239 382.328401 63.239822 382.328401 60.948155 L 382.328401 58.099197 C 382.328401 55.791905 380.583609 54.047113 378.276317 54.047113 L 355.942983 54.047113 C 353.755482 54.047113 352.000274 52.286696 352.000274 50.041904 C 352.000274 47.870029 353.755482 46.052321 355.942983 46.052321 L 375.854442 46.052321 C 378.099234 46.052321 379.916942 44.291904 379.916942 41.927321 L 379.916942 39.52107 C 379.916942 37.213779 378.161734 35.453362 375.854442 35.453362 L 355.942983 35.453362 C 353.755482 35.453362 352.000274 33.692945 352.000274 31.52107 C 352.000274 29.276278 353.755482 27.531486 355.942983 27.531486 L 378.276317 27.531486 C 380.583609 27.531486 382.328401 25.771069 382.328401 23.468986 L 382.328401 20.630444 C 382.328401 18.323152 380.583609 16.562736 378.276317 16.562736 L 342.802357 16.562736 C 340.500273 16.562736 338.739856 18.323152 338.739856 20.630444 L 338.739856 60.948155 C 338.739856 63.239822 340.500273 65.000239 342.802357 65.000239 Z M 342.802357 65.000239 " stroke="#7c3a49" stroke-width="4.162139" stroke-opacity="1" stroke-miterlimit="4"/></svg>