<svg xmlns="http://www.w3.org/2000/svg" xmlns:xlink="http://www.w3.org/1999/xlink" width="500" zoomAndPan="magnify" viewBox="0 0 375 225" height="300" preserveAspectRatio="xMidYMid meet" version="1.0"><defs><g/><clipPath id="26a7ac207b"><path d="M 18 133.257812 L 88 133.257812 L 88 134 L 18 134 Z M 18 133.257812 " clip-rule="nonzero"/></clipPath><clipPath id="272ec137c0"><path d="M 0 136 L 106.414062 136 L 106.414062 159.585938 L 0 159.585938 Z M 0 136 " clip-rule="nonzero"/></clipPath><clipPath id="42d853e079"><path d="M 20.328125 65.511719 L 52 65.511719 L 52 131.347656 L 20.328125 131.347656 Z M 20.328125 65.511719 " clip-rule="nonzero"/></clipPath><clipPath id="21b6a0f19d"><path d="M 54 65.511719 L 85.945312 65.511719 L 85.945312 131.347656 L 54 131.347656 Z M 54 65.511719 " clip-rule="nonzero"/></clipPath></defs><g clip-path="url(#26a7ac207b)"><path fill="#004aad" d="M 85.433594 110.847656 C 87 106.660156 87.769531 102.332031 87.738281 97.859375 C 87.746094 95.105469 87.449219 92.382812 86.847656 89.695312 C 87.292969 88.492188 87.511719 87.246094 87.511719 85.964844 C 87.515625 84.855469 87.351562 83.773438 87.023438 82.714844 C 86.695312 81.65625 86.21875 80.671875 85.589844 79.761719 C 84.957031 78.851562 84.207031 78.054688 83.332031 77.371094 C 82.460938 76.691406 81.503906 76.15625 80.46875 75.769531 C 80.535156 75.277344 80.570312 74.785156 80.574219 74.289062 C 80.574219 69.105469 76.792969 64.890625 72.152344 64.890625 C 71.019531 64.890625 69.941406 65.132812 68.917969 65.621094 L 68.90625 65.621094 C 66.675781 64.40625 64.339844 63.460938 61.890625 62.78125 C 61.050781 62.550781 60.195312 62.460938 59.328125 62.519531 C 58.457031 62.574219 57.621094 62.773438 56.816406 63.109375 C 56.015625 63.449219 55.289062 63.910156 54.640625 64.492188 C 53.992188 65.078125 53.457031 65.75 53.035156 66.511719 C 52.613281 65.75 52.082031 65.078125 51.433594 64.492188 C 50.785156 63.910156 50.058594 63.449219 49.253906 63.109375 C 48.453125 62.773438 47.617188 62.574219 46.746094 62.519531 C 45.875 62.460938 45.019531 62.550781 44.179688 62.78125 C 41.738281 63.460938 39.402344 64.402344 37.175781 65.609375 C 36.144531 65.128906 35.058594 64.890625 33.917969 64.890625 C 29.277344 64.890625 25.5 69.105469 25.5 74.289062 C 25.5 74.789062 25.539062 75.285156 25.613281 75.777344 C 24.574219 76.164062 23.621094 76.695312 22.746094 77.375 C 21.871094 78.054688 21.117188 78.851562 20.488281 79.761719 C 19.855469 80.671875 19.375 81.65625 19.046875 82.714844 C 18.71875 83.773438 18.558594 84.855469 18.5625 85.964844 C 18.558594 87.261719 18.78125 88.519531 19.234375 89.734375 C 18.683594 92.414062 18.382812 95.121094 18.335938 97.859375 C 18.328125 102.328125 19.097656 106.65625 20.640625 110.847656 C 20.28125 112.582031 20.375 114.289062 20.925781 115.972656 C 21.171875 116.792969 21.519531 117.566406 21.976562 118.289062 C 22.433594 119.015625 22.976562 119.664062 23.613281 120.242188 C 24.246094 120.816406 24.945312 121.296875 25.710938 121.679688 C 26.476562 122.066406 27.28125 122.339844 28.121094 122.503906 C 27.796875 126.46875 31.554688 130.515625 35.78125 130.515625 C 36.378906 130.519531 36.964844 130.449219 37.546875 130.308594 C 39.65625 131.441406 41.867188 132.316406 44.179688 132.9375 C 44.863281 133.125 45.558594 133.21875 46.269531 133.222656 C 46.960938 133.222656 47.640625 133.128906 48.308594 132.945312 C 48.976562 132.761719 49.605469 132.492188 50.203125 132.140625 C 50.796875 131.789062 51.335938 131.363281 51.816406 130.863281 C 52.296875 130.367188 52.703125 129.8125 53.035156 129.207031 C 53.367188 129.8125 53.777344 130.367188 54.257812 130.863281 C 54.738281 131.363281 55.277344 131.789062 55.871094 132.140625 C 56.464844 132.492188 57.097656 132.761719 57.765625 132.945312 C 58.433594 133.128906 59.113281 133.222656 59.804688 133.222656 C 60.511719 133.226562 61.210938 133.128906 61.890625 132.9375 C 64.199219 132.300781 66.414062 131.425781 68.535156 130.316406 C 69.113281 130.449219 69.699219 130.515625 70.292969 130.515625 C 70.816406 130.535156 71.335938 130.496094 71.851562 130.40625 C 72.363281 130.3125 72.863281 130.167969 73.347656 129.972656 C 73.832031 129.773438 74.292969 129.527344 74.726562 129.234375 C 75.15625 128.941406 75.554688 128.605469 75.917969 128.226562 C 76.277344 127.847656 76.597656 127.4375 76.871094 126.988281 C 77.144531 126.542969 77.371094 126.074219 77.546875 125.582031 C 77.722656 125.089844 77.84375 124.582031 77.910156 124.066406 C 77.980469 123.546875 77.992188 123.027344 77.953125 122.503906 C 78.792969 122.34375 79.597656 122.070312 80.367188 121.6875 C 81.132812 121.304688 81.832031 120.824219 82.46875 120.25 C 83.101562 119.671875 83.648438 119.023438 84.101562 118.296875 C 84.558594 117.570312 84.90625 116.796875 85.148438 115.972656 C 85.695312 114.292969 85.792969 112.585938 85.433594 110.855469 Z M 52.085938 82.289062 C 51.953125 82.589844 51.800781 82.878906 51.628906 83.15625 C 51.457031 83.433594 51.265625 83.703125 51.058594 83.957031 C 50.855469 84.207031 50.632812 84.449219 50.394531 84.671875 C 50.15625 84.898438 49.902344 85.105469 49.636719 85.296875 C 49.371094 85.488281 49.09375 85.664062 48.808594 85.816406 C 48.519531 85.972656 48.222656 86.109375 47.917969 86.226562 C 47.609375 86.339844 47.296875 86.4375 46.980469 86.511719 C 46.660156 86.589844 46.339844 86.644531 46.011719 86.675781 C 45.6875 86.710938 45.363281 86.722656 45.035156 86.710938 C 44.707031 86.703125 44.382812 86.671875 44.058594 86.621094 C 43.734375 86.566406 43.417969 86.496094 43.105469 86.402344 C 42.789062 86.308594 42.484375 86.191406 42.183594 86.058594 C 41.886719 85.925781 41.597656 85.773438 41.320312 85.601562 C 41.039062 85.429688 40.773438 85.238281 40.519531 85.03125 C 40.265625 84.824219 40.027344 84.601562 39.804688 84.367188 C 39.578125 84.128906 39.371094 83.875 39.179688 83.609375 C 39.023438 83.398438 38.816406 83.269531 38.558594 83.226562 C 38.300781 83.183594 38.0625 83.238281 37.847656 83.390625 C 37.636719 83.546875 37.511719 83.753906 37.46875 84.011719 C 37.429688 84.273438 37.484375 84.507812 37.640625 84.722656 C 38.660156 86.144531 39.980469 87.195312 41.597656 87.871094 C 42.746094 88.359375 43.945312 88.605469 45.191406 88.613281 C 46.4375 88.621094 47.640625 88.390625 48.792969 87.921875 C 50.058594 87.410156 51.15625 86.65625 52.085938 85.660156 L 52.085938 125.503906 C 52.085938 125.953125 52.035156 126.398438 51.929688 126.835938 C 51.828125 127.273438 51.675781 127.691406 51.476562 128.09375 C 51.273438 128.496094 51.03125 128.871094 50.746094 129.21875 C 50.457031 129.566406 50.132812 129.875 49.777344 130.144531 C 49.417969 130.417969 49.035156 130.644531 48.621094 130.828125 C 48.210938 131.007812 47.785156 131.140625 47.34375 131.226562 C 46.902344 131.3125 46.457031 131.34375 46.007812 131.324219 C 45.558594 131.304688 45.117188 131.234375 44.683594 131.113281 C 43.03125 130.65625 41.425781 130.070312 39.871094 129.347656 C 41.074219 128.582031 41.992188 127.566406 42.632812 126.292969 C 42.75 126.058594 42.769531 125.816406 42.6875 125.570312 C 42.605469 125.320312 42.449219 125.136719 42.214844 125.019531 C 41.980469 124.902344 41.738281 124.882812 41.488281 124.964844 C 41.238281 125.046875 41.054688 125.203125 40.933594 125.4375 C 40.757812 125.792969 40.542969 126.125 40.296875 126.433594 C 40.050781 126.746094 39.773438 127.027344 39.46875 127.28125 C 39.164062 127.535156 38.835938 127.753906 38.484375 127.941406 C 38.136719 128.125 37.769531 128.273438 37.390625 128.386719 C 37.007812 128.496094 36.621094 128.566406 36.222656 128.597656 C 35.828125 128.625 35.433594 128.617188 35.039062 128.566406 C 34.648438 128.515625 34.261719 128.425781 33.890625 128.292969 C 33.515625 128.164062 33.15625 127.996094 32.816406 127.792969 C 32.476562 127.589844 32.160156 127.351562 31.867188 127.085938 C 31.578125 126.816406 31.316406 126.519531 31.085938 126.195312 C 30.855469 125.875 30.660156 125.53125 30.5 125.167969 C 30.339844 124.804688 30.21875 124.429688 30.136719 124.039062 C 30.054688 123.652344 30.011719 123.261719 30.011719 122.863281 C 30.011719 122.464844 30.050781 122.074219 30.128906 121.683594 C 30.207031 121.296875 30.328125 120.921875 30.484375 120.554688 C 30.640625 120.191406 30.835938 119.847656 31.0625 119.523438 C 31.214844 119.308594 31.265625 119.070312 31.222656 118.8125 C 31.179688 118.550781 31.050781 118.347656 30.835938 118.195312 C 30.621094 118.042969 30.386719 117.992188 30.128906 118.035156 C 29.871094 118.082031 29.667969 118.207031 29.515625 118.421875 C 29.03125 119.097656 28.675781 119.835938 28.441406 120.632812 C 27.773438 120.5 27.136719 120.277344 26.527344 119.96875 C 25.917969 119.65625 25.363281 119.273438 24.859375 118.808594 C 24.355469 118.347656 23.925781 117.828125 23.566406 117.246094 C 23.203125 116.667969 22.929688 116.050781 22.738281 115.394531 C 21.496094 111.53125 23.214844 107.503906 26.5625 106.421875 C 26.691406 106.390625 26.808594 106.335938 26.910156 106.253906 C 27.015625 106.175781 27.101562 106.078125 27.164062 105.964844 C 27.226562 105.847656 27.265625 105.726562 27.277344 105.59375 C 27.292969 105.464844 27.277344 105.335938 27.238281 105.210938 C 27.199219 105.085938 27.136719 104.972656 27.046875 104.875 C 26.960938 104.777344 26.859375 104.699219 26.738281 104.644531 C 26.621094 104.585938 26.496094 104.554688 26.363281 104.550781 C 26.234375 104.546875 26.105469 104.570312 25.984375 104.617188 C 25.082031 104.914062 24.265625 105.363281 23.527344 105.960938 C 22.792969 106.5625 22.1875 107.273438 21.714844 108.09375 C 20.722656 104.753906 20.230469 101.34375 20.234375 97.859375 C 20.230469 96.023438 20.375 94.195312 20.660156 92.382812 C 21.40625 93.414062 22.308594 94.28125 23.363281 94.992188 C 23.46875 95.066406 23.582031 95.117188 23.703125 95.144531 C 23.828125 95.171875 23.953125 95.171875 24.074219 95.148438 C 24.199219 95.125 24.3125 95.074219 24.417969 95.003906 C 24.523438 94.933594 24.609375 94.84375 24.675781 94.734375 C 24.820312 94.519531 24.871094 94.285156 24.824219 94.03125 C 24.773438 93.773438 24.644531 93.574219 24.429688 93.425781 C 23.753906 92.96875 23.148438 92.433594 22.621094 91.8125 C 22.089844 91.195312 21.652344 90.515625 21.308594 89.777344 C 20.960938 89.039062 20.722656 88.265625 20.585938 87.464844 C 20.449219 86.660156 20.425781 85.851562 20.507812 85.042969 C 20.589844 84.230469 20.78125 83.445312 21.078125 82.6875 C 21.375 81.925781 21.765625 81.222656 22.253906 80.570312 C 22.742188 79.914062 23.308594 79.339844 23.953125 78.839844 C 24.597656 78.34375 25.296875 77.9375 26.050781 77.628906 C 26.503906 78.976562 27.21875 80.160156 28.195312 81.1875 C 28.28125 81.285156 28.382812 81.359375 28.5 81.414062 C 28.617188 81.46875 28.738281 81.496094 28.867188 81.496094 C 28.996094 81.5 29.117188 81.472656 29.234375 81.425781 C 29.351562 81.375 29.457031 81.300781 29.542969 81.207031 C 29.734375 81.023438 29.832031 80.800781 29.835938 80.539062 C 29.839844 80.273438 29.746094 80.046875 29.5625 79.859375 C 28.859375 79.105469 28.316406 78.246094 27.945312 77.28125 C 27.570312 76.320312 27.386719 75.320312 27.398438 74.289062 C 27.398438 70.148438 30.324219 66.789062 33.917969 66.789062 C 34.5 66.800781 35.0625 66.894531 35.617188 67.0625 C 36.171875 67.230469 36.691406 67.472656 37.179688 67.78125 C 37.667969 68.09375 38.101562 68.464844 38.488281 68.894531 C 38.875 69.328125 39.195312 69.800781 39.453125 70.320312 C 39.578125 70.550781 39.769531 70.703125 40.019531 70.777344 C 40.273438 70.851562 40.515625 70.824219 40.746094 70.699219 C 40.855469 70.640625 40.953125 70.5625 41.03125 70.464844 C 41.109375 70.367188 41.167969 70.257812 41.203125 70.136719 C 41.238281 70.019531 41.25 69.894531 41.238281 69.769531 C 41.222656 69.644531 41.183594 69.527344 41.125 69.417969 C 40.589844 68.40625 39.886719 67.53125 39.015625 66.789062 C 40.835938 65.882812 42.726562 65.15625 44.683594 64.613281 C 45.566406 64.367188 46.457031 64.332031 47.359375 64.507812 C 48.257812 64.679688 49.070312 65.042969 49.800781 65.601562 C 50.523438 66.148438 51.085938 66.828125 51.488281 67.644531 C 51.890625 68.457031 52.089844 69.316406 52.085938 70.226562 Z M 84.351562 108.082031 C 83.878906 107.261719 83.273438 106.554688 82.539062 105.957031 C 81.804688 105.359375 80.988281 104.914062 80.089844 104.617188 C 79.964844 104.570312 79.839844 104.546875 79.707031 104.550781 C 79.578125 104.554688 79.453125 104.585938 79.332031 104.644531 C 79.214844 104.699219 79.113281 104.777344 79.023438 104.875 C 78.9375 104.972656 78.875 105.085938 78.835938 105.210938 C 78.792969 105.335938 78.78125 105.464844 78.792969 105.59375 C 78.808594 105.726562 78.84375 105.847656 78.910156 105.964844 C 78.972656 106.078125 79.058594 106.175781 79.160156 106.253906 C 79.265625 106.335938 79.382812 106.390625 79.507812 106.421875 C 82.859375 107.503906 84.578125 111.53125 83.335938 115.394531 C 83.148438 116.050781 82.875 116.671875 82.515625 117.253906 C 82.15625 117.835938 81.726562 118.355469 81.222656 118.820312 C 80.71875 119.28125 80.160156 119.667969 79.550781 119.976562 C 78.941406 120.285156 78.300781 120.503906 77.628906 120.632812 C 77.398438 119.835938 77.039062 119.097656 76.558594 118.421875 C 76.40625 118.207031 76.203125 118.082031 75.945312 118.035156 C 75.6875 117.992188 75.453125 118.042969 75.238281 118.195312 C 75.023438 118.347656 74.894531 118.550781 74.851562 118.8125 C 74.804688 119.070312 74.859375 119.308594 75.011719 119.523438 C 75.714844 120.519531 76.066406 121.625 76.0625 122.847656 C 76.0625 123.496094 75.957031 124.128906 75.746094 124.742188 C 75.53125 125.355469 75.222656 125.917969 74.820312 126.425781 C 74.417969 126.9375 73.945312 127.367188 73.394531 127.714844 C 72.847656 128.0625 72.257812 128.3125 71.625 128.464844 C 70.992188 128.613281 70.355469 128.65625 69.707031 128.589844 C 69.0625 128.523438 68.445312 128.351562 67.855469 128.078125 C 67.269531 127.804688 66.742188 127.441406 66.273438 126.988281 C 65.808594 126.535156 65.429688 126.019531 65.136719 125.4375 C 65.019531 125.203125 64.835938 125.042969 64.585938 124.960938 C 64.339844 124.878906 64.097656 124.898438 63.863281 125.015625 C 63.628906 125.132812 63.46875 125.316406 63.386719 125.566406 C 63.304688 125.816406 63.320312 126.058594 63.441406 126.292969 C 64.078125 127.566406 65 128.582031 66.203125 129.347656 C 64.644531 130.0625 63.039062 130.652344 61.390625 131.113281 C 60.957031 131.234375 60.515625 131.304688 60.066406 131.320312 C 59.617188 131.339844 59.171875 131.308594 58.730469 131.222656 C 58.289062 131.136719 57.863281 131.003906 57.453125 130.820312 C 57.042969 130.640625 56.65625 130.410156 56.300781 130.140625 C 55.941406 129.871094 55.621094 129.5625 55.332031 129.214844 C 55.046875 128.867188 54.800781 128.496094 54.601562 128.09375 C 54.398438 127.691406 54.246094 127.269531 54.144531 126.832031 C 54.039062 126.398438 53.988281 125.953125 53.984375 125.503906 L 53.984375 85.660156 C 54.878906 86.601562 55.917969 87.328125 57.109375 87.839844 C 58.300781 88.351562 59.542969 88.609375 60.839844 88.613281 C 61.582031 88.609375 62.3125 88.523438 63.035156 88.347656 C 63.753906 88.171875 64.445312 87.917969 65.105469 87.578125 C 65.765625 87.238281 66.378906 86.828125 66.941406 86.347656 C 67.507812 85.863281 68.007812 85.320312 68.441406 84.722656 C 68.59375 84.507812 68.648438 84.273438 68.605469 84.015625 C 68.5625 83.757812 68.4375 83.554688 68.222656 83.402344 C 68.121094 83.324219 68.011719 83.273438 67.890625 83.242188 C 67.765625 83.214844 67.644531 83.207031 67.519531 83.226562 C 67.394531 83.246094 67.28125 83.289062 67.171875 83.355469 C 67.066406 83.421875 66.976562 83.507812 66.902344 83.609375 C 66.710938 83.875 66.503906 84.125 66.277344 84.363281 C 66.054688 84.601562 65.8125 84.824219 65.558594 85.03125 C 65.304688 85.238281 65.039062 85.425781 64.761719 85.597656 C 64.480469 85.769531 64.191406 85.921875 63.894531 86.054688 C 63.59375 86.191406 63.289062 86.304688 62.976562 86.398438 C 62.660156 86.492188 62.34375 86.566406 62.019531 86.617188 C 61.695312 86.667969 61.371094 86.699219 61.042969 86.707031 C 60.71875 86.71875 60.390625 86.707031 60.066406 86.671875 C 59.738281 86.640625 59.417969 86.585938 59.097656 86.511719 C 58.78125 86.433594 58.46875 86.339844 58.160156 86.222656 C 57.855469 86.105469 57.558594 85.96875 57.269531 85.816406 C 56.980469 85.660156 56.703125 85.488281 56.4375 85.296875 C 56.171875 85.105469 55.921875 84.894531 55.683594 84.671875 C 55.445312 84.445312 55.222656 84.207031 55.015625 83.953125 C 54.808594 83.699219 54.617188 83.433594 54.445312 83.15625 C 54.273438 82.878906 54.121094 82.589844 53.984375 82.289062 L 53.984375 70.226562 C 53.980469 69.316406 54.183594 68.453125 54.585938 67.640625 C 54.992188 66.828125 55.554688 66.148438 56.28125 65.601562 C 57.007812 65.042969 57.820312 64.679688 58.71875 64.507812 C 59.617188 64.332031 60.507812 64.367188 61.390625 64.613281 C 63.351562 65.15625 65.246094 65.886719 67.066406 66.796875 C 66.089844 67.625 65.324219 68.617188 64.769531 69.769531 C 64.703125 69.882812 64.660156 70.003906 64.644531 70.136719 C 64.628906 70.265625 64.640625 70.394531 64.679688 70.523438 C 64.714844 70.648438 64.777344 70.761719 64.863281 70.863281 C 64.949219 70.964844 65.050781 71.042969 65.167969 71.101562 C 65.285156 71.160156 65.410156 71.191406 65.542969 71.199219 C 65.675781 71.203125 65.804688 71.183594 65.925781 71.136719 C 66.050781 71.089844 66.15625 71.019531 66.253906 70.925781 C 66.347656 70.835938 66.417969 70.726562 66.46875 70.605469 C 66.714844 70.050781 67.035156 69.542969 67.421875 69.082031 C 67.8125 68.617188 68.261719 68.21875 68.761719 67.878906 C 69.265625 67.542969 69.804688 67.28125 70.382812 67.09375 C 70.957031 66.910156 71.546875 66.808594 72.152344 66.789062 C 75.75 66.789062 78.675781 70.148438 78.675781 74.289062 C 78.683594 75.320312 78.503906 76.320312 78.128906 77.28125 C 77.753906 78.246094 77.214844 79.105469 76.511719 79.859375 C 76.328125 80.050781 76.242188 80.277344 76.246094 80.539062 C 76.25 80.800781 76.34375 81.023438 76.527344 81.207031 C 76.730469 81.355469 76.957031 81.429688 77.207031 81.425781 C 77.457031 81.421875 77.679688 81.34375 77.875 81.1875 C 78.855469 80.160156 79.570312 78.976562 80.023438 77.628906 C 80.777344 77.9375 81.472656 78.34375 82.117188 78.839844 C 82.761719 79.339844 83.328125 79.914062 83.816406 80.566406 C 84.304688 81.21875 84.699219 81.925781 84.992188 82.683594 C 85.289062 83.445312 85.480469 84.230469 85.5625 85.039062 C 85.648438 85.851562 85.621094 86.65625 85.488281 87.460938 C 85.351562 88.261719 85.113281 89.035156 84.769531 89.773438 C 84.425781 90.511719 83.988281 91.191406 83.460938 91.8125 C 82.929688 92.429688 82.328125 92.96875 81.65625 93.425781 C 81.445312 93.574219 81.3125 93.777344 81.265625 94.03125 C 81.214844 94.285156 81.257812 94.519531 81.398438 94.734375 C 81.550781 94.941406 81.75 95.070312 82.003906 95.121094 C 82.253906 95.167969 82.488281 95.125 82.707031 94.992188 C 83.765625 94.28125 84.671875 93.410156 85.421875 92.382812 C 85.699219 94.199219 85.839844 96.023438 85.839844 97.859375 C 85.847656 101.339844 85.351562 104.75 84.351562 108.082031 Z M 84.351562 108.082031 " fill-opacity="1" fill-rule="nonzero"/></g><g clip-path="url(#272ec137c0)"><path fill="#004aad" d="M 103.988281 147.507812 L 103.304688 147.453125 L 103.304688 143.996094 C 103.304688 143.535156 103.222656 143.089844 103.058594 142.660156 C 102.894531 142.230469 102.664062 141.839844 102.359375 141.492188 C 102.054688 141.148438 101.699219 140.867188 101.296875 140.648438 C 100.890625 140.429688 100.457031 140.289062 100.003906 140.226562 L 70.035156 136.316406 C 69.273438 136.21875 68.519531 136.269531 67.777344 136.476562 L 54.269531 140.226562 C 53.59375 140.421875 52.917969 140.421875 52.238281 140.226562 L 38.648438 136.46875 C 37.902344 136.265625 37.152344 136.214844 36.386719 136.316406 L 6.507812 140.226562 C 6.050781 140.289062 5.621094 140.429688 5.214844 140.648438 C 4.808594 140.867188 4.453125 141.148438 4.148438 141.492188 C 3.847656 141.839844 3.613281 142.230469 3.449219 142.660156 C 3.289062 143.089844 3.207031 143.535156 3.203125 143.996094 L 3.203125 147.453125 L 2.519531 147.507812 C 2.183594 147.539062 1.863281 147.628906 1.558594 147.78125 C 1.257812 147.929688 0.988281 148.128906 0.761719 148.378906 C 0.53125 148.628906 0.355469 148.910156 0.230469 149.226562 C 0.109375 149.539062 0.046875 149.867188 0.0429688 150.207031 L 0.0429688 153.898438 C 0.0429688 154.667969 0.320312 155.320312 0.878906 155.855469 C 1.425781 156.390625 2.085938 156.640625 2.851562 156.605469 L 44.390625 154.960938 C 44.683594 154.960938 44.917969 155.078125 45.09375 155.3125 L 46.601562 157.582031 C 47.011719 158.203125 47.546875 158.6875 48.203125 159.042969 C 48.859375 159.394531 49.558594 159.574219 50.304688 159.574219 L 56.140625 159.585938 L 56.160156 159.585938 C 56.90625 159.585938 57.605469 159.410156 58.261719 159.058594 C 58.921875 158.707031 59.457031 158.21875 59.871094 157.601562 L 61.390625 155.3125 C 61.558594 155.066406 61.792969 154.949219 62.089844 154.960938 L 103.65625 156.605469 C 104.425781 156.644531 105.082031 156.394531 105.632812 155.855469 C 106.1875 155.320312 106.46875 154.667969 106.464844 153.898438 L 106.464844 150.207031 C 106.464844 149.867188 106.402344 149.539062 106.277344 149.226562 C 106.152344 148.910156 105.976562 148.628906 105.75 148.378906 C 105.519531 148.128906 105.253906 147.929688 104.949219 147.78125 C 104.644531 147.628906 104.324219 147.539062 103.988281 147.507812 Z M 5.101562 143.996094 C 5.101562 143.765625 5.144531 143.542969 5.226562 143.328125 C 5.304688 143.113281 5.421875 142.917969 5.574219 142.746094 C 5.726562 142.574219 5.90625 142.433594 6.105469 142.324219 C 6.308594 142.214844 6.527344 142.148438 6.753906 142.117188 L 36.632812 138.195312 C 37.140625 138.128906 37.640625 138.164062 38.132812 138.300781 L 51.734375 142.058594 C 52.75 142.339844 53.761719 142.339844 54.773438 142.058594 L 68.28125 138.300781 C 68.777344 138.164062 69.28125 138.128906 69.789062 138.195312 L 99.753906 142.117188 C 99.984375 142.148438 100.199219 142.214844 100.402344 142.324219 C 100.605469 142.433594 100.78125 142.574219 100.933594 142.746094 C 101.085938 142.917969 101.203125 143.113281 101.285156 143.328125 C 101.367188 143.542969 101.40625 143.765625 101.40625 143.996094 L 101.40625 147.175781 C 95.4375 146.902344 64.285156 145.476562 53.253906 145.476562 C 42.226562 145.476562 11.074219 146.902344 5.101562 147.175781 Z M 104.566406 153.898438 C 104.566406 154.128906 104.484375 154.324219 104.316406 154.480469 C 104.152344 154.640625 103.953125 154.714844 103.722656 154.707031 L 62.167969 153.0625 C 61.695312 153.042969 61.25 153.140625 60.832031 153.355469 C 60.414062 153.570312 60.074219 153.875 59.8125 154.269531 L 58.285156 156.546875 C 58.046875 156.902344 57.742188 157.179688 57.367188 157.382812 C 56.988281 157.585938 56.585938 157.6875 56.160156 157.6875 L 56.148438 157.6875 L 50.304688 157.675781 C 49.875 157.671875 49.472656 157.570312 49.097656 157.367188 C 48.722656 157.164062 48.414062 156.882812 48.175781 156.527344 L 46.667969 154.269531 C 46.40625 153.875 46.066406 153.574219 45.648438 153.359375 C 45.230469 153.144531 44.785156 153.046875 44.3125 153.0625 L 2.785156 154.707031 C 2.554688 154.71875 2.355469 154.644531 2.1875 154.476562 C 2.023438 154.320312 1.941406 154.128906 1.941406 153.898438 L 1.941406 150.207031 C 1.941406 149.996094 2.015625 149.8125 2.15625 149.660156 C 2.296875 149.503906 2.472656 149.417969 2.683594 149.398438 C 2.683594 149.398438 43.527344 147.375 53.253906 147.375 C 62.984375 147.375 103.828125 149.398438 103.828125 149.398438 C 104.035156 149.417969 104.210938 149.503906 104.351562 149.660156 C 104.496094 149.8125 104.566406 149.996094 104.566406 150.207031 Z M 104.566406 153.898438 " fill-opacity="1" fill-rule="nonzero"/></g><g clip-path="url(#42d853e079)"><path fill="#004aad" d="M 51.457031 73.515625 C 51.457031 67.859375 46.066406 65.511719 43.179688 65.511719 C 41.445312 65.511719 38.003906 66.683594 36.121094 69.191406 C 35.195312 70.421875 34.777344 71.824219 34.886719 73.304688 C 33.167969 73.054688 30.378906 72.992188 28.679688 75.722656 C 27.457031 77.683594 27.328125 79.304688 27.460938 80.359375 C 25.679688 80.578125 22.496094 81.449219 21.269531 84.851562 C 20.347656 87.40625 20.507812 90.039062 21.292969 92.140625 C 21.292969 92.144531 21.292969 92.148438 21.292969 92.152344 C 21.46875 92.742188 21.78125 93.378906 22.234375 94 C 22.242188 94.007812 22.25 94.015625 22.253906 94.023438 C 22.285156 94.070312 22.316406 94.113281 22.351562 94.15625 C 22.539062 94.414062 22.730469 94.65625 22.9375 94.875 C 22.128906 95.53125 21.664062 96.484375 21.558594 98.226562 C 21.433594 100.183594 22.285156 102.546875 23.765625 103.761719 C 22.757812 104.792969 21.867188 106.347656 22.085938 109.613281 C 22.285156 111.625 23.414062 113.667969 25.027344 114.941406 C 25.875 115.613281 26.820312 116.019531 27.777344 116.167969 C 27.839844 116.191406 27.902344 116.203125 27.972656 116.210938 C 27.992188 116.214844 28.019531 116.210938 28.042969 116.214844 C 28.070312 116.21875 28.097656 116.226562 28.125 116.226562 C 28.289062 117.171875 28.8125 118.226562 29.421875 119.019531 C 30.421875 120.316406 31.707031 121.066406 33.105469 121.1875 C 33.515625 122.789062 34.433594 125.195312 37.140625 125.519531 C 37.351562 127.039062 37.878906 128.296875 38.71875 129.277344 C 39.773438 130.496094 41.269531 131.207031 43.050781 131.328125 C 43.230469 131.34375 43.410156 131.347656 43.589844 131.347656 C 45.71875 131.347656 47.917969 130.503906 49.4375 129.074219 C 50.75 127.84375 51.464844 126.257812 51.453125 124.617188 L 51.453125 89.429688 C 51.453125 89.425781 51.453125 89.425781 51.453125 89.425781 L 51.453125 73.605469 C 51.453125 73.574219 51.457031 73.546875 51.457031 73.515625 Z M 49.554688 87.128906 C 48.769531 86.671875 47.816406 86.332031 46.824219 86.199219 C 44.152344 85.839844 41.875 87.0625 40.5625 89.574219 C 39.054688 92.742188 40.246094 95.132812 41.089844 96.273438 C 42.183594 97.753906 43.851562 98.742188 45.195312 98.742188 C 45.316406 98.742188 45.4375 98.730469 45.554688 98.714844 C 46.074219 98.640625 46.433594 98.15625 46.359375 97.640625 C 46.285156 97.121094 45.800781 96.757812 45.28125 96.835938 C 44.828125 96.902344 43.539062 96.394531 42.617188 95.144531 C 41.894531 94.167969 41.25 92.550781 42.261719 90.421875 C 43.40625 88.234375 45.152344 87.929688 46.417969 88.0625 C 48.191406 88.242188 49.394531 89.238281 49.554688 89.605469 L 49.554688 124.621094 C 49.566406 126.050781 48.789062 127.078125 48.136719 127.691406 C 46.859375 128.890625 44.960938 129.554688 43.179688 129.4375 C 42.300781 129.375 41.058594 129.085938 40.160156 128.039062 C 39.203125 126.929688 38.792969 125.148438 38.96875 122.9375 C 39.097656 121.921875 40.367188 119.910156 42.058594 119.066406 C 43.03125 118.578125 43.957031 118.582031 44.816406 119.066406 C 45.269531 119.328125 45.851562 119.167969 46.109375 118.710938 C 46.367188 118.257812 46.207031 117.675781 45.753906 117.417969 C 44.332031 116.609375 42.757812 116.59375 41.210938 117.367188 C 41.175781 117.386719 41.144531 117.410156 41.109375 117.425781 C 40.703125 117.007812 40.085938 116.71875 39.316406 116.632812 C 38.019531 116.484375 36.585938 116.921875 36.351562 118.050781 C 36.246094 118.5625 36.578125 119.066406 37.089844 119.171875 C 37.539062 119.265625 37.984375 119.023438 38.15625 118.613281 C 38.339844 118.53125 38.804688 118.449219 39.277344 118.546875 C 39.363281 118.5625 39.429688 118.582031 39.492188 118.601562 C 38.167969 119.847656 37.238281 121.5 37.082031 122.742188 C 37.058594 123.027344 37.050781 123.296875 37.042969 123.570312 C 35.613281 123.203125 35.160156 121.753906 34.785156 120.039062 L 34.605469 119.222656 L 33.773438 119.296875 C 32.5625 119.40625 31.667969 118.714844 31.136719 118.117188 C 30.535156 117.4375 30.195312 116.667969 30.050781 116.144531 C 32.722656 115.753906 36.015625 114.089844 36.886719 109.558594 C 37.179688 109.453125 37.476562 109.324219 37.773438 109.144531 C 37.789062 109.136719 37.804688 109.121094 37.816406 109.113281 C 38.902344 108.503906 40.039062 107.523438 40.800781 106.261719 C 41.691406 104.792969 41.929688 103.210938 41.484375 101.691406 C 41.335938 101.1875 40.808594 100.898438 40.304688 101.046875 C 39.800781 101.191406 39.511719 101.71875 39.660156 102.222656 C 39.957031 103.234375 39.792969 104.261719 39.179688 105.28125 C 38.5625 106.296875 37.574219 107.121094 36.707031 107.5625 C 36.6875 107.574219 36.664062 107.582031 36.640625 107.59375 C 36.363281 107.730469 36.09375 107.828125 35.859375 107.875 C 33.832031 108.261719 31.800781 106.320312 31.777344 106.296875 C 31.402344 105.933594 30.804688 105.9375 30.433594 106.3125 C 30.066406 106.683594 30.074219 107.285156 30.445312 107.652344 C 30.558594 107.761719 32.476562 109.613281 34.875 109.820312 C 34.097656 112.652344 32.085938 113.722656 30.464844 114.117188 L 28.953125 114.324219 C 28.859375 114.335938 28.769531 114.335938 28.679688 114.339844 C 28.464844 114.339844 28.304688 114.332031 28.222656 114.328125 C 28.214844 114.328125 28.203125 114.328125 28.195312 114.324219 C 28.179688 114.324219 28.167969 114.324219 28.160156 114.324219 C 28.15625 114.320312 28.15625 114.324219 28.152344 114.324219 C 27.34375 114.21875 26.667969 113.820312 26.203125 113.453125 C 25 112.5 24.121094 110.921875 23.976562 109.457031 C 23.757812 106.179688 24.808594 105.304688 25.921875 104.382812 L 27.484375 103.078125 L 25.632812 102.644531 C 24.4375 102.363281 23.335938 100.195312 23.453125 98.34375 C 23.546875 96.808594 23.894531 96.402344 24.554688 96.066406 C 25.535156 96.648438 26.738281 97.09375 28.1875 97.292969 C 28.519531 97.339844 28.847656 97.359375 29.164062 97.359375 C 30.253906 97.359375 31.230469 97.101562 32.085938 96.730469 C 32.523438 96.988281 33.421875 97.753906 33.367188 98.792969 C 33.289062 100.371094 32.183594 101.5625 32.15625 101.59375 C 31.792969 101.96875 31.804688 102.570312 32.183594 102.933594 C 32.367188 103.109375 32.605469 103.199219 32.839844 103.199219 C 33.089844 103.199219 33.339844 103.101562 33.523438 102.90625 C 33.589844 102.839844 35.144531 101.203125 35.265625 98.890625 C 35.332031 97.5625 34.652344 96.453125 33.847656 95.703125 C 35.074219 94.796875 35.789062 93.839844 35.847656 93.757812 C 36.15625 93.335938 36.0625 92.742188 35.636719 92.433594 C 35.210938 92.125 34.617188 92.21875 34.3125 92.644531 C 34.296875 92.664062 33.273438 94.039062 31.601562 94.859375 C 30.714844 95.296875 29.648438 95.578125 28.445312 95.414062 C 27.480469 95.28125 26.671875 95.015625 25.992188 94.679688 L 25.324219 94.308594 C 24.667969 93.886719 24.167969 93.398438 23.808594 92.925781 C 22.679688 91.246094 22.015625 88.363281 23.054688 85.496094 C 24.09375 82.617188 27.210938 82.238281 28.273438 82.191406 L 31.082031 85.089844 C 30.472656 85.441406 29.746094 85.65625 28.882812 85.695312 C 28.359375 85.71875 27.953125 86.164062 27.976562 86.6875 C 28 87.195312 28.421875 87.59375 28.925781 87.59375 C 28.941406 87.59375 28.953125 87.59375 28.96875 87.589844 C 30.824219 87.507812 32.304688 86.863281 33.371094 85.675781 C 35.226562 83.609375 35.066406 80.660156 35.058594 80.535156 C 35.027344 80.015625 34.578125 79.617188 34.054688 79.648438 C 33.53125 79.679688 33.132812 80.128906 33.164062 80.652344 C 33.167969 80.671875 33.238281 82.355469 32.429688 83.753906 L 29.472656 80.703125 C 29.332031 80.335938 28.9375 78.894531 30.289062 76.722656 C 31.5 74.777344 33.53125 74.96875 35.335938 75.304688 C 35.449219 75.324219 35.554688 75.34375 35.652344 75.359375 L 37.96875 77.351562 C 38.148438 77.503906 38.367188 77.578125 38.585938 77.578125 C 38.855469 77.578125 39.121094 77.46875 39.308594 77.25 C 39.648438 76.851562 39.605469 76.253906 39.207031 75.910156 L 36.910156 73.9375 C 36.59375 72.613281 36.832031 71.398438 37.636719 70.328125 C 39.097656 68.386719 41.976562 67.410156 43.179688 67.410156 C 44.878906 67.410156 49.542969 68.855469 49.558594 73.496094 C 49.558594 73.503906 49.554688 73.507812 49.554688 73.511719 L 49.554688 73.582031 C 49.523438 77.75 46.820312 78.734375 46.488281 78.835938 C 46.066406 78.8125 45.703125 79.078125 45.570312 79.484375 C 45.402344 79.980469 45.671875 80.515625 46.167969 80.683594 C 47.019531 80.964844 48.414062 79.988281 48.570312 79.878906 C 48.863281 79.667969 49.207031 79.375 49.554688 78.992188 Z M 49.554688 87.128906 " fill-opacity="1" fill-rule="nonzero"/></g><g clip-path="url(#21b6a0f19d)"><path fill="#004aad" d="M 84.457031 98.242188 L 84.449219 98.179688 C 84.257812 96.488281 83.617188 95.511719 82.84375 94.882812 C 84.832031 92.800781 85.921875 88.726562 84.519531 84.851562 C 83.292969 81.449219 80.113281 80.578125 78.328125 80.359375 C 78.460938 79.304688 78.332031 77.683594 77.109375 75.722656 C 75.417969 73.003906 72.636719 73.054688 70.917969 73.300781 C 71.078125 71.6875 70.664062 70.1875 69.703125 68.90625 C 67.953125 66.574219 64.796875 65.511719 62.609375 65.511719 C 59.722656 65.511719 54.332031 67.859375 54.332031 73.515625 C 54.332031 73.542969 54.335938 73.570312 54.335938 73.597656 L 54.335938 124.609375 C 54.324219 126.257812 55.039062 127.84375 56.351562 129.074219 C 57.871094 130.503906 60.070312 131.347656 62.199219 131.347656 C 62.378906 131.347656 62.558594 131.34375 62.738281 131.328125 C 65.996094 131.105469 68.152344 128.953125 68.644531 125.519531 C 71.34375 125.195312 72.269531 122.8125 72.679688 121.207031 C 74.058594 121.15625 75.277344 120.644531 76.175781 119.726562 C 77.082031 118.804688 77.617188 117.5 77.683594 116.113281 C 81.265625 115.597656 83.40625 113.496094 83.742188 110.121094 C 83.996094 107.558594 83.382812 105.421875 81.917969 103.75 C 83.332031 102.757812 84.585938 101.183594 84.457031 98.242188 Z M 57.9375 125.878906 C 57.453125 125.878906 57.058594 125.484375 57.058594 125.003906 C 57.058594 124.519531 57.453125 124.125 57.9375 124.125 C 58.417969 124.125 58.8125 124.519531 58.8125 125.003906 C 58.8125 125.484375 58.417969 125.878906 57.9375 125.878906 Z M 57.519531 126.652344 L 57.519531 127.558594 C 57.085938 127.125 56.632812 126.515625 56.398438 125.726562 C 56.613281 126.183594 57.023438 126.527344 57.519531 126.652344 Z M 79.933594 102.726562 L 78.671875 103.382812 L 79.765625 104.296875 C 80.8125 105.171875 82.171875 106.707031 81.851562 109.933594 C 81.578125 112.667969 79.875 114.101562 76.644531 114.316406 L 75.65625 114.382812 L 75.765625 115.367188 C 75.894531 116.53125 75.539062 117.667969 74.820312 118.398438 C 74.285156 118.941406 73.574219 119.25 72.730469 119.304688 L 72.429688 109.40625 L 75.1875 106.902344 C 75.539062 107.140625 75.964844 107.28125 76.417969 107.28125 C 77.632812 107.28125 78.617188 106.296875 78.617188 105.085938 C 78.617188 103.875 77.632812 102.890625 76.417969 102.890625 C 75.207031 102.890625 74.222656 103.875 74.222656 105.085938 C 74.222656 105.539062 74.359375 105.964844 74.597656 106.316406 L 71.589844 109.046875 L 71.898438 119.285156 L 71.183594 119.222656 L 71.003906 120.039062 C 70.585938 121.933594 70.074219 123.503906 68.261719 123.648438 L 68.261719 115.082031 L 67.058594 113.953125 L 67.058594 109.605469 L 69.699219 107 C 69.976562 107.195312 70.3125 107.3125 70.675781 107.3125 C 71.617188 107.3125 72.382812 106.542969 72.382812 105.605469 C 72.382812 104.664062 71.617188 103.898438 70.675781 103.898438 C 69.734375 103.898438 68.96875 104.664062 68.96875 105.605469 C 68.96875 105.878906 69.042969 106.136719 69.15625 106.367188 L 66.226562 109.257812 L 66.226562 113.175781 L 64.652344 111.699219 L 64.652344 105.757812 C 65.394531 105.574219 65.945312 104.90625 65.945312 104.109375 C 65.945312 103.167969 65.179688 102.402344 64.238281 102.402344 C 63.296875 102.402344 62.53125 103.167969 62.53125 104.109375 C 62.53125 104.90625 63.082031 105.570312 63.820312 105.757812 L 63.820312 112.058594 L 67.429688 115.441406 L 67.429688 123.722656 C 67.34375 123.757812 67.261719 123.804688 67.191406 123.867188 C 67.175781 123.875 67.160156 123.886719 67.148438 123.898438 C 67.144531 123.902344 67.144531 123.90625 67.140625 123.910156 C 67.007812 124.03125 66.914062 124.1875 66.867188 124.371094 C 66.863281 124.390625 66.863281 124.410156 66.859375 124.429688 C 66.851562 124.46875 66.839844 124.507812 66.839844 124.550781 C 66.710938 126.667969 65.914062 128.152344 64.542969 128.898438 L 62.871094 127.359375 L 62.871094 123.269531 C 63.613281 123.082031 64.164062 122.414062 64.164062 121.617188 C 64.164062 120.679688 63.398438 119.914062 62.457031 119.914062 C 61.515625 119.914062 60.75 120.679688 60.75 121.617188 C 60.75 122.414062 61.300781 123.082031 62.039062 123.269531 L 62.039062 127.722656 L 63.691406 129.246094 C 63.355469 129.34375 62.996094 129.410156 62.609375 129.4375 C 61.128906 129.535156 59.570312 129.085938 58.351562 128.246094 L 58.351562 126.652344 C 59.089844 126.464844 59.644531 125.800781 59.644531 125.003906 C 59.644531 124.0625 58.878906 123.296875 57.9375 123.296875 C 57.054688 123.296875 56.335938 123.96875 56.246094 124.828125 C 56.242188 124.753906 56.234375 124.6875 56.234375 124.613281 L 56.234375 116.507812 L 56.988281 117.328125 L 61.636719 117.328125 C 61.832031 118.097656 62.527344 118.671875 63.359375 118.671875 C 64.339844 118.671875 65.140625 117.875 65.140625 116.894531 C 65.140625 115.910156 64.339844 115.113281 63.359375 115.113281 C 62.527344 115.113281 61.832031 115.6875 61.636719 116.457031 L 57.367188 116.457031 L 56.234375 115.230469 L 56.234375 109.976562 L 57.816406 109.976562 C 58.011719 110.832031 58.773438 111.472656 59.6875 111.472656 C 60.746094 111.472656 61.605469 110.613281 61.605469 109.554688 C 61.605469 108.496094 60.746094 107.632812 59.6875 107.632812 C 58.773438 107.632812 58.011719 108.273438 57.816406 109.128906 L 56.234375 109.128906 L 56.234375 96.683594 C 57.199219 96.675781 58.117188 96.675781 59.078125 96.675781 L 59.078125 100.871094 C 58.535156 100.992188 58.128906 101.476562 58.128906 102.054688 C 58.128906 102.726562 58.675781 103.273438 59.347656 103.273438 C 60.019531 103.273438 60.566406 102.726562 60.566406 102.054688 C 60.566406 101.476562 60.160156 100.992188 59.617188 100.871094 L 59.617188 96.855469 C 60.597656 97.839844 61.546875 98.824219 62.503906 99.816406 L 62.875 100.199219 L 63.261719 99.824219 L 62.890625 99.441406 C 62.355469 98.886719 61.820312 98.332031 61.28125 97.78125 L 65.476562 97.78125 C 65.601562 98.324219 66.085938 98.730469 66.664062 98.730469 C 67.335938 98.730469 67.882812 98.183594 67.882812 97.511719 C 67.882812 96.839844 67.335938 96.292969 66.664062 96.292969 C 66.085938 96.292969 65.601562 96.699219 65.476562 97.242188 L 60.753906 97.242188 C 60.414062 96.898438 60.082031 96.558594 59.738281 96.214844 L 59.660156 96.136719 L 59.546875 96.136719 C 58.40625 96.136719 57.355469 96.136719 56.234375 96.144531 L 56.234375 94.824219 C 59.328125 94.796875 62.429688 94.808594 65.476562 94.851562 C 65.597656 95.394531 66.082031 95.804688 66.664062 95.804688 C 67.335938 95.804688 67.882812 95.257812 67.882812 94.585938 C 67.882812 93.914062 67.335938 93.367188 66.664062 93.367188 C 66.085938 93.367188 65.601562 93.773438 65.480469 94.3125 C 62.433594 94.269531 59.328125 94.261719 56.234375 94.285156 L 56.234375 91.964844 L 57.007812 92.800781 L 59.890625 92.800781 C 60.011719 93.28125 60.441406 93.636719 60.957031 93.636719 C 61.566406 93.636719 62.0625 93.140625 62.0625 92.53125 C 62.0625 91.921875 61.566406 91.425781 60.957031 91.425781 C 60.441406 91.425781 60.011719 91.785156 59.890625 92.261719 L 57.242188 92.261719 L 56.234375 91.171875 L 56.234375 88.15625 L 57.570312 87.527344 L 62.820312 89.476562 L 69.832031 86.171875 C 70.011719 86.402344 70.253906 86.578125 70.535156 86.679688 C 70.707031 86.742188 70.886719 86.773438 71.0625 86.773438 C 71.292969 86.773438 71.519531 86.722656 71.730469 86.625 C 72.507812 86.257812 72.84375 85.324219 72.476562 84.542969 C 72.296875 84.167969 71.984375 83.878906 71.589844 83.738281 C 71.199219 83.597656 70.773438 83.617188 70.394531 83.796875 C 70.019531 83.976562 69.734375 84.289062 69.59375 84.683594 C 69.492188 84.964844 69.476562 85.261719 69.539062 85.546875 L 62.789062 88.730469 L 58.441406 87.113281 L 62.542969 85.179688 L 63.722656 81.851562 L 69.039062 79.34375 C 69.335938 79.722656 69.789062 79.949219 70.261719 79.949219 C 70.484375 79.949219 70.710938 79.902344 70.925781 79.800781 C 71.703125 79.433594 72.039062 78.5 71.671875 77.71875 C 71.304688 76.941406 70.371094 76.605469 69.59375 76.972656 C 68.921875 77.289062 68.582031 78.027344 68.734375 78.722656 L 63.167969 81.347656 L 61.988281 84.679688 L 56.234375 87.394531 L 56.234375 78.992188 C 56.582031 79.375 56.925781 79.667969 57.21875 79.875 C 57.375 79.988281 58.761719 80.96875 59.621094 80.683594 C 60.117188 80.519531 60.386719 79.980469 60.21875 79.484375 C 60.085938 79.085938 59.714844 78.835938 59.320312 78.835938 C 59.3125 78.835938 59.304688 78.835938 59.300781 78.835938 C 58.96875 78.734375 56.261719 77.746094 56.234375 73.574219 L 56.234375 73.511719 C 56.234375 73.507812 56.234375 73.503906 56.230469 73.5 C 56.242188 69.285156 60.074219 67.710938 62.058594 67.453125 L 61.449219 68.019531 L 61.449219 72.566406 C 60.699219 72.726562 60.136719 73.390625 60.136719 74.1875 C 60.136719 75.101562 60.878906 75.84375 61.792969 75.84375 C 62.707031 75.84375 63.453125 75.101562 63.453125 74.1875 C 63.453125 73.390625 62.886719 72.726562 62.136719 72.566406 L 62.136719 68.320312 L 63.09375 67.441406 C 64.824219 67.582031 66.996094 68.464844 68.1875 70.046875 C 69.019531 71.15625 69.246094 72.46875 68.878906 73.949219 L 67.777344 75.019531 C 67.402344 75.386719 67.394531 75.988281 67.757812 76.363281 C 67.945312 76.554688 68.191406 76.648438 68.4375 76.648438 C 68.675781 76.648438 68.914062 76.558594 69.101562 76.382812 L 70.152344 75.359375 C 70.246094 75.34375 70.34375 75.324219 70.453125 75.304688 C 72.261719 74.972656 74.285156 74.777344 75.5 76.722656 C 76.8125 78.835938 76.476562 80.25 76.332031 80.65625 L 75.355469 81.480469 C 74.957031 81.820312 74.90625 82.417969 75.246094 82.820312 C 75.433594 83.039062 75.699219 83.15625 75.96875 83.15625 C 76.1875 83.15625 76.402344 83.082031 76.582031 82.929688 L 77.460938 82.1875 C 78.449219 82.222656 81.539062 82.558594 82.660156 85.324219 L 74.433594 85.324219 L 69.777344 90.117188 L 69.777344 94.964844 C 68.960938 95.152344 68.347656 95.878906 68.347656 96.75 C 68.347656 97.761719 69.171875 98.585938 70.183594 98.585938 C 71.195312 98.585938 72.019531 97.761719 72.019531 96.75 C 72.019531 95.878906 71.40625 95.152344 70.589844 94.964844 L 70.589844 90.445312 L 74.777344 86.132812 L 82.933594 86.132812 C 83.515625 88.242188 83.230469 90.300781 82.5625 91.839844 L 75.957031 91.839844 L 73.257812 94.953125 L 73.257812 97.929688 C 72.441406 98.113281 71.828125 98.84375 71.828125 99.714844 C 71.828125 100.726562 72.652344 101.550781 73.664062 101.550781 C 74.675781 101.550781 75.5 100.726562 75.5 99.714844 C 75.5 98.84375 74.886719 98.113281 74.070312 97.929688 L 74.070312 95.253906 L 76.328125 92.648438 L 82.152344 92.648438 C 81.78125 93.265625 81.351562 93.746094 80.902344 94.046875 L 78.203125 94.046875 C 77.679688 94.046875 77.253906 94.472656 77.253906 94.996094 C 77.253906 95.519531 77.679688 95.945312 78.203125 95.945312 L 80.96875 95.945312 C 81.882812 96.386719 82.390625 96.921875 82.5625 98.359375 C 82.660156 100.804688 81.628906 101.84375 79.933594 102.726562 Z M 75.054688 105.085938 C 75.054688 104.332031 75.667969 103.71875 76.417969 103.71875 C 77.171875 103.71875 77.785156 104.332031 77.785156 105.085938 C 77.785156 105.839844 77.171875 106.449219 76.417969 106.449219 C 75.667969 106.449219 75.054688 105.839844 75.054688 105.085938 Z M 69.800781 105.605469 C 69.800781 105.121094 70.195312 104.730469 70.675781 104.730469 C 71.160156 104.730469 71.554688 105.121094 71.554688 105.605469 C 71.554688 106.085938 71.160156 106.480469 70.675781 106.480469 C 70.195312 106.480469 69.800781 106.085938 69.800781 105.605469 Z M 64.238281 104.984375 C 63.753906 104.984375 63.363281 104.59375 63.363281 104.109375 C 63.363281 103.625 63.753906 103.234375 64.238281 103.234375 C 64.722656 103.234375 65.113281 103.625 65.113281 104.109375 C 65.113281 104.59375 64.722656 104.984375 64.238281 104.984375 Z M 62.457031 122.496094 C 61.972656 122.496094 61.582031 122.101562 61.582031 121.617188 C 61.582031 121.136719 61.972656 120.742188 62.457031 120.742188 C 62.941406 120.742188 63.332031 121.136719 63.332031 121.617188 C 63.332031 122.101562 62.941406 122.496094 62.457031 122.496094 Z M 62.445312 116.894531 C 62.445312 116.390625 62.855469 115.980469 63.359375 115.980469 C 63.863281 115.980469 64.273438 116.390625 64.273438 116.894531 C 64.273438 117.394531 63.863281 117.804688 63.359375 117.804688 C 62.855469 117.804688 62.445312 117.394531 62.445312 116.894531 Z M 58.613281 109.554688 C 58.613281 108.960938 59.09375 108.480469 59.6875 108.480469 C 60.277344 108.480469 60.757812 108.960938 60.757812 109.554688 C 60.757812 110.144531 60.277344 110.625 59.6875 110.625 C 59.09375 110.625 58.613281 110.144531 58.613281 109.554688 Z M 59.347656 101.375 C 59.722656 101.375 60.03125 101.679688 60.03125 102.054688 C 60.03125 102.429688 59.722656 102.734375 59.347656 102.734375 C 58.972656 102.734375 58.667969 102.429688 58.667969 102.054688 C 58.667969 101.679688 58.972656 101.375 59.347656 101.375 Z M 65.984375 97.511719 C 65.984375 97.136719 66.289062 96.832031 66.664062 96.832031 C 67.039062 96.832031 67.34375 97.136719 67.34375 97.511719 C 67.34375 97.886719 67.039062 98.191406 66.664062 98.191406 C 66.289062 98.191406 65.984375 97.886719 65.984375 97.511719 Z M 65.984375 94.585938 C 65.984375 94.210938 66.289062 93.90625 66.664062 93.90625 C 67.039062 93.90625 67.34375 94.210938 67.34375 94.585938 C 67.34375 94.960938 67.039062 95.265625 66.664062 95.265625 C 66.289062 95.265625 65.984375 94.960938 65.984375 94.585938 Z M 60.390625 92.53125 C 60.390625 92.21875 60.648438 91.964844 60.957031 91.964844 C 61.273438 91.964844 61.527344 92.21875 61.527344 92.53125 C 61.527344 92.84375 61.273438 93.097656 60.957031 93.097656 C 60.648438 93.097656 60.390625 92.84375 60.390625 92.53125 Z M 70.242188 84.914062 C 70.320312 84.695312 70.480469 84.519531 70.691406 84.421875 C 70.808594 84.363281 70.933594 84.335938 71.0625 84.335938 C 71.160156 84.335938 71.261719 84.355469 71.359375 84.390625 C 71.578125 84.46875 71.753906 84.628906 71.851562 84.835938 C 72.058594 85.273438 71.871094 85.792969 71.433594 86 C 71.222656 86.097656 70.988281 86.109375 70.769531 86.03125 C 70.546875 85.953125 70.371094 85.792969 70.273438 85.582031 C 70.175781 85.371094 70.164062 85.132812 70.242188 84.914062 Z M 69.886719 77.597656 C 70.003906 77.539062 70.132812 77.515625 70.257812 77.515625 C 70.585938 77.515625 70.898438 77.699219 71.046875 78.015625 C 71.253906 78.449219 71.066406 78.96875 70.632812 79.175781 C 70.195312 79.378906 69.675781 79.195312 69.46875 78.757812 C 69.265625 78.324219 69.449219 77.800781 69.886719 77.597656 Z M 61.792969 73.21875 C 62.328125 73.21875 62.761719 73.652344 62.761719 74.1875 C 62.761719 74.71875 62.328125 75.152344 61.792969 75.152344 C 61.261719 75.152344 60.824219 74.71875 60.824219 74.1875 C 60.824219 73.652344 61.261719 73.21875 61.792969 73.21875 Z M 70.183594 95.726562 C 70.746094 95.726562 71.207031 96.1875 71.207031 96.75 C 71.207031 97.316406 70.746094 97.773438 70.183594 97.773438 C 69.617188 97.773438 69.15625 97.316406 69.15625 96.75 C 69.15625 96.1875 69.617188 95.726562 70.183594 95.726562 Z M 73.664062 98.691406 C 74.230469 98.691406 74.6875 99.148438 74.6875 99.714844 C 74.6875 100.277344 74.230469 100.738281 73.664062 100.738281 C 73.097656 100.738281 72.640625 100.277344 72.640625 99.714844 C 72.640625 99.148438 73.097656 98.691406 73.664062 98.691406 Z M 73.664062 98.691406 " fill-opacity="1" fill-rule="nonzero"/></g><g fill="#004aad" fill-opacity="1"><g transform="translate(109.218196, 130.134621)"><g><path d="M 2.730469 -17.75 C 2.730469 -12.289062 6.503906 -11.898438 10.535156 -11.898438 L 23.214844 -11.898438 C 24.96875 -11.898438 26.074219 -11.835938 26.074219 -10.015625 L 26.074219 -9.234375 C 26.074219 -7.414062 24.96875 -7.347656 23.214844 -7.347656 L 2.730469 -7.347656 L 2.730469 0 L 26.011719 0 C 30.042969 0 33.8125 -0.390625 33.8125 -5.851562 L 33.8125 -13.394531 C 33.8125 -18.855469 29.976562 -19.246094 25.945312 -19.246094 L 13.332031 -19.246094 C 11.574219 -19.246094 10.46875 -19.3125 10.46875 -21.132812 L 10.46875 -21.847656 C 10.46875 -23.667969 11.574219 -23.734375 13.332031 -23.734375 L 33.8125 -23.734375 L 33.8125 -31.082031 L 10.535156 -31.082031 C 6.503906 -31.082031 2.730469 -30.691406 2.730469 -25.292969 Z M 2.730469 -17.75 "/></g></g></g><g fill="#004aad" fill-opacity="1"><g transform="translate(145.757005, 130.134621)"><g><path d="M 10.46875 -31.082031 L 2.730469 -31.082031 L 2.730469 -5.851562 C 2.730469 -0.390625 6.503906 0 10.535156 0 L 33.8125 0 L 33.8125 -31.082031 L 26.074219 -31.082031 L 26.074219 -7.347656 L 13.332031 -7.347656 C 11.574219 -7.347656 10.46875 -7.414062 10.46875 -9.234375 Z M 10.46875 -31.082031 "/></g></g></g><g fill="#004aad" fill-opacity="1"><g transform="translate(182.620895, 130.134621)"><g><path d="M 3.054688 -31.082031 L 3.054688 0 L 10.792969 0 L 10.792969 -23.734375 L 26.398438 -23.734375 L 26.398438 0 L 34.136719 0 L 34.136719 -23.734375 L 46.882812 -23.734375 C 48.640625 -23.734375 49.742188 -23.667969 49.742188 -21.847656 L 49.742188 0 L 57.480469 0 L 57.480469 -25.230469 C 57.480469 -30.691406 53.710938 -31.082031 49.679688 -31.082031 Z M 3.054688 -31.082031 "/></g></g></g><g fill="#004aad" fill-opacity="1"><g transform="translate(242.82541, 130.134621)"><g><path d="M 3.054688 -31.082031 L 3.054688 0 L 10.792969 0 L 10.792969 -23.734375 L 26.398438 -23.734375 L 26.398438 0 L 34.136719 0 L 34.136719 -23.734375 L 46.882812 -23.734375 C 48.640625 -23.734375 49.742188 -23.667969 49.742188 -21.847656 L 49.742188 0 L 57.480469 0 L 57.480469 -25.230469 C 57.480469 -30.691406 53.710938 -31.082031 49.679688 -31.082031 Z M 3.054688 -31.082031 "/></g></g></g><g fill="#004aad" fill-opacity="1"><g transform="translate(303.029925, 130.134621)"><g><path d="M 10.792969 -35.957031 L 10.792969 -43.371094 L 3.054688 -43.371094 L 3.054688 -35.957031 Z M 10.792969 0 L 10.792969 -31.082031 L 3.054688 -31.082031 L 3.054688 0 Z M 10.792969 0 "/></g></g></g><g fill="#004aad" fill-opacity="1"><g transform="translate(316.878259, 130.134621)"><g><path d="M 3.054688 0 L 10.792969 0 L 10.792969 -23.734375 L 18.597656 -23.734375 L 18.597656 -31.082031 L 10.792969 -31.082031 L 10.792969 -34.074219 C 10.792969 -35.894531 11.898438 -35.957031 13.65625 -35.957031 L 18.597656 -35.957031 L 18.597656 -43.371094 L 10.859375 -43.371094 C 6.828125 -43.371094 3.054688 -42.980469 3.054688 -37.519531 Z M 3.054688 0 "/></g></g></g><g fill="#004aad" fill-opacity="1"><g transform="translate(336.96811, 130.134621)"><g><path d="M 2.730469 -5.851562 C 2.730469 -0.390625 6.503906 0 10.535156 0 L 26.074219 0 L 26.074219 3.054688 C 26.074219 4.875 24.96875 4.941406 23.214844 4.941406 L 2.730469 4.941406 L 2.730469 12.289062 L 26.011719 12.289062 C 30.042969 12.289062 33.8125 11.898438 33.8125 6.4375 L 33.8125 -31.082031 L 26.074219 -31.082031 L 26.074219 -7.347656 L 13.332031 -7.347656 C 11.574219 -7.347656 10.46875 -7.414062 10.46875 -9.234375 L 10.46875 -31.082031 L 2.730469 -31.082031 Z M 2.730469 -5.851562 "/></g></g></g><g fill="#000000" fill-opacity="1"><g transform="translate(106.344371, 127.260797)"><g><path d="M 2.730469 -17.75 C 2.730469 -12.289062 6.503906 -11.898438 10.535156 -11.898438 L 23.214844 -11.898438 C 24.96875 -11.898438 26.074219 -11.835938 26.074219 -10.015625 L 26.074219 -9.234375 C 26.074219 -7.414062 24.96875 -7.347656 23.214844 -7.347656 L 2.730469 -7.347656 L 2.730469 0 L 26.011719 0 C 30.042969 0 33.8125 -0.390625 33.8125 -5.851562 L 33.8125 -13.394531 C 33.8125 -18.855469 29.976562 -19.246094 25.945312 -19.246094 L 13.332031 -19.246094 C 11.574219 -19.246094 10.46875 -19.3125 10.46875 -21.132812 L 10.46875 -21.847656 C 10.46875 -23.667969 11.574219 -23.734375 13.332031 -23.734375 L 33.8125 -23.734375 L 33.8125 -31.082031 L 10.535156 -31.082031 C 6.503906 -31.082031 2.730469 -30.691406 2.730469 -25.292969 Z M 2.730469 -17.75 "/></g></g></g><g fill="#000000" fill-opacity="1"><g transform="translate(142.88318, 127.260797)"><g><path d="M 10.46875 -31.082031 L 2.730469 -31.082031 L 2.730469 -5.851562 C 2.730469 -0.390625 6.503906 0 10.535156 0 L 33.8125 0 L 33.8125 -31.082031 L 26.074219 -31.082031 L 26.074219 -7.347656 L 13.332031 -7.347656 C 11.574219 -7.347656 10.46875 -7.414062 10.46875 -9.234375 Z M 10.46875 -31.082031 "/></g></g></g><g fill="#000000" fill-opacity="1"><g transform="translate(179.74707, 127.260797)"><g><path d="M 3.054688 -31.082031 L 3.054688 0 L 10.792969 0 L 10.792969 -23.734375 L 26.398438 -23.734375 L 26.398438 0 L 34.136719 0 L 34.136719 -23.734375 L 46.882812 -23.734375 C 48.640625 -23.734375 49.742188 -23.667969 49.742188 -21.847656 L 49.742188 0 L 57.480469 0 L 57.480469 -25.230469 C 57.480469 -30.691406 53.710938 -31.082031 49.679688 -31.082031 Z M 3.054688 -31.082031 "/></g></g></g><g fill="#000000" fill-opacity="1"><g transform="translate(239.951585, 127.260797)"><g><path d="M 3.054688 -31.082031 L 3.054688 0 L 10.792969 0 L 10.792969 -23.734375 L 26.398438 -23.734375 L 26.398438 0 L 34.136719 0 L 34.136719 -23.734375 L 46.882812 -23.734375 C 48.640625 -23.734375 49.742188 -23.667969 49.742188 -21.847656 L 49.742188 0 L 57.480469 0 L 57.480469 -25.230469 C 57.480469 -30.691406 53.710938 -31.082031 49.679688 -31.082031 Z M 3.054688 -31.082031 "/></g></g></g><g fill="#000000" fill-opacity="1"><g transform="translate(300.1561, 127.260797)"><g><path d="M 10.792969 -35.957031 L 10.792969 -43.371094 L 3.054688 -43.371094 L 3.054688 -35.957031 Z M 10.792969 0 L 10.792969 -31.082031 L 3.054688 -31.082031 L 3.054688 0 Z M 10.792969 0 "/></g></g></g><g fill="#000000" fill-opacity="1"><g transform="translate(314.004435, 127.260797)"><g><path d="M 3.054688 0 L 10.792969 0 L 10.792969 -23.734375 L 18.597656 -23.734375 L 18.597656 -31.082031 L 10.792969 -31.082031 L 10.792969 -34.074219 C 10.792969 -35.894531 11.898438 -35.957031 13.65625 -35.957031 L 18.597656 -35.957031 L 18.597656 -43.371094 L 10.859375 -43.371094 C 6.828125 -43.371094 3.054688 -42.980469 3.054688 -37.519531 Z M 3.054688 0 "/></g></g></g><g fill="#000000" fill-opacity="1"><g transform="translate(334.094286, 127.260797)"><g><path d="M 2.730469 -5.851562 C 2.730469 -0.390625 6.503906 0 10.535156 0 L 26.074219 0 L 26.074219 3.054688 C 26.074219 4.875 24.96875 4.941406 23.214844 4.941406 L 2.730469 4.941406 L 2.730469 12.289062 L 26.011719 12.289062 C 30.042969 12.289062 33.8125 11.898438 33.8125 6.4375 L 33.8125 -31.082031 L 26.074219 -31.082031 L 26.074219 -7.347656 L 13.332031 -7.347656 C 11.574219 -7.347656 10.46875 -7.414062 10.46875 -9.234375 L 10.46875 -31.082031 L 2.730469 -31.082031 Z M 2.730469 -5.851562 "/></g></g></g></svg>