<svg xmlns="http://www.w3.org/2000/svg" xmlns:xlink="http://www.w3.org/1999/xlink" width="500" zoomAndPan="magnify" viewBox="0 0 375 225" height="300" preserveAspectRatio="xMidYMid meet" version="1.0"><defs><g/><clipPath id="75ea3c5f7a"><path d="M 22 122.234375 L 110 122.234375 L 110 123 L 22 123 Z M 22 122.234375 " clip-rule="nonzero"/></clipPath><clipPath id="9b8e441b38"><path d="M 0 125 L 133.128906 125 L 133.128906 155.167969 L 0 155.167969 Z M 0 125 " clip-rule="nonzero"/></clipPath><clipPath id="7f3fb9194f"><path d="M 25.429688 37.484375 L 65 37.484375 L 65 119.84375 L 25.429688 119.84375 Z M 25.429688 37.484375 " clip-rule="nonzero"/></clipPath><clipPath id="89bda8fde5"><path d="M 67 37.484375 L 107 37.484375 L 107 119.84375 L 67 119.84375 Z M 67 37.484375 " clip-rule="nonzero"/></clipPath></defs><g clip-path="url(#75ea3c5f7a)"><path fill="#004aad" d="M 106.878906 94.195312 C 108.839844 88.957031 109.800781 83.542969 109.761719 77.949219 C 109.773438 74.503906 109.402344 71.097656 108.648438 67.734375 C 109.203125 66.230469 109.480469 64.671875 109.476562 63.066406 C 109.480469 62.378906 109.429688 61.695312 109.328125 61.011719 C 109.226562 60.332031 109.074219 59.660156 108.871094 59.003906 C 108.664062 58.347656 108.414062 57.707031 108.113281 57.085938 C 107.8125 56.46875 107.464844 55.875 107.074219 55.308594 C 106.679688 54.742188 106.25 54.207031 105.777344 53.707031 C 105.304688 53.207031 104.796875 52.742188 104.253906 52.320312 C 103.710938 51.894531 103.136719 51.515625 102.535156 51.179688 C 101.933594 50.84375 101.3125 50.554688 100.667969 50.3125 C 100.753906 49.699219 100.796875 49.082031 100.796875 48.460938 C 100.796875 41.976562 96.070312 36.703125 90.265625 36.703125 C 88.847656 36.703125 87.496094 37.007812 86.214844 37.617188 L 86.203125 37.617188 C 83.414062 36.101562 80.488281 34.917969 77.429688 34.066406 C 76.90625 33.921875 76.375 33.824219 75.835938 33.765625 C 75.300781 33.710938 74.761719 33.703125 74.21875 33.738281 C 73.679688 33.773438 73.144531 33.851562 72.617188 33.976562 C 72.09375 34.101562 71.578125 34.269531 71.078125 34.476562 C 70.582031 34.6875 70.101562 34.9375 69.644531 35.230469 C 69.1875 35.519531 68.757812 35.84375 68.355469 36.207031 C 67.953125 36.570312 67.585938 36.960938 67.246094 37.386719 C 66.910156 37.808594 66.613281 38.257812 66.351562 38.734375 C 66.089844 38.257812 65.789062 37.808594 65.453125 37.386719 C 65.117188 36.960938 64.746094 36.570312 64.34375 36.207031 C 63.941406 35.84375 63.511719 35.519531 63.054688 35.230469 C 62.597656 34.9375 62.117188 34.6875 61.621094 34.476562 C 61.121094 34.269531 60.609375 34.101562 60.082031 33.976562 C 59.554688 33.851562 59.019531 33.773438 58.480469 33.738281 C 57.941406 33.703125 57.398438 33.710938 56.863281 33.765625 C 56.324219 33.824219 55.792969 33.921875 55.269531 34.066406 C 52.214844 34.914062 49.296875 36.09375 46.507812 37.605469 C 45.214844 37.003906 43.859375 36.703125 42.433594 36.703125 C 36.628906 36.703125 31.902344 41.976562 31.902344 48.460938 C 31.902344 49.085938 31.949219 49.707031 32.042969 50.324219 C 31.398438 50.566406 30.773438 50.851562 30.171875 51.1875 C 29.570312 51.523438 29 51.902344 28.453125 52.324219 C 27.910156 52.746094 27.402344 53.207031 26.925781 53.707031 C 26.453125 54.207031 26.019531 54.742188 25.628906 55.308594 C 25.238281 55.875 24.890625 56.46875 24.589844 57.085938 C 24.285156 57.707031 24.035156 58.34375 23.828125 59.003906 C 23.625 59.660156 23.472656 60.332031 23.371094 61.011719 C 23.269531 61.695312 23.21875 62.378906 23.222656 63.066406 C 23.214844 64.691406 23.496094 66.261719 24.066406 67.78125 C 23.375 71.136719 22.996094 74.523438 22.9375 77.949219 C 22.929688 83.535156 23.890625 88.953125 25.820312 94.195312 C 25.371094 96.363281 25.492188 98.503906 26.179688 100.609375 C 26.484375 101.636719 26.921875 102.601562 27.492188 103.507812 C 28.066406 104.414062 28.746094 105.230469 29.539062 105.949219 C 30.332031 106.667969 31.207031 107.269531 32.164062 107.75 C 33.125 108.230469 34.128906 108.574219 35.179688 108.78125 C 34.773438 113.742188 39.476562 118.804688 44.761719 118.804688 C 45.507812 118.808594 46.246094 118.71875 46.96875 118.542969 C 49.609375 119.957031 52.378906 121.054688 55.269531 121.832031 C 56.125 122.066406 56.996094 122.183594 57.882812 122.1875 C 58.75 122.1875 59.597656 122.070312 60.433594 121.84375 C 61.269531 121.613281 62.058594 121.277344 62.804688 120.835938 C 63.546875 120.394531 64.222656 119.859375 64.824219 119.238281 C 65.425781 118.613281 65.933594 117.925781 66.351562 117.164062 C 66.765625 117.925781 67.273438 118.613281 67.875 119.238281 C 68.476562 119.859375 69.152344 120.394531 69.894531 120.835938 C 70.640625 121.277344 71.429688 121.613281 72.265625 121.84375 C 73.101562 122.070312 73.949219 122.1875 74.816406 122.1875 C 75.703125 122.191406 76.574219 122.074219 77.429688 121.832031 C 80.316406 121.035156 83.085938 119.941406 85.742188 118.554688 C 86.464844 118.722656 87.195312 118.804688 87.9375 118.804688 C 88.59375 118.824219 89.242188 118.78125 89.886719 118.664062 C 90.53125 118.550781 91.15625 118.371094 91.761719 118.121094 C 92.367188 117.875 92.941406 117.566406 93.484375 117.199219 C 94.023438 116.832031 94.519531 116.410156 94.972656 115.9375 C 95.425781 115.464844 95.824219 114.949219 96.167969 114.390625 C 96.511719 113.835938 96.792969 113.246094 97.011719 112.632812 C 97.230469 112.015625 97.382812 111.382812 97.46875 110.730469 C 97.554688 110.082031 97.570312 109.433594 97.519531 108.78125 C 98.574219 108.578125 99.578125 108.238281 100.539062 107.757812 C 101.5 107.28125 102.375 106.679688 103.167969 105.960938 C 103.960938 105.238281 104.644531 104.421875 105.214844 103.515625 C 105.78125 102.605469 106.21875 101.636719 106.519531 100.609375 C 107.207031 98.507812 107.328125 96.371094 106.878906 94.207031 Z M 65.164062 58.472656 C 64.996094 58.84375 64.804688 59.207031 64.589844 59.554688 C 64.375 59.902344 64.136719 60.238281 63.878906 60.554688 C 63.617188 60.871094 63.339844 61.171875 63.042969 61.453125 C 62.746094 61.734375 62.429688 61.992188 62.097656 62.234375 C 61.765625 62.472656 61.417969 62.691406 61.058594 62.882812 C 60.699219 63.078125 60.328125 63.25 59.945312 63.394531 C 59.5625 63.539062 59.171875 63.660156 58.773438 63.753906 C 58.375 63.847656 57.972656 63.917969 57.5625 63.957031 C 57.15625 64 56.75 64.015625 56.339844 64.003906 C 55.929688 63.992188 55.523438 63.953125 55.117188 63.886719 C 54.714844 63.824219 54.316406 63.730469 53.921875 63.613281 C 53.53125 63.496094 53.148438 63.355469 52.773438 63.1875 C 52.402344 63.019531 52.039062 62.828125 51.691406 62.613281 C 51.34375 62.398438 51.011719 62.160156 50.691406 61.902344 C 50.375 61.644531 50.074219 61.363281 49.792969 61.066406 C 49.511719 60.769531 49.253906 60.453125 49.011719 60.121094 C 48.921875 59.996094 48.808594 59.890625 48.671875 59.804688 C 48.539062 59.722656 48.394531 59.667969 48.238281 59.644531 C 48.082031 59.617188 47.925781 59.621094 47.773438 59.660156 C 47.621094 59.695312 47.480469 59.757812 47.351562 59.847656 C 47.222656 59.941406 47.117188 60.054688 47.035156 60.191406 C 46.953125 60.324219 46.898438 60.46875 46.875 60.625 C 46.851562 60.78125 46.855469 60.9375 46.894531 61.089844 C 46.929688 61.246094 46.996094 61.382812 47.089844 61.511719 C 48.367188 63.292969 50.019531 64.609375 52.039062 65.457031 C 53.476562 66.0625 54.976562 66.371094 56.535156 66.382812 C 58.09375 66.390625 59.597656 66.101562 61.042969 65.515625 C 62.625 64.875 63.996094 63.933594 65.164062 62.6875 L 65.164062 112.53125 C 65.160156 113.09375 65.097656 113.648438 64.96875 114.199219 C 64.835938 114.746094 64.648438 115.269531 64.398438 115.773438 C 64.144531 116.277344 63.839844 116.746094 63.480469 117.179688 C 63.125 117.613281 62.71875 118 62.269531 118.339844 C 61.824219 118.679688 61.339844 118.960938 60.828125 119.191406 C 60.3125 119.417969 59.78125 119.585938 59.226562 119.691406 C 58.675781 119.796875 58.117188 119.835938 57.554688 119.8125 C 56.992188 119.789062 56.441406 119.703125 55.898438 119.550781 C 53.832031 118.980469 51.828125 118.242188 49.878906 117.34375 C 51.382812 116.386719 52.535156 115.109375 53.335938 113.519531 C 53.40625 113.378906 53.445312 113.230469 53.457031 113.074219 C 53.46875 112.917969 53.453125 112.765625 53.402344 112.613281 C 53.351562 112.464844 53.277344 112.332031 53.175781 112.210938 C 53.074219 112.09375 52.953125 112 52.8125 111.925781 C 52.671875 111.855469 52.523438 111.8125 52.363281 111.800781 C 52.207031 111.789062 52.054688 111.808594 51.902344 111.859375 C 51.753906 111.90625 51.617188 111.980469 51.496094 112.085938 C 51.378906 112.1875 51.28125 112.308594 51.210938 112.449219 C 50.988281 112.894531 50.722656 113.308594 50.410156 113.695312 C 50.101562 114.085938 49.757812 114.4375 49.375 114.753906 C 48.996094 115.074219 48.585938 115.347656 48.144531 115.582031 C 47.707031 115.8125 47.25 116 46.773438 116.136719 C 46.296875 116.273438 45.8125 116.363281 45.316406 116.402344 C 44.824219 116.441406 44.328125 116.425781 43.835938 116.363281 C 43.34375 116.300781 42.863281 116.1875 42.394531 116.023438 C 41.925781 115.859375 41.480469 115.652344 41.054688 115.398438 C 40.628906 115.140625 40.234375 114.847656 39.867188 114.507812 C 39.503906 114.171875 39.175781 113.800781 38.890625 113.398438 C 38.601562 112.996094 38.355469 112.566406 38.15625 112.113281 C 37.957031 111.65625 37.804688 111.1875 37.703125 110.703125 C 37.601562 110.214844 37.546875 109.726562 37.546875 109.230469 C 37.542969 108.734375 37.59375 108.242188 37.691406 107.753906 C 37.792969 107.269531 37.941406 106.796875 38.136719 106.34375 C 38.332031 105.886719 38.574219 105.457031 38.859375 105.050781 C 38.949219 104.921875 39.015625 104.78125 39.046875 104.625 C 39.082031 104.472656 39.085938 104.316406 39.058594 104.160156 C 39.035156 104.003906 38.976562 103.859375 38.894531 103.726562 C 38.808594 103.59375 38.703125 103.480469 38.574219 103.386719 C 38.445312 103.296875 38.304688 103.234375 38.152344 103.203125 C 38 103.167969 37.847656 103.164062 37.691406 103.191406 C 37.535156 103.214844 37.394531 103.273438 37.261719 103.355469 C 37.128906 103.4375 37.015625 103.546875 36.925781 103.671875 C 36.320312 104.519531 35.875 105.441406 35.582031 106.441406 C 34.746094 106.273438 33.945312 105.992188 33.183594 105.605469 C 32.425781 105.21875 31.730469 104.734375 31.101562 104.160156 C 30.472656 103.582031 29.929688 102.929688 29.480469 102.203125 C 29.03125 101.476562 28.683594 100.703125 28.445312 99.882812 C 26.890625 95.050781 29.039062 90.015625 33.230469 88.660156 C 33.390625 88.621094 33.535156 88.550781 33.667969 88.453125 C 33.796875 88.351562 33.902344 88.230469 33.984375 88.085938 C 34.0625 87.941406 34.109375 87.789062 34.125 87.625 C 34.144531 87.460938 34.125 87.300781 34.074219 87.144531 C 34.027344 86.988281 33.945312 86.847656 33.835938 86.726562 C 33.730469 86.601562 33.601562 86.503906 33.453125 86.433594 C 33.304688 86.363281 33.148438 86.328125 32.984375 86.320312 C 32.820312 86.316406 32.660156 86.34375 32.507812 86.40625 C 31.378906 86.777344 30.355469 87.335938 29.433594 88.085938 C 28.515625 88.835938 27.757812 89.722656 27.164062 90.75 C 25.925781 86.574219 25.308594 82.304688 25.3125 77.949219 C 25.308594 75.652344 25.488281 73.367188 25.847656 71.097656 C 26.78125 72.386719 27.910156 73.472656 29.230469 74.363281 C 29.359375 74.453125 29.5 74.519531 29.652344 74.550781 C 29.808594 74.585938 29.964844 74.585938 30.117188 74.554688 C 30.273438 74.527344 30.417969 74.464844 30.546875 74.375 C 30.675781 74.289062 30.785156 74.175781 30.867188 74.042969 C 30.957031 73.914062 31.015625 73.773438 31.050781 73.617188 C 31.082031 73.464844 31.082031 73.3125 31.054688 73.15625 C 31.023438 73.003906 30.96875 72.863281 30.882812 72.730469 C 30.796875 72.601562 30.6875 72.492188 30.558594 72.402344 C 29.714844 71.832031 28.960938 71.160156 28.296875 70.382812 C 27.636719 69.609375 27.089844 68.761719 26.65625 67.835938 C 26.226562 66.914062 25.925781 65.949219 25.753906 64.941406 C 25.585938 63.9375 25.550781 62.925781 25.65625 61.914062 C 25.757812 60.898438 25.996094 59.917969 26.367188 58.96875 C 26.738281 58.015625 27.230469 57.132812 27.839844 56.316406 C 28.449219 55.5 29.160156 54.78125 29.964844 54.15625 C 30.773438 53.53125 31.648438 53.027344 32.589844 52.640625 C 33.15625 54.324219 34.050781 55.808594 35.273438 57.09375 C 35.378906 57.214844 35.507812 57.308594 35.652344 57.375 C 35.796875 57.441406 35.953125 57.476562 36.113281 57.476562 C 36.273438 57.480469 36.425781 57.449219 36.574219 57.386719 C 36.722656 57.324219 36.851562 57.234375 36.960938 57.117188 C 37.074219 57.007812 37.164062 56.878906 37.226562 56.734375 C 37.289062 56.589844 37.320312 56.4375 37.324219 56.28125 C 37.324219 56.121094 37.296875 55.96875 37.238281 55.820312 C 37.179688 55.675781 37.09375 55.542969 36.984375 55.429688 C 36.101562 54.488281 35.425781 53.414062 34.957031 52.207031 C 34.488281 51 34.261719 49.753906 34.277344 48.460938 C 34.277344 43.28125 37.933594 39.078125 42.433594 39.078125 C 43.15625 39.09375 43.867188 39.210938 44.558594 39.421875 C 45.25 39.632812 45.902344 39.933594 46.511719 40.324219 C 47.121094 40.710938 47.667969 41.175781 48.152344 41.714844 C 48.632812 42.253906 49.035156 42.847656 49.355469 43.496094 C 49.433594 43.632812 49.53125 43.753906 49.65625 43.851562 C 49.777344 43.953125 49.914062 44.023438 50.066406 44.070312 C 50.21875 44.113281 50.371094 44.128906 50.527344 44.109375 C 50.6875 44.09375 50.832031 44.046875 50.972656 43.972656 C 51.113281 43.898438 51.230469 43.800781 51.332031 43.679688 C 51.429688 43.554688 51.503906 43.421875 51.546875 43.269531 C 51.59375 43.117188 51.605469 42.964844 51.589844 42.808594 C 51.570312 42.652344 51.523438 42.503906 51.445312 42.367188 C 50.78125 41.101562 49.902344 40.003906 48.8125 39.078125 C 51.085938 37.941406 53.449219 37.035156 55.898438 36.359375 C 57.003906 36.050781 58.121094 36.003906 59.246094 36.222656 C 60.371094 36.441406 61.390625 36.898438 62.300781 37.59375 C 63.207031 38.277344 63.910156 39.128906 64.414062 40.148438 C 64.917969 41.164062 65.167969 42.242188 65.164062 43.378906 Z M 105.523438 90.738281 C 104.933594 89.710938 104.179688 88.824219 103.261719 88.078125 C 102.339844 87.332031 101.316406 86.773438 100.191406 86.40625 C 100.039062 86.34375 99.878906 86.316406 99.714844 86.320312 C 99.550781 86.328125 99.394531 86.363281 99.246094 86.433594 C 99.097656 86.503906 98.96875 86.601562 98.863281 86.726562 C 98.753906 86.847656 98.675781 86.988281 98.625 87.144531 C 98.574219 87.300781 98.554688 87.460938 98.574219 87.625 C 98.589844 87.789062 98.636719 87.941406 98.71875 88.085938 C 98.796875 88.230469 98.902344 88.351562 99.03125 88.453125 C 99.164062 88.550781 99.308594 88.621094 99.46875 88.660156 C 103.660156 90.015625 105.808594 95.050781 104.253906 99.882812 C 104.019531 100.707031 103.675781 101.480469 103.230469 102.210938 C 102.78125 102.9375 102.242188 103.589844 101.609375 104.171875 C 100.980469 104.75 100.285156 105.230469 99.519531 105.617188 C 98.757812 106.003906 97.957031 106.277344 97.117188 106.441406 C 96.824219 105.441406 96.378906 104.519531 95.773438 103.671875 C 95.683594 103.546875 95.570312 103.4375 95.441406 103.355469 C 95.308594 103.273438 95.164062 103.214844 95.007812 103.191406 C 94.855469 103.164062 94.699219 103.167969 94.546875 103.203125 C 94.394531 103.234375 94.253906 103.296875 94.125 103.386719 C 93.996094 103.480469 93.890625 103.59375 93.804688 103.726562 C 93.722656 103.859375 93.664062 104.003906 93.640625 104.160156 C 93.613281 104.316406 93.617188 104.472656 93.652344 104.625 C 93.6875 104.78125 93.75 104.921875 93.839844 105.050781 C 94.722656 106.296875 95.160156 107.679688 95.15625 109.207031 C 95.15625 110.019531 95.023438 110.808594 94.757812 111.578125 C 94.492188 112.347656 94.105469 113.046875 93.601562 113.6875 C 93.097656 114.324219 92.503906 114.859375 91.820312 115.296875 C 91.132812 115.734375 90.394531 116.046875 89.605469 116.234375 C 88.816406 116.421875 88.015625 116.476562 87.207031 116.390625 C 86.398438 116.308594 85.625 116.097656 84.890625 115.753906 C 84.152344 115.410156 83.492188 114.953125 82.910156 114.386719 C 82.328125 113.820312 81.855469 113.175781 81.488281 112.449219 C 81.417969 112.308594 81.324219 112.1875 81.203125 112.082031 C 81.085938 111.980469 80.949219 111.90625 80.800781 111.855469 C 80.652344 111.804688 80.496094 111.785156 80.339844 111.796875 C 80.183594 111.808594 80.035156 111.851562 79.894531 111.921875 C 79.753906 111.992188 79.628906 112.089844 79.527344 112.207031 C 79.425781 112.328125 79.347656 112.460938 79.296875 112.609375 C 79.25 112.761719 79.230469 112.914062 79.242188 113.070312 C 79.253906 113.226562 79.292969 113.378906 79.363281 113.519531 C 80.164062 115.109375 81.316406 116.386719 82.820312 117.34375 C 80.871094 118.238281 78.863281 118.972656 76.800781 119.550781 C 76.257812 119.703125 75.707031 119.789062 75.144531 119.8125 C 74.582031 119.832031 74.027344 119.792969 73.472656 119.6875 C 72.921875 119.582031 72.386719 119.414062 71.875 119.183594 C 71.363281 118.957031 70.878906 118.671875 70.433594 118.332031 C 69.984375 117.992188 69.582031 117.609375 69.222656 117.175781 C 68.863281 116.742188 68.558594 116.273438 68.308594 115.773438 C 68.054688 115.269531 67.863281 114.742188 67.734375 114.195312 C 67.605469 113.648438 67.539062 113.09375 67.539062 112.53125 L 67.539062 62.6875 C 68.652344 63.863281 69.957031 64.773438 71.445312 65.414062 C 72.933594 66.054688 74.488281 66.378906 76.109375 66.382812 C 77.039062 66.378906 77.953125 66.269531 78.855469 66.050781 C 79.757812 65.832031 80.625 65.507812 81.449219 65.085938 C 82.277344 64.664062 83.042969 64.148438 83.746094 63.546875 C 84.453125 62.941406 85.078125 62.265625 85.621094 61.511719 C 85.714844 61.382812 85.777344 61.246094 85.8125 61.089844 C 85.847656 60.9375 85.855469 60.785156 85.828125 60.628906 C 85.804688 60.476562 85.75 60.332031 85.664062 60.199219 C 85.582031 60.066406 85.476562 59.953125 85.347656 59.863281 C 85.222656 59.765625 85.082031 59.703125 84.929688 59.664062 C 84.777344 59.625 84.625 59.621094 84.46875 59.644531 C 84.3125 59.667969 84.167969 59.722656 84.035156 59.804688 C 83.902344 59.886719 83.789062 59.996094 83.699219 60.121094 C 83.457031 60.453125 83.195312 60.769531 82.914062 61.066406 C 82.632812 61.363281 82.335938 61.640625 82.015625 61.902344 C 81.699219 62.160156 81.367188 62.394531 81.015625 62.609375 C 80.667969 62.824219 80.304688 63.015625 79.933594 63.183594 C 79.558594 63.351562 79.175781 63.492188 78.785156 63.609375 C 78.390625 63.726562 77.992188 63.820312 77.589844 63.882812 C 77.183594 63.949219 76.777344 63.988281 76.367188 64 C 75.957031 64.011719 75.550781 63.996094 75.140625 63.953125 C 74.734375 63.914062 74.332031 63.84375 73.933594 63.75 C 73.535156 63.65625 73.144531 63.535156 72.761719 63.390625 C 72.378906 63.246094 72.007812 63.074219 71.644531 62.882812 C 71.285156 62.6875 70.9375 62.46875 70.605469 62.230469 C 70.273438 61.992188 69.957031 61.730469 69.660156 61.449219 C 69.363281 61.167969 69.082031 60.871094 68.824219 60.554688 C 68.566406 60.234375 68.328125 59.902344 68.113281 59.554688 C 67.898438 59.207031 67.707031 58.84375 67.539062 58.472656 L 67.539062 43.378906 C 67.53125 42.242188 67.785156 41.164062 68.289062 40.144531 C 68.796875 39.125 69.503906 38.277344 70.410156 37.59375 C 71.320312 36.898438 72.335938 36.441406 73.460938 36.222656 C 74.582031 36.003906 75.695312 36.050781 76.800781 36.359375 C 79.253906 37.039062 81.621094 37.949219 83.898438 39.089844 C 82.679688 40.128906 81.722656 41.367188 81.027344 42.808594 C 80.941406 42.949219 80.890625 43.101562 80.871094 43.265625 C 80.851562 43.429688 80.867188 43.589844 80.914062 43.75 C 80.960938 43.90625 81.039062 44.050781 81.144531 44.175781 C 81.25 44.300781 81.378906 44.402344 81.527344 44.472656 C 81.675781 44.546875 81.832031 44.585938 81.996094 44.59375 C 82.160156 44.601562 82.320312 44.574219 82.476562 44.515625 C 82.628906 44.457031 82.765625 44.371094 82.882812 44.253906 C 83 44.140625 83.089844 44.003906 83.152344 43.851562 C 83.460938 43.160156 83.859375 42.523438 84.347656 41.945312 C 84.835938 41.367188 85.394531 40.867188 86.023438 40.445312 C 86.652344 40.023438 87.328125 39.695312 88.046875 39.460938 C 88.769531 39.230469 89.507812 39.101562 90.265625 39.078125 C 94.765625 39.078125 98.421875 43.28125 98.421875 48.460938 C 98.4375 49.753906 98.210938 51 97.742188 52.207031 C 97.273438 53.414062 96.597656 54.488281 95.714844 55.429688 C 95.605469 55.546875 95.523438 55.675781 95.464844 55.824219 C 95.410156 55.96875 95.382812 56.121094 95.382812 56.28125 C 95.386719 56.4375 95.417969 56.589844 95.480469 56.734375 C 95.539062 56.878906 95.628906 57.007812 95.738281 57.117188 C 95.992188 57.304688 96.273438 57.394531 96.585938 57.390625 C 96.898438 57.386719 97.179688 57.289062 97.425781 57.09375 C 98.648438 55.808594 99.542969 54.324219 100.109375 52.640625 C 101.050781 53.027344 101.925781 53.53125 102.730469 54.15625 C 103.539062 54.78125 104.246094 55.5 104.855469 56.316406 C 105.46875 57.132812 105.957031 58.015625 106.328125 58.964844 C 106.699219 59.914062 106.9375 60.898438 107.042969 61.910156 C 107.148438 62.925781 107.117188 63.933594 106.945312 64.9375 C 106.777344 65.945312 106.476562 66.910156 106.046875 67.832031 C 105.617188 68.757812 105.070312 69.605469 104.410156 70.382812 C 103.746094 71.15625 102.996094 71.832031 102.152344 72.402344 C 102.023438 72.492188 101.917969 72.601562 101.835938 72.734375 C 101.75 72.863281 101.691406 73.003906 101.664062 73.15625 C 101.632812 73.3125 101.632812 73.464844 101.660156 73.617188 C 101.691406 73.769531 101.746094 73.910156 101.832031 74.042969 C 102.019531 74.300781 102.273438 74.460938 102.585938 74.519531 C 102.902344 74.582031 103.195312 74.53125 103.46875 74.363281 C 104.792969 73.472656 105.925781 72.382812 106.867188 71.097656 C 107.210938 73.367188 107.386719 75.652344 107.386719 77.949219 C 107.398438 82.304688 106.777344 86.566406 105.523438 90.738281 Z M 105.523438 90.738281 " fill-opacity="1" fill-rule="nonzero"/></g><g clip-path="url(#9b8e441b38)"><path fill="#004aad" d="M 130.09375 140.0625 L 129.238281 139.992188 L 129.238281 135.667969 C 129.234375 135.089844 129.132812 134.535156 128.929688 133.996094 C 128.726562 133.457031 128.433594 132.96875 128.054688 132.535156 C 127.675781 132.101562 127.230469 131.75 126.722656 131.476562 C 126.214844 131.203125 125.675781 131.03125 125.105469 130.953125 L 87.617188 126.058594 C 86.660156 125.933594 85.71875 126.003906 84.789062 126.261719 L 67.894531 130.953125 C 67.046875 131.195312 66.199219 131.195312 65.351562 130.953125 L 48.347656 126.25 C 47.417969 125.996094 46.476562 125.929688 45.523438 126.058594 L 8.140625 130.953125 C 7.570312 131.03125 7.03125 131.203125 6.523438 131.476562 C 6.015625 131.75 5.570312 132.101562 5.191406 132.535156 C 4.8125 132.96875 4.519531 133.457031 4.316406 133.996094 C 4.113281 134.535156 4.011719 135.089844 4.007812 135.667969 L 4.007812 139.992188 L 3.152344 140.0625 C 2.730469 140.101562 2.332031 140.210938 1.953125 140.398438 C 1.570312 140.585938 1.238281 140.835938 0.953125 141.148438 C 0.664062 141.460938 0.445312 141.8125 0.289062 142.207031 C 0.136719 142.601562 0.0546875 143.011719 0.0546875 143.433594 L 0.0546875 148.054688 C 0.0507812 149.019531 0.402344 149.835938 1.097656 150.5 C 1.785156 151.175781 2.609375 151.488281 3.570312 151.4375 L 55.53125 149.382812 C 55.898438 149.382812 56.191406 149.527344 56.410156 149.824219 L 58.300781 152.664062 C 58.816406 153.4375 59.484375 154.046875 60.300781 154.488281 C 61.121094 154.929688 62 155.152344 62.929688 155.15625 L 70.234375 155.167969 L 70.257812 155.167969 C 71.1875 155.167969 72.066406 154.949219 72.890625 154.507812 C 73.710938 154.070312 74.382812 153.460938 74.898438 152.6875 L 76.800781 149.824219 C 77.011719 149.519531 77.304688 149.371094 77.679688 149.382812 L 129.675781 151.4375 C 130.636719 151.488281 131.460938 151.175781 132.148438 150.5 C 132.84375 149.835938 133.195312 149.019531 133.191406 148.054688 L 133.191406 143.433594 C 133.1875 143.011719 133.109375 142.601562 132.957031 142.207031 C 132.800781 141.8125 132.582031 141.460938 132.292969 141.148438 C 132.007812 140.835938 131.675781 140.585938 131.292969 140.398438 C 130.914062 140.210938 130.515625 140.101562 130.09375 140.0625 Z M 6.382812 135.667969 C 6.382812 135.378906 6.433594 135.101562 6.535156 134.832031 C 6.636719 134.5625 6.785156 134.320312 6.972656 134.101562 C 7.164062 133.886719 7.386719 133.710938 7.640625 133.574219 C 7.894531 133.441406 8.164062 133.355469 8.449219 133.316406 L 45.832031 128.410156 C 46.464844 128.328125 47.089844 128.371094 47.707031 128.542969 L 64.722656 133.246094 C 65.988281 133.597656 67.257812 133.597656 68.523438 133.246094 L 85.421875 128.542969 C 86.039062 128.371094 86.671875 128.328125 87.308594 128.410156 L 124.796875 133.316406 C 125.082031 133.355469 125.351562 133.441406 125.605469 133.574219 C 125.859375 133.710938 126.082031 133.886719 126.269531 134.101562 C 126.460938 134.320312 126.605469 134.5625 126.710938 134.832031 C 126.8125 135.101562 126.863281 135.378906 126.863281 135.667969 L 126.863281 139.644531 C 119.394531 139.300781 80.421875 137.519531 66.621094 137.519531 C 52.824219 137.519531 13.851562 139.300781 6.382812 139.644531 Z M 130.816406 148.054688 C 130.816406 148.191406 130.789062 148.324219 130.734375 148.453125 C 130.679688 148.578125 130.601562 148.6875 130.503906 148.785156 C 130.402344 148.878906 130.289062 148.949219 130.160156 149 C 130.03125 149.046875 129.898438 149.070312 129.757812 149.0625 L 77.773438 147.007812 C 77.183594 146.984375 76.625 147.105469 76.101562 147.375 C 75.578125 147.644531 75.152344 148.023438 74.828125 148.519531 L 72.917969 151.367188 C 72.621094 151.8125 72.238281 152.160156 71.765625 152.414062 C 71.292969 152.667969 70.792969 152.792969 70.257812 152.792969 L 70.246094 152.792969 L 62.929688 152.78125 C 62.394531 152.777344 61.890625 152.648438 61.421875 152.390625 C 60.953125 152.136719 60.566406 151.789062 60.269531 151.34375 L 58.382812 148.519531 C 58.054688 148.027344 57.628906 147.648438 57.105469 147.378906 C 56.582031 147.109375 56.027344 146.988281 55.4375 147.007812 L 3.484375 149.0625 C 3.195312 149.082031 2.945312 148.988281 2.738281 148.777344 C 2.53125 148.582031 2.425781 148.339844 2.429688 148.054688 L 2.429688 143.433594 C 2.429688 143.171875 2.519531 142.945312 2.699219 142.75 C 2.875 142.558594 3.09375 142.449219 3.355469 142.425781 C 3.355469 142.425781 54.453125 139.894531 66.621094 139.894531 C 78.792969 139.894531 129.890625 142.425781 129.890625 142.425781 C 130.152344 142.449219 130.371094 142.558594 130.546875 142.75 C 130.726562 142.945312 130.816406 143.171875 130.816406 143.433594 Z M 130.816406 148.054688 " fill-opacity="1" fill-rule="nonzero"/></g><g clip-path="url(#7f3fb9194f)"><path fill="#004aad" d="M 64.375 47.492188 C 64.375 40.417969 57.628906 37.484375 54.019531 37.484375 C 51.851562 37.484375 47.542969 38.945312 45.1875 42.082031 C 44.027344 43.625 43.507812 45.375 43.644531 47.230469 C 41.496094 46.917969 38.003906 46.839844 35.878906 50.253906 C 34.347656 52.710938 34.191406 54.734375 34.355469 56.054688 C 32.125 56.328125 28.144531 57.421875 26.609375 61.675781 C 25.453125 64.871094 25.65625 68.167969 26.636719 70.792969 C 26.636719 70.796875 26.636719 70.804688 26.640625 70.808594 C 26.859375 71.546875 27.25 72.34375 27.816406 73.121094 C 27.824219 73.128906 27.832031 73.140625 27.839844 73.152344 C 27.882812 73.207031 27.917969 73.261719 27.960938 73.316406 C 28.195312 73.640625 28.4375 73.945312 28.699219 74.214844 C 27.683594 75.039062 27.105469 76.226562 26.96875 78.40625 C 26.816406 80.859375 27.878906 83.8125 29.734375 85.332031 C 28.46875 86.625 27.355469 88.566406 27.628906 92.652344 C 27.878906 95.171875 29.289062 97.722656 31.308594 99.320312 C 32.371094 100.160156 33.550781 100.667969 34.75 100.855469 C 34.828125 100.878906 34.90625 100.898438 34.992188 100.90625 C 35.019531 100.910156 35.054688 100.910156 35.082031 100.910156 C 35.117188 100.914062 35.152344 100.925781 35.183594 100.929688 C 35.390625 102.109375 36.042969 103.429688 36.804688 104.417969 C 38.058594 106.042969 39.667969 106.980469 41.414062 107.132812 C 41.925781 109.136719 43.078125 112.144531 46.464844 112.550781 C 46.726562 114.453125 47.386719 116.027344 48.441406 117.253906 C 49.753906 118.78125 51.628906 119.667969 53.855469 119.820312 C 54.082031 119.835938 54.304688 119.84375 54.53125 119.84375 C 57.195312 119.84375 59.945312 118.785156 61.847656 117 C 63.488281 115.460938 64.382812 113.476562 64.371094 111.421875 L 64.371094 67.402344 C 64.371094 67.398438 64.371094 67.398438 64.371094 67.398438 L 64.371094 47.609375 C 64.371094 47.570312 64.375 47.53125 64.375 47.492188 Z M 61.996094 64.523438 C 61.011719 63.953125 59.816406 63.527344 58.578125 63.359375 C 55.234375 62.914062 52.386719 64.4375 50.742188 67.585938 C 48.859375 71.550781 50.347656 74.535156 51.402344 75.964844 C 52.773438 77.816406 54.859375 79.050781 56.539062 79.050781 C 56.695312 79.050781 56.84375 79.039062 56.992188 79.019531 C 57.640625 78.925781 58.089844 78.324219 57.996094 77.671875 C 57.902344 77.023438 57.296875 76.570312 56.648438 76.667969 C 56.078125 76.753906 54.46875 76.117188 53.3125 74.554688 C 52.410156 73.332031 51.605469 71.308594 52.867188 68.644531 C 54.300781 65.910156 56.488281 65.527344 58.070312 65.691406 C 60.285156 65.917969 61.792969 67.164062 61.996094 67.621094 L 61.996094 111.429688 C 62.007812 113.214844 61.039062 114.503906 60.222656 115.269531 C 58.625 116.769531 56.246094 117.601562 54.019531 117.453125 C 52.917969 117.378906 51.367188 117.011719 50.238281 115.703125 C 49.042969 114.316406 48.53125 112.089844 48.753906 109.324219 C 48.914062 108.054688 50.5 105.535156 52.617188 104.476562 C 53.832031 103.871094 54.992188 103.871094 56.0625 104.480469 C 56.632812 104.804688 57.359375 104.605469 57.683594 104.035156 C 58.007812 103.464844 57.808594 102.742188 57.238281 102.417969 C 55.457031 101.40625 53.492188 101.386719 51.554688 102.355469 C 51.511719 102.375 51.472656 102.40625 51.429688 102.425781 C 50.917969 101.902344 50.148438 101.542969 49.1875 101.433594 C 47.5625 101.25 45.769531 101.796875 45.480469 103.207031 C 45.34375 103.851562 45.757812 104.480469 46.402344 104.613281 C 46.964844 104.730469 47.515625 104.425781 47.734375 103.914062 C 47.960938 103.808594 48.546875 103.707031 49.140625 103.828125 C 49.242188 103.847656 49.328125 103.875 49.402344 103.898438 C 47.75 105.457031 46.585938 107.523438 46.390625 109.078125 C 46.363281 109.433594 46.351562 109.773438 46.34375 110.113281 C 44.554688 109.652344 43.988281 107.839844 43.515625 105.695312 L 43.292969 104.671875 L 42.25 104.765625 C 40.738281 104.90625 39.621094 104.039062 38.953125 103.292969 C 38.199219 102.441406 37.777344 101.480469 37.59375 100.824219 C 40.9375 100.332031 45.058594 98.253906 46.144531 92.585938 C 46.515625 92.453125 46.886719 92.292969 47.257812 92.066406 C 47.277344 92.054688 47.292969 92.039062 47.3125 92.027344 C 48.667969 91.265625 50.089844 90.039062 51.042969 88.460938 C 52.160156 86.621094 52.453125 84.640625 51.894531 82.742188 C 51.710938 82.109375 51.050781 81.75 50.421875 81.933594 C 49.792969 82.117188 49.433594 82.777344 49.617188 83.40625 C 49.988281 84.671875 49.785156 85.957031 49.011719 87.230469 C 48.242188 88.507812 47.007812 89.535156 45.921875 90.085938 C 45.894531 90.101562 45.867188 90.113281 45.839844 90.128906 C 45.488281 90.296875 45.15625 90.421875 44.863281 90.480469 C 42.324219 90.960938 39.78125 88.535156 39.753906 88.503906 C 39.285156 88.046875 38.535156 88.054688 38.074219 88.519531 C 37.617188 88.988281 37.621094 89.742188 38.089844 90.199219 C 38.226562 90.335938 40.628906 92.652344 43.628906 92.914062 C 42.65625 96.453125 40.140625 97.796875 38.109375 98.289062 L 36.21875 98.546875 C 36.101562 98.5625 35.992188 98.5625 35.875 98.566406 C 35.609375 98.570312 35.410156 98.558594 35.304688 98.550781 C 35.296875 98.550781 35.285156 98.550781 35.273438 98.546875 C 35.253906 98.546875 35.238281 98.546875 35.230469 98.542969 C 35.226562 98.542969 35.222656 98.542969 35.21875 98.542969 C 34.210938 98.414062 33.363281 97.917969 32.78125 97.457031 C 31.273438 96.265625 30.179688 94.289062 29.996094 92.457031 C 29.71875 88.359375 31.035156 87.265625 32.429688 86.105469 L 34.382812 84.476562 L 32.066406 83.933594 C 30.570312 83.582031 29.195312 80.871094 29.339844 78.554688 C 29.457031 76.632812 29.890625 76.128906 30.714844 75.707031 C 31.945312 76.433594 33.449219 76.992188 35.261719 77.238281 C 35.679688 77.296875 36.085938 77.324219 36.484375 77.324219 C 37.847656 77.324219 39.070312 77 40.140625 76.535156 C 40.6875 76.859375 41.8125 77.816406 41.746094 79.117188 C 41.644531 81.089844 40.261719 82.582031 40.226562 82.621094 C 39.777344 83.089844 39.789062 83.839844 40.261719 84.296875 C 40.492188 84.515625 40.789062 84.628906 41.085938 84.628906 C 41.398438 84.628906 41.707031 84.503906 41.941406 84.265625 C 42.023438 84.179688 43.96875 82.128906 44.117188 79.242188 C 44.203125 77.578125 43.351562 76.1875 42.347656 75.253906 C 43.878906 74.117188 44.773438 72.921875 44.84375 72.820312 C 45.230469 72.289062 45.113281 71.546875 44.582031 71.160156 C 44.050781 70.773438 43.308594 70.894531 42.921875 71.421875 C 42.90625 71.449219 41.625 73.167969 39.535156 74.195312 C 38.425781 74.742188 37.089844 75.09375 35.585938 74.886719 C 34.378906 74.722656 33.367188 74.390625 32.515625 73.972656 L 31.679688 73.507812 C 30.859375 72.980469 30.234375 72.371094 29.785156 71.773438 C 28.371094 69.675781 27.542969 66.070312 28.84375 62.480469 C 30.144531 58.878906 34.039062 58.40625 35.371094 58.347656 L 38.882812 61.972656 C 38.125 62.414062 37.214844 62.683594 36.132812 62.730469 C 35.476562 62.761719 34.96875 63.316406 35 63.972656 C 35.03125 64.609375 35.554688 65.105469 36.1875 65.105469 C 36.203125 65.105469 36.222656 65.105469 36.242188 65.105469 C 38.5625 64.996094 40.414062 64.191406 41.746094 62.707031 C 44.070312 60.125 43.871094 56.433594 43.859375 56.277344 C 43.820312 55.625 43.261719 55.128906 42.601562 55.167969 C 41.949219 55.207031 41.449219 55.769531 41.492188 56.421875 C 41.492188 56.449219 41.582031 58.550781 40.570312 60.300781 L 36.871094 56.488281 C 36.695312 56.027344 36.199219 54.226562 37.894531 51.507812 C 39.410156 49.074219 41.945312 49.3125 44.203125 49.730469 C 44.347656 49.757812 44.480469 49.78125 44.601562 49.804688 L 47.5 52.292969 C 47.726562 52.484375 48 52.578125 48.273438 52.578125 C 48.609375 52.578125 48.941406 52.4375 49.175781 52.164062 C 49.601562 51.667969 49.546875 50.917969 49.046875 50.492188 L 46.175781 48.023438 C 45.78125 46.367188 46.078125 44.847656 47.085938 43.507812 C 48.910156 41.078125 52.515625 39.855469 54.019531 39.855469 C 56.144531 39.855469 61.980469 41.664062 61.996094 47.472656 C 61.996094 47.476562 61.996094 47.484375 61.996094 47.492188 L 61.996094 47.578125 C 61.957031 52.789062 58.570312 54.023438 58.160156 54.148438 C 57.632812 54.117188 57.175781 54.453125 57.007812 54.960938 C 56.800781 55.582031 57.136719 56.253906 57.757812 56.460938 C 58.824219 56.8125 60.570312 55.59375 60.765625 55.453125 C 61.128906 55.191406 61.558594 54.824219 61.996094 54.34375 Z M 61.996094 64.523438 " fill-opacity="1" fill-rule="nonzero"/></g><g clip-path="url(#89bda8fde5)"><path fill="#004aad" d="M 105.65625 78.429688 L 105.648438 78.347656 C 105.410156 76.234375 104.605469 75.011719 103.636719 74.226562 C 106.128906 71.621094 107.488281 66.527344 105.734375 61.675781 C 104.199219 57.421875 100.222656 56.328125 97.988281 56.054688 C 98.15625 54.734375 97.996094 52.710938 96.464844 50.253906 C 94.347656 46.851562 90.871094 46.914062 88.722656 47.226562 C 88.917969 45.207031 88.40625 43.332031 87.203125 41.730469 C 85.007812 38.8125 81.0625 37.484375 78.328125 37.484375 C 74.714844 37.484375 67.972656 40.417969 67.972656 47.492188 C 67.972656 47.527344 67.972656 47.5625 67.972656 47.59375 L 67.972656 111.414062 C 67.960938 113.476562 68.855469 115.460938 70.496094 117 C 72.398438 118.785156 75.148438 119.84375 77.8125 119.84375 C 78.039062 119.84375 78.261719 119.835938 78.488281 119.820312 C 82.5625 119.542969 85.261719 116.847656 85.875 112.554688 C 89.25 112.148438 90.410156 109.164062 90.925781 107.160156 C 92.648438 107.09375 94.171875 106.453125 95.296875 105.308594 C 96.433594 104.152344 97.101562 102.519531 97.183594 100.789062 C 101.664062 100.140625 104.339844 97.511719 104.761719 93.289062 C 105.078125 90.082031 104.3125 87.40625 102.480469 85.316406 C 104.25 84.078125 105.820312 82.105469 105.65625 78.429688 Z M 72.480469 113 C 71.875 113 71.382812 112.507812 71.382812 111.90625 C 71.382812 111.300781 71.875 110.808594 72.480469 110.808594 C 73.085938 110.808594 73.574219 111.300781 73.574219 111.90625 C 73.574219 112.507812 73.082031 113 72.480469 113 Z M 71.960938 113.96875 L 71.960938 115.105469 C 71.417969 114.5625 70.847656 113.796875 70.554688 112.8125 C 70.824219 113.382812 71.335938 113.8125 71.960938 113.96875 Z M 100 84.035156 L 98.417969 84.859375 L 99.789062 86 C 101.101562 87.09375 102.796875 89.015625 102.398438 93.054688 C 102.054688 96.476562 99.925781 98.269531 95.886719 98.535156 L 94.648438 98.621094 L 94.785156 99.851562 C 94.945312 101.308594 94.503906 102.726562 93.601562 103.644531 C 92.933594 104.324219 92.042969 104.707031 90.988281 104.777344 L 90.613281 92.390625 L 94.0625 89.261719 C 94.5 89.5625 95.03125 89.738281 95.601562 89.738281 C 97.117188 89.738281 98.351562 88.503906 98.351562 86.988281 C 98.351562 85.472656 97.117188 84.242188 95.601562 84.242188 C 94.085938 84.242188 92.851562 85.472656 92.851562 86.988281 C 92.851562 87.558594 93.027344 88.085938 93.324219 88.527344 L 89.558594 91.945312 L 89.945312 104.753906 L 89.054688 104.671875 L 88.828125 105.695312 C 88.304688 108.066406 87.664062 110.03125 85.398438 110.210938 L 85.398438 99.496094 L 83.890625 98.085938 L 83.890625 92.640625 L 87.195312 89.382812 C 87.542969 89.628906 87.964844 89.773438 88.417969 89.773438 C 89.597656 89.773438 90.554688 88.8125 90.554688 87.636719 C 90.554688 86.460938 89.597656 85.503906 88.417969 85.503906 C 87.242188 85.503906 86.28125 86.460938 86.28125 87.636719 C 86.28125 87.984375 86.371094 88.304688 86.519531 88.59375 L 82.851562 92.207031 L 82.851562 97.109375 L 80.882812 95.261719 L 80.882812 87.832031 C 81.808594 87.597656 82.5 86.765625 82.5 85.769531 C 82.5 84.589844 81.539062 83.632812 80.363281 83.632812 C 79.183594 83.632812 78.226562 84.589844 78.226562 85.769531 C 78.226562 86.765625 78.917969 87.597656 79.84375 87.832031 L 79.84375 95.710938 L 84.355469 99.945312 L 84.355469 110.304688 C 84.246094 110.347656 84.148438 110.410156 84.058594 110.484375 C 84.039062 110.496094 84.019531 110.507812 84.003906 110.523438 C 84 110.527344 83.996094 110.53125 83.992188 110.535156 C 83.828125 110.6875 83.710938 110.886719 83.652344 111.113281 C 83.644531 111.136719 83.644531 111.164062 83.640625 111.191406 C 83.632812 111.238281 83.621094 111.289062 83.617188 111.339844 C 83.460938 113.988281 82.457031 115.847656 80.746094 116.78125 L 78.65625 114.851562 L 78.65625 109.734375 C 79.582031 109.503906 80.269531 108.667969 80.269531 107.671875 C 80.269531 106.496094 79.3125 105.539062 78.132812 105.539062 C 76.957031 105.539062 76 106.496094 76 107.671875 C 76 108.667969 76.6875 109.503906 77.613281 109.734375 L 77.613281 115.308594 L 79.679688 117.214844 C 79.257812 117.335938 78.808594 117.417969 78.324219 117.453125 C 76.476562 117.578125 74.527344 117.015625 73 115.960938 L 73 113.96875 C 73.925781 113.734375 74.613281 112.902344 74.613281 111.90625 C 74.613281 110.726562 73.65625 109.769531 72.480469 109.769531 C 71.375 109.769531 70.476562 110.613281 70.363281 111.683594 C 70.359375 111.597656 70.347656 111.511719 70.347656 111.421875 L 70.347656 101.277344 L 71.296875 102.300781 L 77.109375 102.300781 C 77.355469 103.265625 78.222656 103.988281 79.261719 103.988281 C 80.492188 103.988281 81.492188 102.988281 81.492188 101.757812 C 81.492188 100.53125 80.492188 99.53125 79.261719 99.53125 C 78.222656 99.53125 77.355469 100.253906 77.109375 101.21875 L 71.769531 101.21875 L 70.347656 99.679688 L 70.347656 93.109375 L 72.332031 93.109375 C 72.574219 94.175781 73.527344 94.980469 74.667969 94.980469 C 75.992188 94.980469 77.070312 93.902344 77.070312 92.578125 C 77.070312 91.253906 75.992188 90.175781 74.667969 90.175781 C 73.527344 90.175781 72.574219 90.980469 72.332031 92.046875 L 70.347656 92.046875 L 70.347656 76.476562 C 71.558594 76.46875 72.707031 76.464844 73.910156 76.464844 L 73.910156 81.714844 C 73.230469 81.867188 72.722656 82.472656 72.722656 83.199219 C 72.722656 84.039062 73.40625 84.722656 74.246094 84.722656 C 75.085938 84.722656 75.769531 84.039062 75.769531 83.199219 C 75.769531 82.472656 75.261719 81.867188 74.582031 81.714844 L 74.582031 76.695312 C 75.808594 77.925781 76.996094 79.15625 78.195312 80.394531 L 78.65625 80.875 L 79.140625 80.410156 L 78.679688 79.929688 C 78.007812 79.234375 77.339844 78.542969 76.664062 77.851562 L 81.914062 77.851562 C 82.066406 78.527344 82.671875 79.039062 83.398438 79.039062 C 84.238281 79.039062 84.921875 78.355469 84.921875 77.515625 C 84.921875 76.671875 84.238281 75.988281 83.398438 75.988281 C 82.671875 75.988281 82.066406 76.5 81.914062 77.175781 L 76.003906 77.175781 C 75.582031 76.75 75.164062 76.320312 74.734375 75.890625 L 74.636719 75.792969 L 74.496094 75.792969 C 73.066406 75.792969 71.753906 75.792969 70.347656 75.800781 L 70.347656 74.152344 C 74.222656 74.121094 78.101562 74.128906 81.914062 74.1875 C 82.066406 74.867188 82.671875 75.378906 83.398438 75.378906 C 84.238281 75.378906 84.921875 74.695312 84.921875 73.851562 C 84.921875 73.011719 84.238281 72.328125 83.398438 72.328125 C 82.675781 72.328125 82.070312 72.835938 81.914062 73.511719 C 78.105469 73.457031 74.222656 73.449219 70.347656 73.476562 L 70.347656 70.574219 L 71.316406 71.621094 L 74.925781 71.621094 C 75.078125 72.21875 75.613281 72.664062 76.261719 72.664062 C 77.023438 72.664062 77.644531 72.046875 77.644531 71.285156 C 77.644531 70.523438 77.023438 69.902344 76.261719 69.902344 C 75.613281 69.902344 75.078125 70.347656 74.925781 70.945312 L 71.613281 70.945312 L 70.347656 69.582031 L 70.347656 65.808594 L 72.019531 65.023438 L 78.589844 67.460938 L 87.363281 63.324219 C 87.589844 63.613281 87.886719 63.835938 88.242188 63.964844 C 88.457031 64.042969 88.679688 64.078125 88.902344 64.078125 C 89.1875 64.078125 89.46875 64.015625 89.734375 63.890625 C 90.710938 63.433594 91.128906 62.265625 90.667969 61.289062 C 90.445312 60.820312 90.054688 60.460938 89.5625 60.285156 C 89.070312 60.109375 88.539062 60.132812 88.066406 60.355469 C 87.59375 60.578125 87.238281 60.972656 87.0625 61.464844 C 86.933594 61.816406 86.914062 62.1875 86.996094 62.546875 L 78.550781 66.527344 L 73.113281 64.507812 L 78.242188 62.085938 L 79.71875 57.921875 L 86.367188 54.785156 C 86.742188 55.261719 87.304688 55.542969 87.898438 55.542969 C 88.179688 55.542969 88.460938 55.480469 88.730469 55.355469 C 89.703125 54.894531 90.125 53.726562 89.664062 52.753906 C 89.203125 51.777344 88.035156 51.359375 87.0625 51.820312 C 86.21875 52.214844 85.796875 53.136719 85.988281 54.007812 L 79.023438 57.292969 L 77.550781 61.460938 L 70.351562 64.855469 L 70.351562 54.34375 C 70.785156 54.824219 71.214844 55.191406 71.578125 55.453125 C 71.773438 55.59375 73.515625 56.816406 74.585938 56.460938 C 75.207031 56.253906 75.542969 55.582031 75.335938 54.960938 C 75.171875 54.460938 74.707031 54.148438 74.210938 54.148438 C 74.203125 54.148438 74.191406 54.148438 74.183594 54.148438 C 73.773438 54.023438 70.382812 52.789062 70.351562 47.570312 L 70.351562 47.492188 C 70.351562 47.484375 70.347656 47.480469 70.347656 47.472656 C 70.359375 42.203125 75.15625 40.234375 77.636719 39.910156 L 76.875 40.617188 L 76.875 46.308594 C 75.9375 46.507812 75.230469 47.339844 75.230469 48.332031 C 75.230469 49.476562 76.160156 50.40625 77.304688 50.40625 C 78.449219 50.40625 79.378906 49.476562 79.378906 48.332031 C 79.378906 47.339844 78.671875 46.507812 77.734375 46.308594 L 77.734375 40.996094 L 78.929688 39.894531 C 81.09375 40.070312 83.816406 41.175781 85.300781 43.15625 C 86.34375 44.542969 86.628906 46.183594 86.167969 48.039062 L 84.789062 49.375 C 84.320312 49.832031 84.308594 50.585938 84.765625 51.054688 C 85 51.292969 85.308594 51.414062 85.617188 51.414062 C 85.917969 51.414062 86.214844 51.304688 86.445312 51.078125 L 87.761719 49.800781 C 87.878906 49.78125 88.003906 49.757812 88.140625 49.730469 C 90.398438 49.316406 92.933594 49.074219 94.449219 51.507812 C 96.09375 54.148438 95.675781 55.917969 95.496094 56.425781 L 94.273438 57.460938 C 93.773438 57.882812 93.707031 58.632812 94.132812 59.132812 C 94.367188 59.410156 94.703125 59.554688 95.039062 59.554688 C 95.308594 59.554688 95.582031 59.460938 95.804688 59.273438 L 96.902344 58.34375 C 98.140625 58.386719 102.003906 58.808594 103.40625 62.265625 L 93.117188 62.265625 L 87.292969 68.265625 L 87.292969 74.328125 C 86.269531 74.558594 85.503906 75.472656 85.503906 76.5625 C 85.503906 77.828125 86.535156 78.855469 87.800781 78.855469 C 89.066406 78.855469 90.097656 77.828125 90.097656 76.5625 C 90.097656 75.472656 89.328125 74.558594 88.308594 74.328125 L 88.308594 68.675781 L 93.546875 63.28125 L 103.753906 63.28125 C 104.480469 65.914062 104.121094 68.492188 103.289062 70.417969 L 95.023438 70.417969 L 91.648438 74.3125 L 91.648438 78.035156 C 90.625 78.269531 89.859375 79.179688 89.859375 80.269531 C 89.859375 81.535156 90.890625 82.566406 92.15625 82.566406 C 93.421875 82.566406 94.453125 81.535156 94.453125 80.269531 C 94.453125 79.179688 93.683594 78.269531 92.664062 78.035156 L 92.664062 74.6875 L 95.484375 71.429688 L 102.773438 71.429688 C 102.308594 72.203125 101.769531 72.804688 101.210938 73.179688 L 97.832031 73.179688 C 97.175781 73.179688 96.644531 73.710938 96.644531 74.367188 C 96.644531 75.023438 97.175781 75.554688 97.832031 75.554688 L 101.292969 75.554688 C 102.4375 76.105469 103.074219 76.777344 103.285156 78.574219 C 103.410156 81.632812 102.121094 82.933594 100 84.035156 Z M 93.894531 86.988281 C 93.894531 86.046875 94.660156 85.28125 95.601562 85.28125 C 96.542969 85.28125 97.3125 86.046875 97.3125 86.988281 C 97.3125 87.929688 96.542969 88.695312 95.601562 88.695312 C 94.660156 88.695312 93.894531 87.929688 93.894531 86.988281 Z M 87.324219 87.636719 C 87.324219 87.03125 87.8125 86.542969 88.417969 86.542969 C 89.023438 86.542969 89.515625 87.03125 89.515625 87.636719 C 89.515625 88.242188 89.023438 88.730469 88.417969 88.730469 C 87.8125 88.730469 87.324219 88.242188 87.324219 87.636719 Z M 80.363281 86.863281 C 79.757812 86.863281 79.269531 86.371094 79.269531 85.769531 C 79.269531 85.164062 79.757812 84.671875 80.363281 84.671875 C 80.96875 84.671875 81.457031 85.164062 81.457031 85.769531 C 81.457031 86.371094 80.96875 86.863281 80.363281 86.863281 Z M 78.136719 108.769531 C 77.53125 108.769531 77.039062 108.277344 77.039062 107.671875 C 77.039062 107.066406 77.53125 106.578125 78.136719 106.578125 C 78.738281 106.578125 79.230469 107.066406 79.230469 107.671875 C 79.230469 108.277344 78.738281 108.769531 78.136719 108.769531 Z M 78.121094 101.761719 C 78.121094 101.128906 78.632812 100.617188 79.261719 100.617188 C 79.894531 100.617188 80.40625 101.128906 80.40625 101.761719 C 80.40625 102.390625 79.894531 102.902344 79.261719 102.902344 C 78.632812 102.902344 78.121094 102.390625 78.121094 101.761719 Z M 73.328125 92.578125 C 73.328125 91.839844 73.929688 91.238281 74.667969 91.238281 C 75.410156 91.238281 76.011719 91.839844 76.011719 92.578125 C 76.011719 93.316406 75.410156 93.917969 74.667969 93.917969 C 73.929688 93.917969 73.328125 93.316406 73.328125 92.578125 Z M 74.246094 82.347656 C 74.714844 82.347656 75.097656 82.730469 75.097656 83.199219 C 75.097656 83.667969 74.714844 84.050781 74.246094 84.050781 C 73.777344 84.050781 73.394531 83.667969 73.394531 83.199219 C 73.394531 82.730469 73.777344 82.347656 74.246094 82.347656 Z M 82.546875 77.515625 C 82.546875 77.046875 82.929688 76.664062 83.398438 76.664062 C 83.867188 76.664062 84.25 77.046875 84.25 77.515625 C 84.25 77.984375 83.867188 78.363281 83.398438 78.363281 C 82.929688 78.363281 82.546875 77.984375 82.546875 77.515625 Z M 82.546875 73.855469 C 82.546875 73.382812 82.929688 73.003906 83.398438 73.003906 C 83.867188 73.003906 84.25 73.382812 84.25 73.855469 C 84.25 74.324219 83.867188 74.703125 83.398438 74.703125 C 82.929688 74.703125 82.546875 74.324219 82.546875 73.855469 Z M 75.550781 71.285156 C 75.550781 70.894531 75.871094 70.574219 76.261719 70.574219 C 76.652344 70.574219 76.96875 70.894531 76.96875 71.285156 C 76.96875 71.675781 76.652344 71.992188 76.261719 71.992188 C 75.871094 71.992188 75.550781 71.675781 75.550781 71.285156 Z M 87.875 61.753906 C 87.972656 61.480469 88.171875 61.261719 88.4375 61.136719 C 88.585938 61.066406 88.742188 61.03125 88.898438 61.03125 C 89.023438 61.03125 89.148438 61.054688 89.269531 61.097656 C 89.546875 61.195312 89.765625 61.394531 89.890625 61.65625 C 90.144531 62.203125 89.910156 62.855469 89.367188 63.113281 C 89.101562 63.234375 88.808594 63.25 88.53125 63.152344 C 88.257812 63.050781 88.039062 62.851562 87.914062 62.589844 C 87.789062 62.324219 87.773438 62.03125 87.875 61.753906 Z M 87.429688 52.601562 C 87.578125 52.53125 87.738281 52.496094 87.894531 52.496094 C 88.304688 52.496094 88.695312 52.726562 88.882812 53.121094 C 89.140625 53.664062 88.90625 54.316406 88.359375 54.574219 C 87.816406 54.832031 87.164062 54.597656 86.90625 54.054688 C 86.648438 53.507812 86.882812 52.855469 87.429688 52.601562 Z M 77.304688 47.125 C 77.972656 47.125 78.515625 47.667969 78.515625 48.332031 C 78.515625 49 77.972656 49.542969 77.304688 49.542969 C 76.636719 49.542969 76.09375 49 76.09375 48.332031 C 76.09375 47.667969 76.636719 47.125 77.304688 47.125 Z M 87.800781 75.28125 C 88.507812 75.28125 89.082031 75.855469 89.082031 76.5625 C 89.082031 77.269531 88.507812 77.84375 87.800781 77.84375 C 87.09375 77.84375 86.519531 77.269531 86.519531 76.5625 C 86.519531 75.855469 87.09375 75.28125 87.800781 75.28125 Z M 92.15625 78.988281 C 92.863281 78.988281 93.4375 79.5625 93.4375 80.269531 C 93.4375 80.976562 92.863281 81.550781 92.15625 81.550781 C 91.449219 81.550781 90.875 80.976562 90.875 80.269531 C 90.875 79.5625 91.449219 78.988281 92.15625 78.988281 Z M 92.15625 78.988281 " fill-opacity="1" fill-rule="nonzero"/></g><g fill="#000000" fill-opacity="1"><g transform="translate(133.044867, 122.879916)"><g><path d="M 22.046875 -9.703125 L 24.78125 -35.828125 L 29.09375 -35.828125 L 24.734375 0 L 20.078125 0 L 15.484375 -27 L 10.828125 0 L 6.15625 0 L 1.796875 -35.828125 L 6.125 -35.828125 L 8.859375 -9.703125 L 13.46875 -35.828125 L 17.421875 -35.828125 Z M 22.046875 -9.703125 "/></g></g></g><g fill="#000000" fill-opacity="1"><g transform="translate(163.284161, 122.879916)"><g><path d="M 16.046875 0.5 C 14.171875 0.5 12.453125 0.179688 10.890625 -0.453125 C 9.328125 -1.097656 7.984375 -1.992188 6.859375 -3.140625 C 5.742188 -4.296875 4.875 -5.660156 4.25 -7.234375 C 3.632812 -8.804688 3.328125 -10.519531 3.328125 -12.375 L 3.328125 -13.40625 C 3.328125 -15.5625 3.671875 -17.488281 4.359375 -19.1875 C 5.046875 -20.882812 5.957031 -22.316406 7.09375 -23.484375 C 8.238281 -24.660156 9.535156 -25.5625 10.984375 -26.1875 C 12.441406 -26.8125 13.929688 -27.125 15.453125 -27.125 C 17.378906 -27.125 19.054688 -26.789062 20.484375 -26.125 C 21.921875 -25.457031 23.113281 -24.535156 24.0625 -23.359375 C 25.019531 -22.191406 25.734375 -20.8125 26.203125 -19.21875 C 26.671875 -17.625 26.90625 -15.898438 26.90625 -14.046875 L 26.90625 -12.015625 L 7.875 -12.015625 C 7.925781 -10.796875 8.160156 -9.648438 8.578125 -8.578125 C 8.992188 -7.515625 9.566406 -6.585938 10.296875 -5.796875 C 11.023438 -5.003906 11.898438 -4.375 12.921875 -3.90625 C 13.941406 -3.445312 15.066406 -3.21875 16.296875 -3.21875 C 17.921875 -3.21875 19.363281 -3.546875 20.625 -4.203125 C 21.882812 -4.859375 22.9375 -5.726562 23.78125 -6.8125 L 26.5625 -4.65625 C 26.113281 -3.976562 25.554688 -3.332031 24.890625 -2.71875 C 24.234375 -2.101562 23.46875 -1.554688 22.59375 -1.078125 C 21.726562 -0.609375 20.742188 -0.226562 19.640625 0.0625 C 18.535156 0.351562 17.335938 0.5 16.046875 0.5 Z M 15.453125 -23.375 C 14.535156 -23.375 13.664062 -23.207031 12.84375 -22.875 C 12.019531 -22.539062 11.28125 -22.046875 10.625 -21.390625 C 9.96875 -20.742188 9.414062 -19.945312 8.96875 -19 C 8.519531 -18.0625 8.207031 -16.976562 8.03125 -15.75 L 22.34375 -15.75 L 22.34375 -16.09375 C 22.300781 -16.976562 22.132812 -17.851562 21.84375 -18.71875 C 21.550781 -19.59375 21.125 -20.375 20.5625 -21.0625 C 20.007812 -21.757812 19.3125 -22.316406 18.46875 -22.734375 C 17.625 -23.160156 16.617188 -23.375 15.453125 -23.375 Z M 15.453125 -23.375 "/></g></g></g><g fill="#000000" fill-opacity="1"><g transform="translate(193.523456, 122.879916)"><g><path d="M 5 -37.8125 L 18.609375 -37.8125 L 18.609375 -3.9375 L 27.296875 -3.9375 L 27.296875 0 L 5 0 L 5 -3.9375 L 14.046875 -3.9375 L 14.046875 -33.84375 L 5 -33.84375 Z M 5 -37.8125 "/></g></g></g><g fill="#000000" fill-opacity="1"><g transform="translate(223.76275, 122.879916)"><g><path d="M 5 -37.8125 L 18.609375 -37.8125 L 18.609375 -3.9375 L 27.296875 -3.9375 L 27.296875 0 L 5 0 L 5 -3.9375 L 14.046875 -3.9375 L 14.046875 -33.84375 L 5 -33.84375 Z M 5 -37.8125 "/></g></g></g><g fill="#000000" fill-opacity="1"><g transform="translate(254.002045, 122.879916)"><g><path d="M 16.140625 -14.625 L 8.984375 -14.625 L 8.984375 0 L 4.453125 0 L 4.453125 -35.828125 L 14.96875 -35.828125 C 16.632812 -35.796875 18.207031 -35.554688 19.6875 -35.109375 C 21.164062 -34.671875 22.457031 -34.007812 23.5625 -33.125 C 24.675781 -32.238281 25.546875 -31.125 26.171875 -29.78125 C 26.804688 -28.445312 27.125 -26.878906 27.125 -25.078125 C 27.125 -23.910156 26.953125 -22.84375 26.609375 -21.875 C 26.273438 -20.90625 25.8125 -20.023438 25.21875 -19.234375 C 24.632812 -18.453125 23.929688 -17.757812 23.109375 -17.15625 C 22.285156 -16.550781 21.382812 -16.035156 20.40625 -15.609375 L 28.015625 -0.296875 L 27.984375 0 L 23.1875 0 Z M 8.984375 -18.359375 L 15.09375 -18.359375 C 16.101562 -18.378906 17.0625 -18.539062 17.96875 -18.84375 C 18.875 -19.144531 19.664062 -19.582031 20.34375 -20.15625 C 21.019531 -20.726562 21.554688 -21.425781 21.953125 -22.25 C 22.347656 -23.082031 22.546875 -24.039062 22.546875 -25.125 C 22.546875 -26.28125 22.351562 -27.285156 21.96875 -28.140625 C 21.59375 -29.003906 21.066406 -29.726562 20.390625 -30.3125 C 19.722656 -30.894531 18.925781 -31.332031 18 -31.625 C 17.070312 -31.914062 16.0625 -32.070312 14.96875 -32.09375 L 8.984375 -32.09375 Z M 8.984375 -18.359375 "/></g></g></g><g fill="#000000" fill-opacity="1"><g transform="translate(284.241339, 122.879916)"><g><path d="M 16.046875 0.5 C 14.171875 0.5 12.453125 0.179688 10.890625 -0.453125 C 9.328125 -1.097656 7.984375 -1.992188 6.859375 -3.140625 C 5.742188 -4.296875 4.875 -5.660156 4.25 -7.234375 C 3.632812 -8.804688 3.328125 -10.519531 3.328125 -12.375 L 3.328125 -13.40625 C 3.328125 -15.5625 3.671875 -17.488281 4.359375 -19.1875 C 5.046875 -20.882812 5.957031 -22.316406 7.09375 -23.484375 C 8.238281 -24.660156 9.535156 -25.5625 10.984375 -26.1875 C 12.441406 -26.8125 13.929688 -27.125 15.453125 -27.125 C 17.378906 -27.125 19.054688 -26.789062 20.484375 -26.125 C 21.921875 -25.457031 23.113281 -24.535156 24.0625 -23.359375 C 25.019531 -22.191406 25.734375 -20.8125 26.203125 -19.21875 C 26.671875 -17.625 26.90625 -15.898438 26.90625 -14.046875 L 26.90625 -12.015625 L 7.875 -12.015625 C 7.925781 -10.796875 8.160156 -9.648438 8.578125 -8.578125 C 8.992188 -7.515625 9.566406 -6.585938 10.296875 -5.796875 C 11.023438 -5.003906 11.898438 -4.375 12.921875 -3.90625 C 13.941406 -3.445312 15.066406 -3.21875 16.296875 -3.21875 C 17.921875 -3.21875 19.363281 -3.546875 20.625 -4.203125 C 21.882812 -4.859375 22.9375 -5.726562 23.78125 -6.8125 L 26.5625 -4.65625 C 26.113281 -3.976562 25.554688 -3.332031 24.890625 -2.71875 C 24.234375 -2.101562 23.46875 -1.554688 22.59375 -1.078125 C 21.726562 -0.609375 20.742188 -0.226562 19.640625 0.0625 C 18.535156 0.351562 17.335938 0.5 16.046875 0.5 Z M 15.453125 -23.375 C 14.535156 -23.375 13.664062 -23.207031 12.84375 -22.875 C 12.019531 -22.539062 11.28125 -22.046875 10.625 -21.390625 C 9.96875 -20.742188 9.414062 -19.945312 8.96875 -19 C 8.519531 -18.0625 8.207031 -16.976562 8.03125 -15.75 L 22.34375 -15.75 L 22.34375 -16.09375 C 22.300781 -16.976562 22.132812 -17.851562 21.84375 -18.71875 C 21.550781 -19.59375 21.125 -20.375 20.5625 -21.0625 C 20.007812 -21.757812 19.3125 -22.316406 18.46875 -22.734375 C 17.625 -23.160156 16.617188 -23.375 15.453125 -23.375 Z M 15.453125 -23.375 "/></g></g></g><g fill="#000000" fill-opacity="1"><g transform="translate(314.480634, 122.879916)"><g><path d="M 21.78125 0 C 21.601562 -0.34375 21.457031 -0.769531 21.34375 -1.28125 C 21.238281 -1.800781 21.164062 -2.34375 21.125 -2.90625 C 20.65625 -2.445312 20.140625 -2.007812 19.578125 -1.59375 C 19.015625 -1.1875 18.390625 -0.828125 17.703125 -0.515625 C 17.023438 -0.203125 16.300781 0.0390625 15.53125 0.21875 C 14.757812 0.40625 13.9375 0.5 13.0625 0.5 C 11.65625 0.5 10.378906 0.296875 9.234375 -0.109375 C 8.097656 -0.523438 7.128906 -1.082031 6.328125 -1.78125 C 5.535156 -2.476562 4.921875 -3.304688 4.484375 -4.265625 C 4.054688 -5.222656 3.84375 -6.265625 3.84375 -7.390625 C 3.84375 -8.847656 4.132812 -10.125 4.71875 -11.21875 C 5.300781 -12.320312 6.125 -13.238281 7.1875 -13.96875 C 8.25 -14.695312 9.53125 -15.238281 11.03125 -15.59375 C 12.539062 -15.957031 14.222656 -16.140625 16.078125 -16.140625 L 21.046875 -16.140625 L 21.046875 -18.234375 C 21.046875 -19.035156 20.894531 -19.753906 20.59375 -20.390625 C 20.300781 -21.035156 19.882812 -21.582031 19.34375 -22.03125 C 18.800781 -22.488281 18.140625 -22.835938 17.359375 -23.078125 C 16.578125 -23.328125 15.707031 -23.453125 14.75 -23.453125 C 13.84375 -23.453125 13.03125 -23.335938 12.3125 -23.109375 C 11.601562 -22.878906 11 -22.578125 10.5 -22.203125 C 10.007812 -21.828125 9.628906 -21.378906 9.359375 -20.859375 C 9.085938 -20.335938 8.953125 -19.800781 8.953125 -19.25 L 4.375 -19.25 C 4.394531 -20.21875 4.644531 -21.164062 5.125 -22.09375 C 5.613281 -23.03125 6.3125 -23.875 7.21875 -24.625 C 8.132812 -25.375 9.242188 -25.976562 10.546875 -26.4375 C 11.847656 -26.894531 13.328125 -27.125 14.984375 -27.125 C 16.492188 -27.125 17.894531 -26.9375 19.1875 -26.5625 C 20.488281 -26.195312 21.609375 -25.640625 22.546875 -24.890625 C 23.492188 -24.148438 24.238281 -23.21875 24.78125 -22.09375 C 25.320312 -20.976562 25.59375 -19.675781 25.59375 -18.1875 L 25.59375 -5.8125 C 25.59375 -4.925781 25.675781 -3.984375 25.84375 -2.984375 C 26.007812 -1.992188 26.238281 -1.128906 26.53125 -0.390625 L 26.53125 0 Z M 13.734375 -3.46875 C 14.617188 -3.46875 15.445312 -3.582031 16.21875 -3.8125 C 16.988281 -4.039062 17.6875 -4.34375 18.3125 -4.71875 C 18.945312 -5.101562 19.492188 -5.535156 19.953125 -6.015625 C 20.421875 -6.503906 20.785156 -7.007812 21.046875 -7.53125 L 21.046875 -12.921875 L 16.8125 -12.921875 C 14.15625 -12.921875 12.085938 -12.523438 10.609375 -11.734375 C 9.128906 -10.953125 8.390625 -9.71875 8.390625 -8.03125 C 8.390625 -7.375 8.5 -6.765625 8.71875 -6.203125 C 8.945312 -5.640625 9.28125 -5.15625 9.71875 -4.75 C 10.164062 -4.351562 10.722656 -4.039062 11.390625 -3.8125 C 12.066406 -3.582031 12.847656 -3.46875 13.734375 -3.46875 Z M 13.734375 -3.46875 "/></g></g></g><g fill="#000000" fill-opacity="1"><g transform="translate(344.719928, 122.879916)"><g><path d="M 3.421875 -13.53125 C 3.421875 -15.519531 3.671875 -17.347656 4.171875 -19.015625 C 4.671875 -20.679688 5.382812 -22.113281 6.3125 -23.3125 C 7.238281 -24.507812 8.359375 -25.441406 9.671875 -26.109375 C 10.984375 -26.785156 12.453125 -27.125 14.078125 -27.125 C 15.671875 -27.125 17.0625 -26.851562 18.25 -26.3125 C 19.4375 -25.78125 20.46875 -25.007812 21.34375 -24 L 21.34375 -37.8125 L 25.890625 -37.8125 L 25.890625 0 L 21.703125 0 L 21.515625 -2.8125 C 20.628906 -1.726562 19.566406 -0.90625 18.328125 -0.34375 C 17.097656 0.21875 15.664062 0.5 14.03125 0.5 C 12.414062 0.5 10.957031 0.15625 9.65625 -0.53125 C 8.351562 -1.226562 7.242188 -2.179688 6.328125 -3.390625 C 5.410156 -4.609375 4.695312 -6.039062 4.1875 -7.6875 C 3.675781 -9.34375 3.421875 -11.117188 3.421875 -13.015625 Z M 7.96875 -13.015625 C 7.96875 -11.722656 8.109375 -10.492188 8.390625 -9.328125 C 8.671875 -8.160156 9.101562 -7.132812 9.6875 -6.25 C 10.269531 -5.363281 11.007812 -4.660156 11.90625 -4.140625 C 12.8125 -3.628906 13.894531 -3.375 15.15625 -3.375 C 15.925781 -3.375 16.625 -3.460938 17.25 -3.640625 C 17.875 -3.816406 18.441406 -4.070312 18.953125 -4.40625 C 19.460938 -4.75 19.910156 -5.15625 20.296875 -5.625 C 20.691406 -6.09375 21.039062 -6.613281 21.34375 -7.1875 L 21.34375 -19.546875 C 20.75 -20.628906 19.953125 -21.519531 18.953125 -22.21875 C 17.953125 -22.914062 16.703125 -23.265625 15.203125 -23.265625 C 13.929688 -23.265625 12.835938 -23 11.921875 -22.46875 C 11.015625 -21.945312 10.269531 -21.238281 9.6875 -20.34375 C 9.101562 -19.445312 8.671875 -18.410156 8.390625 -17.234375 C 8.109375 -16.066406 7.96875 -14.832031 7.96875 -13.53125 Z M 7.96875 -13.015625 "/></g></g></g></svg>