<svg xmlns="http://www.w3.org/2000/svg" xmlns:xlink="http://www.w3.org/1999/xlink" width="500" zoomAndPan="magnify" viewBox="0 0 375 225" height="300" preserveAspectRatio="xMidYMid meet" version="1.0"><defs><g/><clipPath id="bb032b951e"><path d="M 0 58.363281 L 99.75 58.363281 L 99.75 157.363281 L 0 157.363281 Z M 0 58.363281 " clip-rule="nonzero"/></clipPath></defs><path fill="#bd1509" d="M 43.59375 103.886719 C 45.230469 104.242188 46.382812 105.113281 47.109375 106.539062 C 47.246094 106.816406 47.523438 106.972656 47.8125 106.972656 C 47.933594 106.972656 48.054688 106.945312 48.171875 106.886719 C 48.558594 106.6875 48.714844 106.210938 48.515625 105.824219 C 47.574219 103.972656 46.03125 102.800781 43.929688 102.34375 C 43.503906 102.25 43.082031 102.519531 42.992188 102.945312 C 42.898438 103.371094 43.167969 103.792969 43.59375 103.886719 Z M 43.59375 103.886719 " fill-opacity="1" fill-rule="nonzero"/><path fill="#bd1509" d="M 51.785156 106.886719 C 51.902344 106.945312 52.023438 106.972656 52.144531 106.972656 C 52.433594 106.972656 52.710938 106.816406 52.851562 106.542969 C 53.578125 105.113281 54.726562 104.246094 56.363281 103.886719 C 56.789062 103.792969 57.058594 103.375 56.96875 102.949219 C 56.875 102.519531 56.453125 102.25 56.027344 102.34375 C 53.929688 102.800781 52.386719 103.972656 51.441406 105.824219 C 51.246094 106.210938 51.398438 106.6875 51.785156 106.886719 Z M 51.785156 106.886719 " fill-opacity="1" fill-rule="nonzero"/><path fill="#bd1509" d="M 9.925781 132.160156 C 8.539062 132.65625 7.558594 133.691406 7.011719 135.238281 C 6.863281 135.652344 7.078125 136.101562 7.492188 136.246094 C 7.578125 136.277344 7.667969 136.292969 7.753906 136.292969 C 8.078125 136.292969 8.382812 136.089844 8.5 135.765625 C 8.886719 134.671875 9.527344 133.980469 10.457031 133.648438 C 10.867188 133.503906 11.082031 133.050781 10.933594 132.640625 C 10.789062 132.230469 10.335938 132.015625 9.925781 132.160156 Z M 9.925781 132.160156 " fill-opacity="1" fill-rule="nonzero"/><g clip-path="url(#bb032b951e)"><path fill="#bd1509" d="M 99.273438 153.410156 C 98.558594 152.332031 97.507812 151.53125 96.304688 151.152344 C 94.160156 150.480469 92.957031 149.351562 92.613281 147.714844 C 93.9375 145.417969 98.273438 135.132812 97.296875 129.523438 C 96.355469 124.105469 86.78125 117.347656 84.601562 115.875 C 84.769531 114.984375 85.199219 113.527344 85.683594 111.871094 C 86.988281 107.433594 88.773438 101.355469 88.074219 97.925781 C 87.101562 93.15625 81.304688 87.90625 78.367188 85.773438 C 78.359375 85.765625 78.355469 85.757812 78.34375 85.75 C 78.335938 85.742188 78.324219 85.742188 78.316406 85.734375 C 77.972656 85.488281 77.664062 85.273438 77.414062 85.121094 C 75.757812 84.097656 74.136719 83.792969 72.703125 83.523438 C 71.691406 83.332031 70.738281 83.152344 69.929688 82.738281 C 68.390625 81.949219 66.851562 80.285156 66.292969 79.644531 C 66.601562 77.859375 66.625 76.015625 66.164062 74.207031 C 65.039062 69.820312 61.007812 67.121094 56.347656 65.871094 C 56.828125 64.222656 56.644531 62.535156 55.792969 61.222656 C 54.6875 59.519531 52.625 58.582031 49.980469 58.582031 C 47.363281 58.582031 45.316406 59.496094 44.214844 61.15625 C 43.335938 62.484375 43.132812 64.164062 43.621094 65.867188 C 38.953125 67.117188 34.917969 69.816406 33.792969 74.203125 C 33.332031 76.015625 33.351562 77.855469 33.664062 79.644531 C 33.105469 80.285156 31.566406 81.949219 30.027344 82.738281 C 29.21875 83.152344 28.265625 83.332031 27.25 83.523438 C 25.820312 83.792969 24.199219 84.097656 22.542969 85.121094 C 22.292969 85.273438 21.984375 85.488281 21.644531 85.734375 C 21.632812 85.742188 21.621094 85.742188 21.613281 85.75 C 21.601562 85.757812 21.59375 85.765625 21.585938 85.773438 C 18.652344 87.90625 12.855469 93.160156 11.882812 97.925781 C 11.183594 101.355469 12.96875 107.433594 14.273438 111.875 C 14.757812 113.523438 15.1875 114.980469 15.355469 115.871094 C 13.152344 117.34375 3.46875 124.101562 2.527344 129.523438 C 1.550781 135.132812 5.886719 145.417969 7.210938 147.714844 C 6.867188 149.351562 5.664062 150.480469 3.519531 151.152344 C 2.320312 151.53125 1.265625 152.332031 0.550781 153.414062 C 0.0703125 154.148438 0.0273438 155.085938 0.445312 155.859375 C 0.859375 156.632812 1.667969 157.113281 2.546875 157.113281 L 17.402344 157.113281 C 19.210938 157.113281 20.84375 156.183594 21.765625 154.628906 C 22.6875 153.082031 22.722656 151.210938 21.863281 149.628906 C 20.820312 147.714844 20.308594 145.949219 20.257812 144.105469 C 21.414062 142.933594 22.578125 141.546875 22.925781 140.417969 C 23.277344 139.285156 23.285156 138.191406 23.199219 137.34375 C 24.371094 137.789062 25.792969 138.113281 27.601562 138.113281 C 29.429688 138.113281 31.292969 137.902344 33.164062 137.507812 C 33.140625 137.804688 33.140625 138.117188 33.183594 138.464844 C 33.378906 140.027344 34.457031 140.941406 35.324219 141.679688 C 35.878906 142.148438 36.402344 142.59375 36.601562 143.109375 C 37.011719 144.152344 36.792969 146.910156 36.558594 148.398438 C 36.503906 148.738281 36.679688 149.074219 36.988281 149.230469 C 37.101562 149.285156 37.21875 149.3125 37.339844 149.3125 C 37.550781 149.3125 37.757812 149.226562 37.910156 149.066406 C 38.574219 148.375 41.882812 144.816406 41.882812 142.753906 C 41.882812 141.980469 41.707031 141.191406 41.371094 140.40625 C 41.066406 139.710938 41.050781 138.976562 41.320312 138.347656 C 41.339844 138.304688 41.359375 138.253906 41.375 138.210938 C 42.667969 138.9375 43.96875 139.515625 45.261719 139.929688 C 45.195312 140.078125 45.128906 140.222656 45.054688 140.378906 C 44.644531 141.234375 44.136719 142.304688 44.136719 144.222656 C 44.136719 147.773438 50.132812 152.507812 50.816406 153.035156 C 50.957031 153.144531 51.125 153.199219 51.296875 153.199219 C 51.4375 153.199219 51.578125 153.164062 51.703125 153.085938 C 51.980469 152.921875 52.128906 152.601562 52.078125 152.28125 C 51.425781 148.367188 52.535156 145.507812 53.515625 142.984375 C 53.921875 141.9375 54.304688 140.933594 54.523438 139.945312 C 55.828125 139.527344 57.144531 138.945312 58.449219 138.210938 C 58.464844 138.253906 58.484375 138.304688 58.503906 138.347656 C 58.773438 138.976562 58.753906 139.707031 58.453125 140.40625 C 58.113281 141.191406 57.941406 141.980469 57.941406 142.75 C 57.941406 144.816406 61.25 148.375 61.914062 149.066406 C 62.066406 149.226562 62.273438 149.308594 62.484375 149.308594 C 62.605469 149.308594 62.722656 149.285156 62.835938 149.226562 C 63.144531 149.074219 63.316406 148.738281 63.265625 148.398438 C 63.03125 146.90625 62.8125 144.15625 63.21875 143.105469 C 63.421875 142.59375 63.945312 142.148438 64.5 141.675781 C 65.367188 140.941406 66.445312 140.027344 66.640625 138.464844 C 66.683594 138.117188 66.683594 137.804688 66.660156 137.507812 C 68.527344 137.902344 70.394531 138.113281 72.222656 138.113281 C 74.03125 138.113281 75.453125 137.789062 76.625 137.34375 C 76.535156 138.191406 76.546875 139.28125 76.898438 140.417969 C 77.246094 141.542969 78.40625 142.929688 79.566406 144.105469 C 79.511719 145.949219 79.003906 147.714844 77.960938 149.628906 C 77.101562 151.210938 77.136719 153.078125 78.058594 154.628906 C 78.980469 156.183594 80.613281 157.113281 82.417969 157.113281 L 97.277344 157.113281 C 98.15625 157.113281 98.960938 156.628906 99.378906 155.855469 C 99.796875 155.082031 99.753906 154.148438 99.273438 153.410156 Z M 64.058594 90.152344 C 63.175781 91.574219 61.46875 91.777344 60.296875 91.722656 C 60.570312 91.359375 60.742188 91.109375 60.792969 91.035156 C 61.632812 89.957031 62.863281 88.230469 63.972656 86.136719 C 64.472656 87.171875 64.933594 88.75 64.058594 90.152344 Z M 35.988281 86.140625 C 37.097656 88.234375 38.324219 89.957031 39.164062 91.035156 C 39.214844 91.109375 39.386719 91.359375 39.664062 91.730469 C 38.496094 91.785156 36.785156 91.585938 35.898438 90.152344 C 35.03125 88.761719 35.488281 87.179688 35.988281 86.140625 Z M 40.570312 90.289062 C 40.199219 86.148438 40.519531 79.46875 42.953125 78.566406 C 45.085938 77.769531 48.316406 80.820312 49.378906 82.0625 C 49.527344 82.238281 49.75 82.339844 49.980469 82.339844 C 50.210938 82.339844 50.429688 82.238281 50.582031 82.0625 C 51.640625 80.820312 54.855469 77.765625 57.003906 78.566406 C 59.4375 79.46875 59.757812 86.148438 59.386719 90.289062 C 58.65625 91.324219 54.417969 97.023438 49.980469 97.023438 C 45.546875 97.023438 41.304688 91.324219 40.570312 90.289062 Z M 45.53125 62.027344 C 46.339844 60.804688 47.878906 60.160156 49.980469 60.160156 C 52.070312 60.160156 53.664062 60.84375 54.46875 62.082031 C 54.894531 62.738281 55.078125 63.519531 55.027344 64.347656 C 54.113281 63.191406 52.515625 62.109375 49.980469 62.109375 C 47.460938 62.109375 45.867188 63.175781 44.949219 64.320312 C 44.90625 63.476562 45.097656 62.683594 45.53125 62.027344 Z M 53.796875 65.339844 C 52.527344 65.144531 51.238281 65.046875 49.980469 65.046875 C 48.71875 65.046875 47.433594 65.144531 46.164062 65.339844 C 46.769531 64.554688 47.90625 63.6875 49.980469 63.6875 C 52.050781 63.6875 53.191406 64.554688 53.796875 65.339844 Z M 35.324219 74.597656 C 36.527344 69.90625 42.550781 66.628906 49.980469 66.628906 C 57.40625 66.628906 63.433594 69.90625 64.632812 74.597656 C 65.863281 79.398438 63.253906 84.625 61.085938 87.910156 C 61.15625 84.261719 60.761719 78.277344 57.554688 77.085938 C 54.664062 76.011719 51.347656 78.964844 49.980469 80.382812 C 48.609375 78.96875 45.300781 76.007812 42.402344 77.085938 C 39.195312 78.277344 38.800781 84.265625 38.871094 87.910156 C 36.707031 84.625 34.09375 79.398438 35.324219 74.597656 Z M 13.429688 98.238281 C 13.949219 95.707031 16.230469 92.796875 18.570312 90.460938 C 18.148438 91.898438 17.972656 93.507812 18.082031 95.28125 C 18.109375 95.699219 18.457031 96.019531 18.871094 96.019531 C 18.886719 96.019531 18.90625 96.019531 18.921875 96.019531 C 19.355469 95.992188 19.6875 95.617188 19.660156 95.179688 C 19.429688 91.546875 20.414062 88.800781 22.574219 87.007812 C 22.867188 86.796875 23.144531 86.605469 23.375 86.464844 C 24.78125 85.59375 26.1875 85.332031 27.542969 85.074219 C 28.671875 84.863281 29.738281 84.660156 30.746094 84.144531 C 32.035156 83.484375 33.265625 82.359375 34.09375 81.511719 C 34.378906 82.515625 34.742188 83.488281 35.152344 84.414062 C 34.472656 85.4375 32.898438 88.316406 34.554688 90.988281 C 35.75 92.90625 37.800781 93.316406 39.328125 93.316406 C 39.957031 93.316406 40.496094 93.246094 40.847656 93.183594 C 42.800781 95.433594 46.21875 98.601562 49.980469 98.601562 C 53.738281 98.601562 57.15625 95.433594 59.109375 93.183594 C 59.464844 93.246094 60 93.316406 60.628906 93.316406 C 62.15625 93.316406 64.207031 92.90625 65.402344 90.988281 C 67.0625 88.316406 65.484375 85.4375 64.804688 84.414062 C 65.214844 83.488281 65.578125 82.515625 65.867188 81.511719 C 66.691406 82.359375 67.921875 83.484375 69.210938 84.144531 C 70.21875 84.660156 71.285156 84.863281 72.414062 85.074219 C 73.773438 85.332031 75.179688 85.59375 76.585938 86.464844 C 76.8125 86.605469 77.089844 86.796875 77.382812 87.007812 C 79.542969 88.796875 80.527344 91.546875 80.300781 95.183594 C 80.273438 95.617188 80.601562 95.992188 81.039062 96.019531 C 81.054688 96.019531 81.070312 96.023438 81.089844 96.023438 C 81.5 96.023438 81.847656 95.699219 81.875 95.28125 C 81.988281 93.507812 81.808594 91.898438 81.386719 90.460938 C 83.726562 92.796875 86.011719 95.707031 86.527344 98.242188 C 87.148438 101.289062 85.425781 107.148438 84.167969 111.425781 C 83.542969 113.5625 83.046875 115.246094 82.957031 116.179688 C 82.839844 117.460938 82.992188 119.46875 83.421875 122.144531 C 83.667969 123.695312 83.136719 125.234375 82.089844 126.242188 C 81.945312 123.402344 81.34375 120.875 80.28125 118.710938 C 80.085938 118.320312 79.617188 118.15625 79.222656 118.351562 C 78.832031 118.542969 78.667969 119.015625 78.863281 119.40625 C 79.9375 121.59375 80.496094 124.214844 80.535156 127.195312 C 80.109375 127.296875 79.65625 127.25 79.261719 127.050781 C 78.753906 126.796875 78.414062 126.339844 78.324219 125.789062 C 77.925781 123.335938 76.644531 119.601562 74.75 119.375 C 74.136719 119.304688 73.203125 119.492188 72.289062 120.808594 C 72.101562 121.078125 71.816406 121.253906 71.488281 121.300781 C 71.152344 121.347656 70.828125 121.253906 70.566406 121.039062 C 70.082031 120.644531 69.992188 119.933594 70.355469 119.421875 C 70.363281 119.410156 70.371094 119.402344 70.378906 119.390625 C 71.714844 117.558594 72.246094 117.148438 72.375 117.066406 C 72.65625 116.890625 73.0625 116.6875 73.578125 116.457031 C 74.214844 116.179688 74.699219 115.667969 74.941406 115.019531 C 75.183594 114.371094 75.152344 113.667969 74.859375 113.039062 C 74.414062 112.09375 73.863281 110.714844 73.78125 109.503906 C 73.65625 107.660156 74.585938 105.789062 74.890625 105.230469 C 75.402344 104.941406 75.785156 104.75 76.335938 104.75 C 77.652344 104.75 78.679688 106.074219 78.699219 106.097656 C 78.960938 106.445312 79.453125 106.515625 79.800781 106.253906 C 80.152344 105.992188 80.222656 105.496094 79.960938 105.148438 C 79.898438 105.070312 78.457031 103.171875 76.335938 103.171875 C 75.3125 103.171875 74.628906 103.5625 73.964844 103.9375 C 73.273438 104.328125 72.558594 104.734375 71.230469 104.875 C 68.738281 105.128906 66.578125 103.777344 66.558594 103.765625 C 66.1875 103.527344 65.703125 103.636719 65.464844 104.003906 C 65.230469 104.371094 65.339844 104.859375 65.707031 105.09375 C 65.769531 105.132812 66.675781 105.703125 68.023438 106.101562 C 66.738281 107.769531 63.695312 111.125 59.929688 111.238281 C 54.90625 111.394531 52.828125 109.070312 52.746094 108.972656 C 52.460938 108.644531 51.964844 108.605469 51.628906 108.886719 C 51.300781 109.171875 51.261719 109.671875 51.546875 110.003906 C 51.648438 110.121094 54.03125 112.828125 59.464844 112.828125 C 59.632812 112.828125 59.804688 112.824219 59.980469 112.820312 C 64.621094 112.675781 68.113281 108.640625 69.441406 106.851562 C 69.792969 107.234375 70.128906 107.628906 70.445312 108.042969 C 69.78125 110.4375 65.328125 124.066406 49.976562 124.066406 C 34.460938 124.066406 30.164062 110.515625 29.507812 108.046875 C 29.824219 107.632812 30.160156 107.234375 30.515625 106.851562 C 31.839844 108.640625 35.335938 112.675781 39.976562 112.820312 C 40.152344 112.824219 40.324219 112.828125 40.492188 112.828125 C 45.925781 112.828125 48.308594 110.121094 48.410156 110.003906 C 48.695312 109.671875 48.65625 109.171875 48.324219 108.890625 C 47.996094 108.605469 47.496094 108.644531 47.210938 108.976562 C 47.191406 109 45.09375 111.394531 40.027344 111.242188 C 36.261719 111.125 33.214844 107.769531 31.929688 106.101562 C 33.28125 105.703125 34.1875 105.136719 34.25 105.09375 C 34.617188 104.859375 34.722656 104.375 34.488281 104.007812 C 34.257812 103.640625 33.769531 103.53125 33.398438 103.765625 C 33.378906 103.777344 31.207031 105.125 28.726562 104.875 C 27.398438 104.738281 26.683594 104.332031 25.992188 103.9375 C 25.328125 103.5625 24.644531 103.171875 23.621094 103.171875 C 21.5 103.171875 20.054688 105.070312 19.996094 105.148438 C 19.734375 105.496094 19.804688 105.988281 20.152344 106.25 C 20.5 106.515625 20.996094 106.445312 21.257812 106.097656 C 21.269531 106.085938 22.296875 104.75 23.617188 104.75 C 24.171875 104.75 24.554688 104.941406 25.066406 105.230469 C 25.371094 105.785156 26.300781 107.648438 26.175781 109.503906 C 26.113281 110.457031 25.738281 111.679688 25.097656 113.039062 C 24.804688 113.667969 24.773438 114.371094 25.015625 115.019531 C 25.257812 115.667969 25.742188 116.179688 26.378906 116.457031 C 26.886719 116.683594 27.304688 116.894531 27.582031 117.066406 C 27.710938 117.148438 28.242188 117.558594 29.582031 119.394531 C 29.589844 119.402344 29.589844 119.410156 29.597656 119.417969 C 29.964844 119.933594 29.875 120.640625 29.390625 121.039062 C 29.128906 121.253906 28.804688 121.347656 28.46875 121.296875 C 28.140625 121.25 27.855469 121.078125 27.667969 120.808594 C 26.753906 119.492188 25.820312 119.300781 25.207031 119.375 C 23.3125 119.601562 22.03125 123.335938 21.632812 125.789062 C 21.542969 126.339844 21.203125 126.796875 20.695312 127.050781 C 20.300781 127.25 19.847656 127.296875 19.421875 127.191406 C 19.460938 124.210938 20.019531 121.589844 21.097656 119.40625 C 21.289062 119.015625 21.125 118.542969 20.734375 118.347656 C 20.347656 118.15625 19.871094 118.316406 19.679688 118.710938 C 18.613281 120.871094 18.011719 123.402344 17.867188 126.242188 C 16.820312 125.230469 16.289062 123.695312 16.535156 122.144531 C 16.964844 119.464844 17.117188 117.457031 17 116.175781 C 16.910156 115.246094 16.414062 113.5625 15.789062 111.425781 C 14.53125 107.148438 12.808594 101.289062 13.429688 98.238281 Z M 49.980469 127.246094 C 36.574219 127.246094 30.957031 118.609375 30.902344 118.523438 C 30.898438 118.519531 30.894531 118.515625 30.890625 118.511719 C 30.882812 118.5 30.878906 118.488281 30.871094 118.480469 C 29.238281 116.238281 28.621094 115.855469 28.417969 115.726562 C 28.074219 115.511719 27.601562 115.269531 27.015625 115.011719 C 26.773438 114.90625 26.589844 114.710938 26.5 114.464844 C 26.40625 114.21875 26.417969 113.953125 26.53125 113.714844 C 26.753906 113.242188 26.9375 112.792969 27.097656 112.351562 C 27.101562 112.34375 27.109375 112.335938 27.117188 112.324219 C 27.480469 111.390625 27.917969 110.539062 28.394531 109.722656 C 29.941406 114.144531 35.371094 125.644531 49.980469 125.644531 C 64.585938 125.644531 70.019531 114.144531 71.566406 109.722656 C 72.042969 110.535156 72.480469 111.390625 72.84375 112.324219 C 72.847656 112.335938 72.855469 112.339844 72.859375 112.351562 C 73.023438 112.789062 73.207031 113.238281 73.429688 113.710938 C 73.542969 113.953125 73.554688 114.21875 73.460938 114.464844 C 73.367188 114.710938 73.183594 114.90625 72.941406 115.011719 C 72.359375 115.269531 71.886719 115.511719 71.539062 115.726562 C 71.335938 115.855469 70.71875 116.238281 69.085938 118.480469 C 69.078125 118.488281 69.074219 118.5 69.066406 118.511719 C 69.0625 118.515625 69.058594 118.519531 69.054688 118.523438 C 69 118.613281 63.382812 127.246094 49.980469 127.246094 Z M 27.65625 107.890625 C 27.554688 107.273438 27.394531 106.695312 27.214844 106.191406 C 27.609375 106.300781 28.050781 106.390625 28.566406 106.445312 C 28.621094 106.449219 28.675781 106.449219 28.730469 106.453125 C 28.347656 106.910156 27.992188 107.390625 27.65625 107.890625 Z M 71.226562 106.453125 C 71.28125 106.449219 71.335938 106.449219 71.390625 106.445312 C 71.910156 106.390625 72.347656 106.300781 72.742188 106.191406 C 72.5625 106.695312 72.402344 107.273438 72.300781 107.886719 C 71.964844 107.390625 71.609375 106.910156 71.226562 106.453125 Z M 27.601562 136.535156 C 24.230469 136.535156 22.480469 135.351562 20.929688 134.3125 C 19.847656 133.582031 18.824219 132.894531 17.511719 132.894531 C 14.363281 132.894531 12.960938 135.832031 12.902344 135.957031 C 12.71875 136.351562 12.890625 136.816406 13.28125 137.003906 C 13.675781 137.1875 14.148438 137.019531 14.332031 136.628906 C 14.375 136.539062 15.382812 134.476562 17.511719 134.476562 C 18.34375 134.476562 19.09375 134.980469 20.046875 135.621094 C 20.464844 135.902344 20.929688 136.210938 21.449219 136.511719 C 21.59375 137.074219 21.871094 138.488281 21.417969 139.953125 C 21.144531 140.835938 20.035156 142.105469 18.902344 143.222656 C 18.898438 143.226562 18.894531 143.230469 18.890625 143.234375 C 17.992188 144.125 17.074219 144.917969 16.550781 145.34375 C 16.210938 145.617188 16.160156 146.113281 16.433594 146.453125 C 16.59375 146.644531 16.820312 146.746094 17.050781 146.746094 C 17.222656 146.746094 17.398438 146.6875 17.546875 146.570312 C 17.6875 146.453125 18.171875 146.058594 18.789062 145.503906 C 19.019531 147.121094 19.574219 148.730469 20.476562 150.386719 C 21.066406 151.472656 21.042969 152.757812 20.40625 153.824219 C 19.769531 154.894531 18.648438 155.535156 17.402344 155.535156 L 2.546875 155.535156 C 2.109375 155.535156 1.902344 155.238281 1.835938 155.109375 C 1.765625 154.980469 1.632812 154.644531 1.871094 154.28125 C 2.382812 153.503906 3.136719 152.929688 3.992188 152.660156 C 6.269531 151.949219 7.75 150.734375 8.445312 149.054688 C 9.511719 149.839844 10.773438 150.257812 10.960938 150.316406 C 11.039062 150.339844 11.117188 150.351562 11.195312 150.351562 C 11.53125 150.351562 11.84375 150.136719 11.949219 149.796875 C 12.078125 149.382812 11.847656 148.9375 11.433594 148.808594 C 10.878906 148.632812 9.308594 147.992188 8.699219 147.121094 C 7.773438 145.804688 3.144531 135.195312 4.082031 129.792969 C 4.828125 125.511719 12.449219 119.816406 15.445312 117.730469 C 15.398438 118.820312 15.246094 120.226562 14.976562 121.898438 C 14.578125 124.414062 15.714844 126.941406 17.804688 128.179688 C 17.953125 128.269531 18.105469 128.351562 18.257812 128.433594 C 18.273438 128.445312 18.292969 128.449219 18.3125 128.457031 C 18.316406 128.460938 18.316406 128.460938 18.320312 128.464844 C 18.804688 128.703125 19.332031 128.828125 19.863281 128.828125 C 20.390625 128.828125 20.921875 128.707031 21.40625 128.464844 C 22.371094 127.980469 23.019531 127.097656 23.191406 126.042969 C 23.675781 123.054688 24.910156 121.015625 25.394531 120.945312 C 25.65625 120.921875 26.011719 121.191406 26.371094 121.710938 C 26.808594 122.335938 27.492188 122.757812 28.25 122.863281 C 29.019531 122.96875 29.796875 122.75 30.394531 122.261719 C 30.535156 122.144531 30.664062 122.015625 30.78125 121.875 C 30.976562 123.125 30.855469 124.390625 30.742188 125.542969 C 30.652344 126.46875 30.5625 127.347656 30.652344 128.125 C 30.796875 129.429688 31.609375 130.28125 32.394531 131.109375 C 33.03125 131.777344 33.632812 132.410156 33.867188 133.265625 C 34.121094 134.179688 33.898438 134.800781 33.621094 135.589844 C 33.597656 135.660156 33.574219 135.734375 33.546875 135.804688 C 31.550781 136.28125 29.550781 136.535156 27.601562 136.535156 Z M 38.382812 146.117188 C 38.453125 144.863281 38.425781 143.429688 38.074219 142.53125 C 37.730469 141.648438 37.023438 141.050781 36.34375 140.472656 C 35.554688 139.800781 34.867188 139.222656 34.75 138.269531 C 34.644531 137.429688 34.859375 136.820312 35.109375 136.117188 C 35.421875 135.238281 35.773438 134.238281 35.390625 132.84375 C 35.050781 131.609375 34.246094 130.761719 33.539062 130.019531 C 32.875 129.324219 32.304688 128.726562 32.21875 127.949219 C 32.152344 127.335938 32.230469 126.539062 32.3125 125.695312 C 32.40625 124.765625 32.503906 123.707031 32.441406 122.601562 C 33.890625 123.90625 35.921875 125.375 38.605469 126.558594 C 38.261719 127.371094 37.878906 128.671875 38.222656 129.945312 C 38.46875 130.851562 39.039062 131.488281 39.542969 132.050781 C 40.164062 132.738281 40.699219 133.332031 40.699219 134.386719 C 40.699219 135.539062 40.246094 136.839844 39.867188 137.726562 C 39.425781 138.757812 39.445312 139.933594 39.917969 141.035156 C 40.171875 141.621094 40.300781 142.199219 40.300781 142.753906 C 40.304688 143.449219 39.410156 144.820312 38.382812 146.117188 Z M 41.910156 136.695312 C 42.121094 135.960938 42.277344 135.160156 42.277344 134.386719 C 42.277344 132.726562 41.414062 131.765625 40.71875 130.996094 C 40.277344 130.503906 39.894531 130.078125 39.75 129.539062 C 39.519531 128.683594 39.816406 127.738281 40.070312 127.148438 C 41.390625 127.632812 42.851562 128.042969 44.449219 128.335938 C 43.910156 129.492188 43.191406 131.445312 43.476562 133.226562 C 43.691406 134.5625 44.261719 135.320312 44.761719 135.992188 C 45.265625 136.660156 45.628906 137.144531 45.640625 138.167969 C 45.640625 138.25 45.628906 138.316406 45.628906 138.390625 C 44.394531 137.984375 43.152344 137.417969 41.910156 136.695312 Z M 50.316406 150.558594 C 48.347656 148.800781 45.714844 146.046875 45.714844 144.222656 C 45.714844 142.660156 46.089844 141.878906 46.480469 141.054688 C 46.6875 140.621094 46.898438 140.175781 47.039062 139.640625 C 47.042969 139.636719 47.042969 139.636719 47.046875 139.632812 C 47.046875 139.628906 47.046875 139.625 47.046875 139.621094 C 47.15625 139.199219 47.230469 138.722656 47.222656 138.148438 C 47.203125 136.609375 46.578125 135.777344 46.03125 135.042969 C 45.582031 134.445312 45.191406 133.925781 45.039062 132.972656 C 44.78125 131.378906 45.644531 129.449219 46.085938 128.589844 C 47.308594 128.742188 48.605469 128.828125 49.980469 128.828125 C 50.945312 128.828125 51.871094 128.78125 52.761719 128.703125 C 52.171875 129.757812 51.527344 131.195312 51.582031 132.363281 C 51.621094 133.210938 51.933594 133.890625 52.261719 134.613281 C 52.710938 135.597656 53.21875 136.710938 53.125 138.628906 C 53.070312 139.765625 52.59375 140.992188 52.042969 142.414062 C 51.199219 144.582031 50.183594 147.195312 50.316406 150.558594 Z M 54.710938 138.21875 C 54.714844 136.214844 54.160156 134.96875 53.699219 133.957031 C 53.410156 133.328125 53.1875 132.832031 53.160156 132.289062 C 53.113281 131.285156 54.050781 129.523438 54.761719 128.464844 C 56.613281 128.175781 58.28125 127.730469 59.777344 127.1875 C 60.019531 127.769531 60.300781 128.691406 60.074219 129.535156 C 59.925781 130.078125 59.546875 130.503906 59.101562 130.996094 C 58.410156 131.765625 57.542969 132.726562 57.542969 134.386719 C 57.542969 135.160156 57.699219 135.960938 57.914062 136.695312 C 56.847656 137.316406 55.773438 137.832031 54.710938 138.21875 Z M 65.074219 138.269531 C 64.957031 139.222656 64.269531 139.800781 63.476562 140.472656 C 62.796875 141.050781 62.09375 141.648438 61.75 142.53125 C 61.398438 143.429688 61.371094 144.863281 61.441406 146.117188 C 60.414062 144.820312 59.519531 143.449219 59.519531 142.753906 C 59.519531 142.199219 59.648438 141.621094 59.902344 141.035156 C 60.378906 139.933594 60.398438 138.757812 59.953125 137.726562 C 59.574219 136.839844 59.125 135.539062 59.125 134.386719 C 59.125 133.332031 59.65625 132.738281 60.277344 132.050781 C 60.78125 131.488281 61.355469 130.851562 61.597656 129.945312 C 61.9375 128.679688 61.578125 127.40625 61.242188 126.605469 C 63.917969 125.4375 65.953125 123.988281 67.414062 122.691406 C 67.347656 123.78125 67.4375 124.820312 67.519531 125.734375 C 67.597656 126.558594 67.667969 127.335938 67.601562 127.949219 C 67.515625 128.726562 66.945312 129.324219 66.285156 130.019531 C 65.574219 130.761719 64.769531 131.609375 64.429688 132.84375 C 64.046875 134.238281 64.402344 135.234375 64.710938 136.117188 C 64.964844 136.820312 65.179688 137.429688 65.074219 138.269531 Z M 97.988281 155.109375 C 97.921875 155.238281 97.714844 155.535156 97.277344 155.535156 L 82.421875 155.535156 C 81.175781 155.535156 80.050781 154.894531 79.414062 153.824219 C 78.78125 152.757812 78.757812 151.472656 79.347656 150.386719 C 80.25 148.730469 80.804688 147.121094 81.035156 145.503906 C 81.652344 146.058594 82.132812 146.453125 82.277344 146.570312 C 82.421875 146.6875 82.597656 146.746094 82.773438 146.746094 C 83.003906 146.746094 83.230469 146.644531 83.386719 146.453125 C 83.664062 146.113281 83.609375 145.617188 83.273438 145.339844 C 82.746094 144.917969 81.832031 144.125 80.929688 143.234375 C 80.925781 143.230469 80.925781 143.226562 80.917969 143.222656 C 79.785156 142.101562 78.679688 140.832031 78.40625 139.953125 C 77.953125 138.488281 78.230469 137.074219 78.375 136.511719 C 78.894531 136.210938 79.359375 135.902344 79.777344 135.621094 C 80.730469 134.980469 81.480469 134.472656 82.3125 134.472656 C 84.441406 134.472656 85.449219 136.539062 85.492188 136.625 C 85.671875 137.019531 86.140625 137.191406 86.539062 137.007812 C 86.933594 136.820312 87.105469 136.351562 86.921875 135.957031 C 86.863281 135.832031 85.460938 132.894531 82.3125 132.894531 C 81 132.894531 79.976562 133.582031 78.894531 134.3125 C 77.34375 135.351562 75.589844 136.53125 72.222656 136.53125 C 70.273438 136.53125 68.273438 136.28125 66.277344 135.800781 C 66.25 135.730469 66.226562 135.65625 66.203125 135.589844 C 65.925781 134.800781 65.703125 134.179688 65.957031 133.261719 C 66.191406 132.410156 66.792969 131.777344 67.429688 131.105469 C 68.214844 130.28125 69.027344 129.429688 69.171875 128.125 C 69.257812 127.351562 69.179688 126.496094 69.09375 125.589844 C 68.984375 124.398438 68.863281 123.085938 69.113281 121.78125 C 69.246094 121.953125 69.390625 122.117188 69.566406 122.261719 C 70.164062 122.75 70.949219 122.972656 71.707031 122.863281 C 72.464844 122.757812 73.148438 122.335938 73.585938 121.710938 C 73.945312 121.191406 74.300781 120.902344 74.5625 120.945312 C 75.046875 121.015625 76.28125 123.058594 76.765625 126.042969 C 76.9375 127.097656 77.585938 127.980469 78.550781 128.460938 C 79.035156 128.703125 79.566406 128.824219 80.097656 128.824219 C 80.625 128.824219 81.152344 128.703125 81.636719 128.460938 C 81.640625 128.460938 81.640625 128.460938 81.644531 128.457031 C 81.664062 128.449219 81.679688 128.445312 81.699219 128.433594 C 81.851562 128.351562 82.003906 128.269531 82.152344 128.179688 C 84.242188 126.941406 85.378906 124.414062 84.980469 121.894531 C 84.714844 120.230469 84.558594 118.828125 84.515625 117.738281 C 87.484375 119.835938 95 125.519531 95.742188 129.792969 C 96.679688 135.191406 92.050781 145.804688 91.125 147.121094 C 90.519531 147.984375 88.945312 148.632812 88.390625 148.808594 C 87.972656 148.941406 87.742188 149.382812 87.875 149.796875 C 87.980469 150.136719 88.292969 150.351562 88.628906 150.351562 C 88.707031 150.351562 88.785156 150.339844 88.863281 150.316406 C 89.050781 150.257812 90.3125 149.839844 91.378906 149.054688 C 92.074219 150.730469 93.554688 151.949219 95.832031 152.660156 C 96.6875 152.929688 97.4375 153.503906 97.953125 154.28125 C 98.191406 154.644531 98.058594 154.980469 97.988281 155.109375 Z M 97.988281 155.109375 " fill-opacity="1" fill-rule="nonzero"/></g><path fill="#bd1509" d="M 89.367188 133.648438 C 90.296875 133.980469 90.9375 134.671875 91.324219 135.769531 C 91.441406 136.089844 91.746094 136.292969 92.070312 136.292969 C 92.15625 136.292969 92.246094 136.28125 92.332031 136.25 C 92.746094 136.105469 92.960938 135.652344 92.8125 135.242188 C 92.265625 133.691406 91.285156 132.65625 89.898438 132.164062 C 89.484375 132.015625 89.035156 132.230469 88.890625 132.640625 C 88.742188 133.050781 88.957031 133.503906 89.367188 133.648438 Z M 89.367188 133.648438 " fill-opacity="1" fill-rule="nonzero"/><g fill="#bd1509" fill-opacity="1"><g transform="translate(87.256454, 124.076796)"><g><path d="M 6.039062 0 L 24.972656 0 C 31.148438 0 35.644531 -4.496094 35.644531 -10.671875 L 35.644531 -11.488281 C 35.644531 -17.664062 31.148438 -22.15625 24.972656 -22.15625 L 15.890625 -22.15625 C 14.257812 -22.15625 12.941406 -23.472656 12.941406 -25.109375 C 12.941406 -26.789062 14.257812 -28.105469 15.890625 -28.105469 L 32.601562 -28.105469 C 34.328125 -28.105469 35.644531 -29.421875 35.644531 -31.148438 L 35.644531 -33.28125 C 35.644531 -35.007812 34.328125 -36.324219 32.601562 -36.324219 L 13.667969 -36.324219 C 7.492188 -36.324219 2.996094 -31.828125 2.996094 -25.652344 L 2.996094 -24.882812 C 2.996094 -18.707031 7.492188 -14.210938 13.667969 -14.210938 L 22.703125 -14.210938 C 24.382812 -14.210938 25.699219 -12.851562 25.699219 -11.214844 C 25.699219 -9.535156 24.382812 -8.21875 22.703125 -8.21875 L 6.039062 -8.21875 C 4.3125 -8.21875 2.996094 -6.902344 2.996094 -5.175781 L 2.996094 -3.042969 C 2.996094 -1.316406 4.3125 0 6.039062 0 Z M 6.039062 0 "/></g></g></g><g fill="#bd1509" fill-opacity="1"><g transform="translate(125.890447, 124.076796)"><g><path d="M 14.121094 0 L 17.707031 0 C 24.15625 0 28.832031 -4.675781 28.832031 -11.125 L 28.832031 -33.28125 C 28.832031 -35.007812 27.515625 -36.324219 25.789062 -36.324219 L 21.929688 -36.324219 C 20.207031 -36.324219 18.886719 -35.007812 18.886719 -33.28125 L 18.886719 -11.214844 C 18.886719 -9.535156 17.570312 -8.21875 15.890625 -8.21875 C 14.257812 -8.21875 12.941406 -9.535156 12.941406 -11.214844 L 12.941406 -33.28125 C 12.941406 -35.007812 11.625 -36.324219 9.898438 -36.324219 L 6.039062 -36.324219 C 4.3125 -36.324219 2.996094 -35.007812 2.996094 -33.28125 L 2.996094 -11.125 C 2.996094 -4.675781 7.671875 0 14.121094 0 Z M 14.121094 0 "/></g></g></g><g fill="#bd1509" fill-opacity="1"><g transform="translate(157.714691, 124.076796)"><g><path d="M 6.039062 0 L 9.898438 0 C 11.625 0 12.941406 -1.316406 12.941406 -3.042969 L 12.941406 -25.109375 C 12.941406 -26.789062 14.257812 -28.105469 15.890625 -28.105469 C 17.570312 -28.105469 18.886719 -26.789062 18.886719 -25.109375 L 18.886719 -3.132812 C 18.886719 -1.363281 20.160156 0 21.929688 0 L 25.789062 0 C 27.5625 0 28.832031 -1.40625 28.832031 -3.132812 L 28.832031 -25.109375 C 28.832031 -26.789062 30.148438 -28.105469 31.785156 -28.105469 C 33.464844 -28.105469 34.78125 -26.789062 34.78125 -25.109375 L 34.78125 -3.042969 C 34.78125 -1.316406 36.097656 0 37.824219 0 L 41.683594 0 C 43.40625 0 44.722656 -1.316406 44.722656 -3.042969 L 44.722656 -33.28125 C 44.722656 -35.007812 43.40625 -36.324219 41.683594 -36.324219 L 29.875 -36.324219 C 28.152344 -36.324219 26.835938 -35.007812 26.835938 -33.28125 L 26.835938 -32.511719 C 26.835938 -30.875 25.519531 -29.558594 23.835938 -29.558594 C 22.203125 -29.558594 20.886719 -30.875 20.886719 -32.511719 L 20.886719 -33.28125 C 20.886719 -35.007812 19.570312 -36.324219 17.84375 -36.324219 L 6.039062 -36.324219 C 4.3125 -36.324219 2.996094 -35.007812 2.996094 -33.28125 L 2.996094 -3.042969 C 2.996094 -1.316406 4.3125 0 6.039062 0 Z M 6.039062 0 "/></g></g></g><g fill="#bd1509" fill-opacity="1"><g transform="translate(205.428357, 124.076796)"><g><path d="M 14.121094 0 L 17.707031 0 C 24.15625 0 28.832031 -4.675781 28.832031 -11.125 L 28.832031 -25.199219 C 28.832031 -31.648438 24.15625 -36.324219 17.707031 -36.324219 L 14.121094 -36.324219 C 7.671875 -36.324219 2.996094 -31.648438 2.996094 -25.199219 L 2.996094 -11.125 C 2.996094 -4.675781 7.671875 0 14.121094 0 Z M 15.890625 -8.21875 C 14.257812 -8.21875 12.941406 -9.535156 12.941406 -11.214844 L 12.941406 -25.109375 C 12.941406 -26.789062 14.257812 -28.105469 15.890625 -28.105469 C 17.570312 -28.105469 18.886719 -26.789062 18.886719 -25.109375 L 18.886719 -11.214844 C 18.886719 -9.535156 17.570312 -8.21875 15.890625 -8.21875 Z M 15.890625 -8.21875 "/></g></g></g><g fill="#bd1509" fill-opacity="1"><g transform="translate(237.252601, 124.076796)"><g><path d="M 6.039062 0 L 9.898438 0 C 11.625 0 12.941406 -1.316406 12.941406 -3.042969 L 12.941406 -11.261719 C 12.941406 -12.894531 14.257812 -14.210938 15.890625 -14.210938 L 22.703125 -14.210938 C 24.382812 -14.210938 25.699219 -12.894531 25.699219 -11.261719 L 25.699219 -3.042969 C 25.699219 -1.316406 27.015625 0 28.742188 0 L 32.601562 0 C 34.328125 0 35.644531 -1.316406 35.644531 -3.042969 L 35.644531 -12.394531 C 35.644531 -14.03125 34.460938 -15.164062 32.828125 -15.164062 L 32.417969 -15.164062 C 30.785156 -15.164062 29.46875 -16.480469 29.46875 -18.160156 C 29.46875 -19.84375 30.785156 -21.160156 32.417969 -21.160156 L 32.511719 -21.160156 C 34.328125 -21.160156 35.644531 -22.476562 35.644531 -24.292969 L 35.644531 -27.0625 C 35.644531 -32.417969 31.738281 -36.324219 26.378906 -36.324219 L 6.039062 -36.324219 C 4.3125 -36.324219 2.996094 -35.007812 2.996094 -33.28125 L 2.996094 -3.042969 C 2.996094 -1.316406 4.3125 0 6.039062 0 Z M 15.890625 -22.15625 C 14.257812 -22.15625 12.941406 -23.472656 12.941406 -25.109375 C 12.941406 -26.789062 14.257812 -28.105469 15.890625 -28.105469 L 22.703125 -28.105469 C 24.382812 -28.105469 25.699219 -26.789062 25.699219 -25.109375 C 25.699219 -23.472656 24.382812 -22.15625 22.703125 -22.15625 Z M 15.890625 -22.15625 "/></g></g></g><g fill="#bd1509" fill-opacity="1"><g transform="translate(275.886595, 124.076796)"><g><path d="M 6.039062 0 L 9.898438 0 C 11.625 0 12.941406 -1.316406 12.941406 -3.042969 L 12.941406 -33.28125 C 12.941406 -35.007812 11.625 -36.324219 9.898438 -36.324219 L 6.039062 -36.324219 C 4.3125 -36.324219 2.996094 -35.007812 2.996094 -33.28125 L 2.996094 -3.042969 C 2.996094 -1.316406 4.3125 0 6.039062 0 Z M 6.039062 0 "/></g></g></g><g fill="#bd1509" fill-opacity="1"><g transform="translate(291.821416, 124.076796)"><g><path d="M 6.085938 0 L 32.601562 0 C 34.328125 0 35.644531 -1.316406 35.644531 -3.042969 L 35.644531 -5.175781 C 35.644531 -6.902344 34.328125 -8.21875 32.601562 -8.21875 L 15.9375 -8.21875 C 14.257812 -8.21875 12.941406 -9.535156 12.941406 -11.214844 C 12.941406 -12.851562 14.257812 -13.984375 15.9375 -14.210938 L 33.054688 -16.574219 C 34.554688 -16.800781 35.644531 -17.980469 35.644531 -19.523438 L 35.644531 -33.238281 C 35.644531 -35.007812 34.328125 -36.324219 32.554688 -36.324219 L 6.085938 -36.324219 C 4.3125 -36.324219 2.996094 -35.007812 2.996094 -33.28125 L 2.996094 -31.148438 C 2.996094 -29.421875 4.3125 -28.105469 6.085938 -28.105469 L 22.746094 -28.105469 C 24.382812 -28.105469 25.699219 -26.789062 25.699219 -25.109375 C 25.699219 -23.472656 24.382812 -22.382812 22.746094 -22.15625 L 5.585938 -19.796875 C 4.085938 -19.570312 2.996094 -18.390625 2.996094 -16.84375 L 2.996094 -3.042969 C 2.996094 -1.316406 4.3125 0 6.085938 0 Z M 6.085938 0 "/></g></g></g><g fill="#bd1509" fill-opacity="1"><g transform="translate(330.455409, 124.076796)"><g><path d="M 6.039062 0 L 32.644531 0 C 34.371094 0 35.6875 -1.316406 35.6875 -3.042969 L 35.6875 -5.175781 C 35.6875 -6.902344 34.371094 -8.21875 32.644531 -8.21875 L 15.890625 -8.21875 C 14.257812 -8.21875 12.941406 -9.535156 12.941406 -11.214844 C 12.941406 -12.851562 14.257812 -14.210938 15.890625 -14.210938 L 30.828125 -14.210938 C 32.511719 -14.210938 33.871094 -15.527344 33.871094 -17.300781 L 33.871094 -19.117188 C 33.871094 -20.839844 32.554688 -22.15625 30.828125 -22.15625 L 15.890625 -22.15625 C 14.257812 -22.15625 12.941406 -23.472656 12.941406 -25.109375 C 12.941406 -26.789062 14.257812 -28.105469 15.890625 -28.105469 L 32.644531 -28.105469 C 34.371094 -28.105469 35.6875 -29.421875 35.6875 -31.148438 L 35.6875 -33.28125 C 35.6875 -35.007812 34.371094 -36.324219 32.644531 -36.324219 L 6.039062 -36.324219 C 4.3125 -36.324219 2.996094 -35.007812 2.996094 -33.28125 L 2.996094 -3.042969 C 2.996094 -1.316406 4.3125 0 6.039062 0 Z M 6.039062 0 "/></g></g></g><path stroke-linecap="butt" transform="matrix(0.75, 0, 0, 0.75, 77.386528, 73.320153)" fill="none" stroke-linejoin="miter" d="M 18.541922 65.000215 L 43.786715 65.000215 C 52.015882 65.000215 58.005465 59.000215 58.005465 50.765839 L 58.005465 49.687714 C 58.005465 41.453339 52.015882 35.453339 43.786715 35.453339 L 31.677339 35.453339 C 29.489839 35.453339 27.734631 33.692922 27.734631 31.521047 C 27.734631 29.276255 29.489839 27.531463 31.677339 27.531463 L 53.953382 27.531463 C 56.260673 27.531463 58.005465 25.771047 58.005465 23.468963 L 58.005465 20.630421 C 58.005465 18.32313 56.260673 16.562713 53.953382 16.562713 L 28.708589 16.562713 C 20.474214 16.562713 14.474213 22.567921 14.474213 30.797088 L 14.474213 31.817922 C 14.474213 40.052297 20.474214 46.052297 28.708589 46.052297 L 40.755464 46.052297 C 43.000256 46.052297 44.745048 47.870006 44.745048 50.041881 C 44.745048 52.286673 43.000256 54.047089 40.755464 54.047089 L 18.541922 54.047089 C 16.23463 54.047089 14.474213 55.791881 14.474213 58.099173 L 14.474213 60.948131 C 14.474213 63.239798 16.23463 65.000215 18.541922 65.000215 Z M 80.828383 65.000215 L 85.599216 65.000215 C 94.203383 65.000215 100.437759 58.760631 100.437759 50.161673 L 100.437759 20.630421 C 100.437759 18.32313 98.68255 16.562713 96.390883 16.562713 L 91.229425 16.562713 C 88.942966 16.562713 87.18255 18.32313 87.18255 20.630421 L 87.18255 50.041881 C 87.18255 52.286673 85.422133 54.047089 83.192966 54.047089 C 81.005466 54.047089 79.245049 52.286673 79.245049 50.041881 L 79.245049 20.630421 C 79.245049 18.32313 77.500258 16.562713 75.192966 16.562713 L 70.052341 16.562713 C 67.745049 16.562713 65.984632 18.32313 65.984632 20.630421 L 65.984632 50.161673 C 65.984632 58.760631 72.224216 65.000215 80.828383 65.000215 Z M 112.484634 65.000215 L 117.625259 65.000215 C 119.932551 65.000215 121.677343 63.239798 121.677343 60.948131 L 121.677343 31.521047 C 121.677343 29.276255 123.43776 27.531463 125.62526 27.531463 C 127.854426 27.531463 129.614843 29.276255 129.614843 31.521047 L 129.614843 60.817923 C 129.614843 63.182507 131.31276 65.000215 133.661718 65.000215 L 138.823177 65.000215 C 141.172135 65.000215 142.870052 63.125215 142.870052 60.817923 L 142.870052 31.521047 C 142.870052 29.276255 144.630469 27.531463 146.802344 27.531463 C 149.052344 27.531463 150.807552 29.276255 150.807552 31.521047 L 150.807552 60.948131 C 150.807552 63.239798 152.552344 65.000215 154.859636 65.000215 L 160.000261 65.000215 C 162.307553 65.000215 164.06797 63.239798 164.06797 60.948131 L 164.06797 20.630421 C 164.06797 18.32313 162.307553 16.562713 160.000261 16.562713 L 144.260677 16.562713 C 141.96901 16.562713 140.213802 18.32313 140.213802 20.630421 L 140.213802 21.651255 C 140.213802 23.838755 138.453385 25.593963 136.208593 25.593963 C 134.03151 25.593963 132.276302 23.838755 132.276302 21.651255 L 132.276302 20.630421 C 132.276302 18.32313 130.515885 16.562713 128.224218 16.562713 L 112.484634 16.562713 C 110.177342 16.562713 108.416926 18.32313 108.416926 20.630421 L 108.416926 60.948131 C 108.416926 63.239798 110.177342 65.000215 112.484634 65.000215 Z M 186.875262 65.000215 L 191.651304 65.000215 C 200.255471 65.000215 206.489846 58.760631 206.489846 50.161673 L 206.489846 31.406464 C 206.489846 22.802296 200.255471 16.562713 191.651304 16.562713 L 186.875262 16.562713 C 178.276303 16.562713 172.03672 22.802296 172.03672 31.406464 L 172.03672 50.161673 C 172.03672 58.760631 178.276303 65.000215 186.875262 65.000215 Z M 189.239846 54.047089 C 187.052345 54.047089 185.297137 52.286673 185.297137 50.041881 L 185.297137 31.521047 C 185.297137 29.276255 187.052345 27.531463 189.239846 27.531463 C 191.474221 27.531463 193.234637 29.276255 193.234637 31.521047 L 193.234637 50.041881 C 193.234637 52.286673 191.474221 54.047089 189.239846 54.047089 Z M 218.536722 65.000215 L 223.677347 65.000215 C 225.984639 65.000215 227.729431 63.239798 227.729431 60.948131 L 227.729431 49.984589 C 227.729431 47.812714 229.484639 46.052297 231.672139 46.052297 L 240.750264 46.052297 C 242.995056 46.052297 244.739848 47.812714 244.739848 49.984589 L 244.739848 60.948131 C 244.739848 63.239798 246.500265 65.000215 248.802348 65.000215 L 253.948182 65.000215 C 256.255473 65.000215 258.000265 63.239798 258.000265 60.948131 L 258.000265 48.474173 C 258.000265 46.286672 256.432557 44.781464 254.245057 44.781464 L 253.713807 44.781464 C 251.526307 44.781464 249.76589 43.021047 249.76589 40.791881 C 249.76589 38.54188 251.526307 36.786672 253.713807 36.786672 L 253.82839 36.786672 C 256.255473 36.786672 258.000265 35.026255 258.000265 32.614797 L 258.000265 28.922088 C 258.000265 21.765838 252.79714 16.562713 245.656515 16.562713 L 218.536722 16.562713 C 216.22943 16.562713 214.469013 18.32313 214.469013 20.630421 L 214.469013 60.948131 C 214.469013 63.239798 216.22943 65.000215 218.536722 65.000215 Z M 231.672139 35.453339 C 229.484639 35.453339 227.729431 33.692922 227.729431 31.521047 C 227.729431 29.276255 229.484639 27.531463 231.672139 27.531463 L 240.750264 27.531463 C 242.995056 27.531463 244.739848 29.276255 244.739848 31.521047 C 244.739848 33.692922 242.995056 35.453339 240.750264 35.453339 Z M 270.047141 65.000215 L 275.187766 65.000215 C 277.495058 65.000215 279.239849 63.239798 279.239849 60.948131 L 279.239849 20.630421 C 279.239849 18.32313 277.495058 16.562713 275.187766 16.562713 L 270.047141 16.562713 C 267.739849 16.562713 265.979432 18.32313 265.979432 20.630421 L 265.979432 60.948131 C 265.979432 63.239798 267.739849 65.000215 270.047141 65.000215 Z M 291.354433 65.000215 L 326.708601 65.000215 C 329.010685 65.000215 330.755476 63.239798 330.755476 60.948131 L 330.755476 58.099173 C 330.755476 55.791881 329.010685 54.047089 326.708601 54.047089 L 304.48985 54.047089 C 302.245059 54.047089 300.484642 52.286673 300.484642 50.041881 C 300.484642 47.870006 302.245059 46.349172 304.48985 46.052297 L 327.312768 42.901256 C 329.30756 42.593964 330.755476 41.026256 330.755476 38.974172 L 330.755476 20.687713 C 330.755476 18.32313 329.010685 16.562713 326.646101 16.562713 L 291.354433 16.562713 C 288.984641 16.562713 287.229433 18.32313 287.229433 20.630421 L 287.229433 23.468963 C 287.229433 25.771047 288.984641 27.531463 291.354433 27.531463 L 313.567976 27.531463 C 315.755476 27.531463 317.500268 29.276255 317.500268 31.521047 C 317.500268 33.692922 315.755476 35.156464 313.567976 35.453339 L 290.687766 38.60438 C 288.692975 38.911672 287.229433 40.479381 287.229433 42.531464 L 287.229433 60.948131 C 287.229433 63.239798 288.984641 65.000215 291.354433 65.000215 Z M 342.802352 65.000215 L 378.276312 65.000215 C 380.583604 65.000215 382.328395 63.239798 382.328395 60.948131 L 382.328395 58.099173 C 382.328395 55.791881 380.583604 54.047089 378.276312 54.047089 L 355.942978 54.047089 C 353.755477 54.047089 352.000269 52.286673 352.000269 50.041881 C 352.000269 47.870006 353.755477 46.052297 355.942978 46.052297 L 375.854437 46.052297 C 378.099228 46.052297 379.916937 44.291881 379.916937 41.927297 L 379.916937 39.521047 C 379.916937 37.213755 378.161728 35.453339 375.854437 35.453339 L 355.942978 35.453339 C 353.755477 35.453339 352.000269 33.692922 352.000269 31.521047 C 352.000269 29.276255 353.755477 27.531463 355.942978 27.531463 L 378.276312 27.531463 C 380.583604 27.531463 382.328395 25.771047 382.328395 23.468963 L 382.328395 20.630421 C 382.328395 18.32313 380.583604 16.562713 378.276312 16.562713 L 342.802352 16.562713 C 340.500269 16.562713 338.739852 18.32313 338.739852 20.630421 L 338.739852 60.948131 C 338.739852 63.239798 340.500269 65.000215 342.802352 65.000215 Z M 342.802352 65.000215 " stroke="#bd1509" stroke-width="4.162139" stroke-opacity="1" stroke-miterlimit="4"/></svg>